SplineFontDB: 3.0
FontName: Parastoo-Bold
FullName: Parastoo Bold
FamilyName: Parastoo
Weight: Bold
Copyright: Copyright (c) 2016 by Saber Rastikerdar. All Rights Reserved.\nBased on DejaVu font.\nNon-Arabic(Latin) glyphs and data are imported from Lora font under the Open Font License.
Version: 1.0.0-alpha3
ItalicAngle: 0
UnderlinePosition: -500
UnderlineWidth: 100
Ascent: 1638
Descent: 410
InvalidEm: 0
LayerCount: 2
Layer: 0 1 "Back" 1
Layer: 1 1 "Fore" 0
XUID: [1021 502 1027637223 6203421]
UniqueID: 4071004
UseUniqueID: 1
FSType: 0
OS2Version: 1
OS2_WeightWidthSlopeOnly: 0
OS2_UseTypoMetrics: 1
CreationTime: 1431850356
ModificationTime: 1487444650
PfmFamily: 33
TTFWeight: 700
TTFWidth: 5
LineGap: 0
VLineGap: 0
Panose: 2 11 6 3 3 8 4 2 2 4
OS2TypoAscent: 2350
OS2TypoAOffset: 0
OS2TypoDescent: -1200
OS2TypoDOffset: 0
OS2TypoLinegap: 0
OS2WinAscent: 2350
OS2WinAOffset: 0
OS2WinDescent: 1200
OS2WinDOffset: 0
HheadAscent: 2350
HheadAOffset: 0
HheadDescent: -1200
HheadDOffset: 0
OS2SubXSize: 1331
OS2SubYSize: 1433
OS2SubXOff: 0
OS2SubYOff: 286
OS2SupXSize: 1331
OS2SupYSize: 1433
OS2SupXOff: 0
OS2SupYOff: 983
OS2StrikeYSize: 102
OS2StrikeYPos: 530
OS2Vendor: 'PfEd'
OS2CodePages: 00000041.20080000
OS2UnicodeRanges: 8000200f.80000000.00000008.00000000
Lookup: 1 9 0 "'fina' Terminal Forms in Arabic lookup 9" { "'fina' Terminal Forms in Arabic lookup 9 subtable"  } ['fina' ('arab' <'KUR ' 'SND ' 'URD ' 'dflt' > ) ]
Lookup: 1 9 0 "'medi' Medial Forms in Arabic lookup 11" { "'medi' Medial Forms in Arabic lookup 11 subtable"  } ['medi' ('arab' <'KUR ' 'SND ' 'URD ' 'dflt' > ) ]
Lookup: 1 9 0 "'init' Initial Forms in Arabic lookup 13" { "'init' Initial Forms in Arabic lookup 13 subtable"  } ['init' ('arab' <'KUR ' 'SND ' 'URD ' 'dflt' > ) ]
Lookup: 4 1 1 "'rlig' Required Ligatures in Arabic lookup 14" { "'rlig' Required Ligatures in Arabic lookup 14 subtable"  } ['rlig' ('arab' <'KUR ' 'dflt' > ) ]

StartChar: afii57388
Encoding: 1548 1548 2
Width: 596
VWidth: 3443
GlyphClass: 2
Flags: W
LayerCount: 2
Fore
SplineSet
305.95703125 316.154296875 m 5,0,1
 357 308 357 308 390 288.204871431 c 4,2,3
 458 247 458 247 457.059570312 156 c 4,4,5
 456 53 456 53 381.989257812 16.400390625 c 4,6,7
 350 1 350 1 302 0.549438838967 c 4,8,9
 208 0 208 0 167.23828125 64.681640625 c 4,10,11
 131 122 131 122 139.213867188 220.740234375 c 4,12,13
 161 480 161 480 434.98046875 644.528320312 c 4,14,15
 481.436690333 670.43224611 481.436690333 670.43224611 498.623046875 646.783203125 c 4,16,17
 514 627 514 627 495.893554688 612.7578125 c 4,18,19
 490.820120103 607.922382441 490.820120103 607.922382441 464.079589844 588.622558594 c 4,20,21
 406 546 406 546 366.291503968 484.038648866 c 4,22,23
 303 385 303 385 305.95703125 316.154296875 c 5,0,1
EndSplineSet
EndChar

StartChar: uni0615
Encoding: 1557 1557 3
Width: 0
VWidth: 3492
GlyphClass: 4
Flags: W
AnchorPoint: "Anchor-10" 783.926 1902.29 mark 0
AnchorPoint: "Anchor-9" 783.926 1902.29 mark 0
AnchorPoint: "Anchor-1" 783.926 3014.69 basemark 0
AnchorPoint: "Anchor-1" 783.926 1902.29 mark 0
LayerCount: 2
Fore
SplineSet
711.389648438 2189.34765625 m 1,0,-1
 790.692382812 2189.34765625 l 2,1,2
 958.892578125 2189.78808594 958.892578125 2189.78808594 1029.69921875 2236.21875 c 0,3,4
 1057.71484375 2254.58984375 1057.71484375 2254.58984375 1067.35351562 2276.13671875 c 128,-1,5
 1076.99316406 2297.68457031 1076.99316406 2297.68457031 1070.6640625 2325.7109375 c 0,6,7
 1064.42480469 2351.82519531 1064.42480469 2351.82519531 1051.92382812 2367.86914062 c 128,-1,8
 1039.42285156 2383.9140625 1039.42285156 2383.9140625 1019.20800781 2391.11816406 c 128,-1,9
 998.993164062 2398.32324219 998.993164062 2398.32324219 969.727539062 2396.92773438 c 0,10,11
 942.764648438 2395.51074219 942.764648438 2395.51074219 913.12890625 2382.18554688 c 128,-1,12
 883.4921875 2368.86132812 883.4921875 2368.86132812 851.123046875 2343.48242188 c 128,-1,13
 818.75390625 2318.10351562 818.75390625 2318.10351562 783.461914062 2279.26757812 c 128,-1,14
 748.168945312 2240.43261719 748.168945312 2240.43261719 711.389648438 2189.34765625 c 1,0,-1
1155.60351562 2231.22558594 m 0,15,16
 1099.16503906 2141.08691406 1099.16503906 2141.08691406 994.614257812 2096.41113281 c 128,-1,17
 890.0625 2051.73632812 890.0625 2051.73632812 740.056640625 2051.625 c 2,18,-1
 472.754882812 2051.42773438 l 1,19,-1
 407.357421875 2113.79101562 l 2,20,21
 402.165039062 2118.75683594 402.165039062 2118.75683594 399.0625 2121.91894531 c 128,-1,22
 395.961914062 2125.08203125 395.961914062 2125.08203125 392.034179688 2129.81738281 c 128,-1,23
 388.107421875 2134.55078125 388.107421875 2134.55078125 385.961914062 2138.45996094 c 128,-1,24
 383.81640625 2142.36914062 383.81640625 2142.36914062 382.239257812 2147.39550781 c 128,-1,25
 380.661132812 2152.42285156 380.661132812 2152.42285156 380.55859375 2157.60058594 c 0,26,27
 379.922851562 2189.34765625 379.922851562 2189.34765625 426.7890625 2189.34765625 c 2,28,-1
 546.8671875 2189.34765625 l 1,29,-1
 515.673828125 2811.13574219 l 1,30,-1
 645.126953125 2886.12402344 l 1,31,-1
 645.126953125 2250.89453125 l 1,32,33
 821.819335938 2555.34765625 821.819335938 2555.34765625 1006.52441406 2552.2734375 c 0,34,35
 1132.43261719 2549.97558594 1132.43261719 2549.97558594 1178.52441406 2450.01660156 c 0,36,37
 1202.62109375 2396.71972656 1202.62109375 2396.71972656 1196.67871094 2341.76660156 c 128,-1,38
 1190.734375 2286.81542969 1190.734375 2286.81542969 1155.60351562 2231.22558594 c 0,15,16
EndSplineSet
EndChar

StartChar: uni061B
Encoding: 1563 1563 4
Width: 596
VWidth: 3443
GlyphClass: 2
Flags: W
LayerCount: 2
Fore
SplineSet
305.763671875 838.28515625 m 5,0,1
 356.806640625 830.130859375 356.806640625 830.130859375 389.806640625 810.3359375 c 4,2,3
 457.806640625 769.130859375 457.806640625 769.130859375 456.866210938 678.130859375 c 4,4,5
 455.806640625 575.130859375 455.806640625 575.130859375 381.795898438 538.53125 c 4,6,7
 349.806640625 523.130859375 349.806640625 523.130859375 301.806640625 522.680664062 c 4,8,9
 207.806640625 522.130859375 207.806640625 522.130859375 167.044921875 586.8125 c 4,10,11
 130.806640625 644.130859375 130.806640625 644.130859375 139.020507812 742.87109375 c 4,12,13
 160.806640625 1002.13085938 160.806640625 1002.13085938 434.787109375 1166.65917969 c 4,14,15
 481.243164062 1192.56347656 481.243164062 1192.56347656 498.4296875 1168.9140625 c 4,16,17
 513.806640625 1149.13085938 513.806640625 1149.13085938 495.700195312 1134.88867188 c 4,18,19
 490.626953125 1130.05371094 490.626953125 1130.05371094 463.885742188 1110.75390625 c 4,20,21
 405.806640625 1068.13085938 405.806640625 1068.13085938 366.098632812 1006.16992188 c 4,22,23
 302.806640625 907.130859375 302.806640625 907.130859375 305.763671875 838.28515625 c 5,0,1
401.203125 46.162109375 m 0,24,25
 357 2 357 2 293.409179688 1.990234375 c 128,-1,26
 230 2 230 2 184.984375 47.2666015625 c 0,27,28
 140 93 140 93 140.898925781 152.500976562 c 0,29,30
 142 216 142 216 186.17578125 259.947265625 c 0,31,32
 230 303 230 303 293.409179688 303.435546875 c 0,33,34
 357 303 357 303 401.203125 260.024414062 c 0,35,36
 446 216 446 216 445.919921875 153.30859375 c 0,37,38
 446 90 446 90 401.203125 46.162109375 c 0,24,25
EndSplineSet
EndChar

StartChar: uni061F
Encoding: 1567 1567 5
Width: 875
VWidth: 3431
GlyphClass: 2
Flags: W
LayerCount: 2
Fore
SplineSet
581.203125 46.162109375 m 0,0,1
 537 2 537 2 473.409179688 1.990234375 c 128,-1,2
 410 2 410 2 364.984375 47.2666015625 c 0,3,4
 320 93 320 93 320.8984375 152.500976562 c 0,5,6
 322 216 322 216 366.17578125 259.947265625 c 0,7,8
 410 303 410 303 473.409179688 303.435546875 c 0,9,10
 537 303 537 303 581.203125 260.024414062 c 0,11,12
 626 216 626 216 625.919921875 153.30859375 c 0,13,14
 626 90 626 90 581.203125 46.162109375 c 0,0,1
393.607421875 569.802734375 m 2,15,16
 383.941359929 593.981899174 383.941359929 593.981899174 418.338867188 604.599609375 c 0,17,18
 461 617 461 617 462.984244202 648 c 0,19,20
 466.01464943 703.267169732 466.01464943 703.267169732 336.019905226 800.493879965 c 2,21,-1
 251.521973069 863.692250141 l 2,22,23
 90 985 90 985 84.0189632333 1154.65532294 c 0,24,25
 78 1324 78 1324 192.010742188 1430.5078125 c 0,26,27
 301 1532 301 1532 448.589865421 1531.49979483 c 0,28,29
 620 1531 620 1531 710.749023438 1417 c 0,30,31
 778 1334 778 1334 775.4921875 1208 c 0,32,33
 773 1110 773 1110 714.50390625 999 c 0,34,35
 698 967 698 967 682 947 c 1,36,-1
 608.650390625 986.5625 l 1,37,38
 626 1018 626 1018 637.679200652 1044 c 0,39,40
 691 1165 691 1165 621.476267811 1242 c 0,41,42
 572 1297 572 1297 486 1295.07714844 c 0,43,44
 418 1293 418 1293 369.649414062 1246 c 0,45,46
 325 1202 325 1202 324.499023438 1132.36230469 c 0,47,48
 323.999652775 1064.95312865 323.999652775 1064.95312865 388.59765625 995.84765625 c 2,49,-1
 455.971679688 923.772460938 l 2,50,51
 579 792 579 792 580.130475753 679 c 0,52,53
 581.969217709 556.058163398 581.969217709 556.058163398 449.723632812 505.66015625 c 4,54,55
 423.097343398 496.035188047 423.097343398 496.035188047 411.720286151 524.494321006 c 2,56,-1
 393.607421875 569.802734375 l 2,15,16
EndSplineSet
EndChar

StartChar: uni0621
Encoding: 1569 1569 6
Width: 809
VWidth: 3802
GlyphClass: 2
Flags: W
AnchorPoint: "Anchor-7" 401.696 -184.027 basechar 0
AnchorPoint: "Anchor-10" 379.194 1211.99 basechar 0
LayerCount: 2
Fore
SplineSet
714.913085938 313.046875 m 2,0,-1
 628.01171875 174.142578125 l 1,1,2
 358.086872271 158.005193635 358.086872271 158.005193635 119.583007812 17.71875 c 2,3,-1
 82.39453125 -4.1552734375 l 1,4,-1
 133.36328125 234.192382812 l 1,5,6
 153 243 153 243 211.188476562 266.916992188 c 1,7,8
 127 363 127 363 127.165039062 453.26171875 c 0,9,10
 128 534 128 534 170 617.822143555 c 0,11,12
 270 816 270 816 450.87890625 805.125 c 0,13,14
 629.75136578 794.015442378 629.75136578 794.015442378 702.158203125 604.685546875 c 2,15,-1
 705.798828125 595.166015625 l 1,16,-1
 657.08203125 527.0390625 l 1,17,18
 392 658 392 658 283.515625 518.16796875 c 0,19,20
 251 476 251 476 265.609375 439.85546875 c 0,21,22
 303.769184399 342.028101132 303.769184399 342.028101132 425.629882812 356.94140625 c 0,23,24
 444.73733024 360.522668263 444.73733024 360.522668263 554.457179247 378.666035459 c 0,25,26
 687 401 687 401 689.318847656 402.165527344 c 0,27,28
 724 410 724 410 734 402 c 4,29,30
 760.198755458 385.714287147 760.198755458 385.714287147 714.913085938 313.046875 c 2,0,-1
EndSplineSet
EndChar

StartChar: uni0627
Encoding: 1575 1575 12
Width: 500
VWidth: 3767
GlyphClass: 2
Flags: W
AnchorPoint: "Anchor-10" 267.041 1743.42 basechar 0
AnchorPoint: "Anchor-7" 254.428 -212.065 basechar 0
LayerCount: 2
Fore
SplineSet
370.235351562 1528.7734375 m 4,0,1
 388.076695342 1121.24815375 388.076695342 1121.24815375 377.811523438 704.514648438 c 2,2,-1
 372.501953125 488.962890625 l 2,3,4
 362 49 362 49 175.015625 6.11328125 c 1,5,-1
 175.012695312 24.439453125 l 2,6,7
 175 1031 175 1031 110.865234375 1387.65625 c 5,8,-1
 290.172851562 1565.47070312 l 6,9,10
 342 1617 342 1617 350.5390625 1611 c 4,11,12
 368 1600 368 1600 370.235351562 1528.7734375 c 4,0,1
EndSplineSet
Substitution2: "'fina' Terminal Forms in Arabic lookup 9 subtable" uniFE8E
EndChar

StartChar: uni062D
Encoding: 1581 1581 18
Width: 1315
VWidth: 3802
GlyphClass: 2
Flags: W
AnchorPoint: "Anchor-7" 429.15 -808.544 basechar 0
AnchorPoint: "Anchor-10" 577.28 1290.97 basechar 0
LayerCount: 2
Fore
SplineSet
585.212890625 337.736328125 m 4,0,1
 236 165 236 165 236.045898438 -90.7509765625 c 4,2,3
 236 -201 236 -201 368.090820312 -277.440429688 c 4,4,5
 496 -352 496 -352 774.54296875 -351.600585938 c 4,6,7
 1017 -351 1017 -351 1147.71289062 -327.272460938 c 4,8,9
 1198 -318 1198 -318 1206.12304688 -319.8515625 c 4,10,11
 1232 -325 1232 -325 1209.40234375 -372.515625 c 4,12,13
 1084 -636 1084 -636 710.896484375 -637.00390625 c 4,14,15
 93 -638 93 -638 94.314453125 -133.240234375 c 4,16,17
 95 100 95 100 227.360351562 285.232421875 c 4,18,19
 394 519 394 519 678.05859375 595.33984375 c 5,20,21
 633 604 633 604 606.193359375 610.352539062 c 4,22,23
 579 617 579 617 551.65234375 622.037109375 c 4,24,25
 525 627 525 627 497.76953125 632.200195312 c 4,26,27
 445 642 445 642 394.060546875 647.185546875 c 4,28,29
 281.296875 659.966796875 281.296875 659.966796875 179.209960938 534.342773438 c 6,30,-1
 168.72265625 521.4375 l 5,31,-1
 81.3076171875 575.176757812 l 5,32,-1
 87.453125 590.102539062 l 6,33,34
 229 933 229 933 394.094726562 927.245117188 c 4,35,36
 474 924 474 924 978.921875 777.065429688 c 4,37,38
 1085 746 1085 746 1200.2734375 746.1015625 c 4,39,40
 1228 746 1228 746 1231.05371094 730.139648438 c 4,41,42
 1235.03613281 708.807617188 1235.03613281 708.807617188 1230.64746094 696.016601562 c 6,43,-1
 1153.54980469 471.310546875 l 5,44,45
 781 434 781 434 585.212890625 337.736328125 c 4,0,1
EndSplineSet
Substitution2: "'fina' Terminal Forms in Arabic lookup 9 subtable" uniFEA2
Substitution2: "'medi' Medial Forms in Arabic lookup 11 subtable" uniFEA4
Substitution2: "'init' Initial Forms in Arabic lookup 13 subtable" uniFEA3
EndChar

StartChar: uni062F
Encoding: 1583 1583 20
Width: 1045
VWidth: 3800
GlyphClass: 2
Flags: W
AnchorPoint: "Anchor-10" 422.698 1436.33 basechar 0
AnchorPoint: "Anchor-7" 469.896 -212.864 basechar 0
LayerCount: 2
Fore
SplineSet
949.872070312 587.096679688 m 0,0,1
 1013 372 1013 372 937.09375 227.1171875 c 0,2,3
 819 2 819 2 428.473632812 2.091796875 c 0,4,5
 89 2 89 2 84.3671875 320.790039062 c 0,6,7
 83 412 83 412 122.383789062 560.8671875 c 1,8,-1
 213.614257812 542.237304688 l 1,9,10
 210 511 210 511 209.638671875 478.619140625 c 0,11,12
 210 334 210 334 441.284179688 334.524414062 c 0,13,14
 597 335 597 335 695 358.009477352 c 0,15,16
 821 388 821 388 820.831257045 438 c 0,17,18
 821 481 821 481 746.40625 551.034179688 c 0,19,20
 666 627 666 627 436.413085938 808.927734375 c 1,21,-1
 500.016601562 1109.65136719 l 2,22,23
 508 1146 508 1146 523.76953125 1135.43945312 c 0,24,25
 592 1092 592 1092 728.052734375 938.12109375 c 0,26,27
 906 738 906 738 949.872070312 587.096679688 c 0,0,1
EndSplineSet
Substitution2: "'fina' Terminal Forms in Arabic lookup 9 subtable" uniFEAA
EndChar

StartChar: uni0631
Encoding: 1585 1585 22
Width: 815
VWidth: 3807
GlyphClass: 2
Flags: W
AnchorPoint: "Anchor-7" 331.373 -795.689 basechar 0
AnchorPoint: "Anchor-10" 508.53 1121.23 basechar 0
LayerCount: 2
Fore
SplineSet
653.702148438 -259.234375 m 0,0,1
 601 -388 601 -388 519.5859375 -480.431640625 c 0,2,3
 481 -525 481 -525 446.811523438 -544.814453125 c 0,4,5
 362 -594 362 -594 103.450195312 -554.99609375 c 0,6,7
 -27 -535 -27 -535 -53.7861328125 -507.399414062 c 0,8,9
 -67 -493 -67 -493 -63.2275390625 -483.694335938 c 0,10,11
 -59 -474 -59 -474 -15.876953125 -460.004882812 c 0,12,13
 375.574204142 -329.811247271 375.574204142 -329.811247271 570.943359375 21.8896484375 c 4,14,15
 616 104 616 104 369.829101562 363.092773438 c 1,16,-1
 488.900390625 587.032226562 l 2,17,18
 514 635 514 635 556.859375 579.86328125 c 0,19,20
 680 426 680 426 713.297851562 197.2578125 c 0,21,22
 747 -32 747 -32 653.702148438 -259.234375 c 0,0,1
EndSplineSet
PairPos2: "'kern' Horizontal Kerning lookup 15-1" uniFEF3 dx=74 dy=0 dh=74 dv=0 dx=0 dy=0 dh=0 dv=0
PairPos2: "'kern' Horizontal Kerning lookup 15-1" uniFB58 dx=56 dy=0 dh=56 dv=0 dx=0 dy=0 dh=0 dv=0
PairPos2: "'kern' Horizontal Kerning lookup 15-1" uniFBFE dx=74 dy=0 dh=74 dv=0 dx=0 dy=0 dh=0 dv=0
PairPos2: "'kern' Horizontal Kerning lookup 15-4" uni0621 dx=-207 dy=0 dh=-207 dv=0 dx=0 dy=0 dh=0 dv=0
PairPos2: "'kern' Horizontal Kerning lookup 15-3" uni0648 dx=-45 dy=0 dh=-45 dv=0 dx=0 dy=0 dh=0 dv=0
PairPos2: "'kern' Horizontal Kerning lookup 15-1" uni0632 dx=-45 dy=0 dh=-45 dv=0 dx=0 dy=0 dh=0 dv=0
PairPos2: "'kern' Horizontal Kerning lookup 15-1" uni0631 dx=-45 dy=0 dh=-45 dv=0 dx=0 dy=0 dh=0 dv=0
PairPos2: "'kern' Horizontal Kerning lookup 15-1" uni06CC dx=-45 dy=0 dh=-45 dv=0 dx=0 dy=0 dh=0 dv=0
PairPos2: "'kern' Horizontal Kerning lookup 15-1" uniFEEB dx=-135 dy=0 dh=-135 dv=0 dx=0 dy=0 dh=0 dv=0
PairPos2: "'kern' Horizontal Kerning lookup 15-1" uniFB7C dx=-121 dy=0 dh=-121 dv=0 dx=0 dy=0 dh=0 dv=0
PairPos2: "'kern' Horizontal Kerning lookup 15-1" uniFEDF dx=-135 dy=0 dh=-135 dv=0 dx=0 dy=0 dh=0 dv=0
PairPos2: "'kern' Horizontal Kerning lookup 15-1" uniFB90 dx=-224 dy=0 dh=-224 dv=0 dx=0 dy=0 dh=0 dv=0
PairPos2: "'kern' Horizontal Kerning lookup 15-1" uni06A9 dx=-224 dy=0 dh=-224 dv=0 dx=0 dy=0 dh=0 dv=0
PairPos2: "'kern' Horizontal Kerning lookup 15-1" uni0649 dx=-45 dy=0 dh=-45 dv=0 dx=0 dy=0 dh=0 dv=0
PairPos2: "'kern' Horizontal Kerning lookup 15-1" uni0647 dx=-135 dy=0 dh=-135 dv=0 dx=0 dy=0 dh=0 dv=0
PairPos2: "'kern' Horizontal Kerning lookup 15-1" uniFEE7 dx=-135 dy=0 dh=-135 dv=0 dx=0 dy=0 dh=0 dv=0
PairPos2: "'kern' Horizontal Kerning lookup 15-1" uniFEE3 dx=-135 dy=0 dh=-135 dv=0 dx=0 dy=0 dh=0 dv=0
PairPos2: "'kern' Horizontal Kerning lookup 15-1" uni0645 dx=-135 dy=0 dh=-135 dv=0 dx=0 dy=0 dh=0 dv=0
PairPos2: "'kern' Horizontal Kerning lookup 15-1" uni0644 dx=-45 dy=0 dh=-45 dv=0 dx=0 dy=0 dh=0 dv=0
PairPos2: "'kern' Horizontal Kerning lookup 15-1" uniFEDB dx=-224 dy=0 dh=-224 dv=0 dx=0 dy=0 dh=0 dv=0
PairPos2: "'kern' Horizontal Kerning lookup 15-1" uniFED7 dx=-135 dy=0 dh=-135 dv=0 dx=0 dy=0 dh=0 dv=0
PairPos2: "'kern' Horizontal Kerning lookup 15-1" uni0642 dx=-45 dy=0 dh=-45 dv=0 dx=0 dy=0 dh=0 dv=0
PairPos2: "'kern' Horizontal Kerning lookup 15-1" uniFED3 dx=-135 dy=0 dh=-135 dv=0 dx=0 dy=0 dh=0 dv=0
PairPos2: "'kern' Horizontal Kerning lookup 15-1" uni0641 dx=-135 dy=0 dh=-135 dv=0 dx=0 dy=0 dh=0 dv=0
PairPos2: "'kern' Horizontal Kerning lookup 15-1" uniFECF dx=-135 dy=0 dh=-135 dv=0 dx=0 dy=0 dh=0 dv=0
PairPos2: "'kern' Horizontal Kerning lookup 15-1" uniFECB dx=-135 dy=0 dh=-135 dv=0 dx=0 dy=0 dh=0 dv=0
PairPos2: "'kern' Horizontal Kerning lookup 15-1" uniFEC7 dx=-135 dy=0 dh=-135 dv=0 dx=0 dy=0 dh=0 dv=0
PairPos2: "'kern' Horizontal Kerning lookup 15-1" uni0638 dx=-135 dy=0 dh=-135 dv=0 dx=0 dy=0 dh=0 dv=0
PairPos2: "'kern' Horizontal Kerning lookup 15-1" uniFEC3 dx=-135 dy=0 dh=-135 dv=0 dx=0 dy=0 dh=0 dv=0
PairPos2: "'kern' Horizontal Kerning lookup 15-1" uni0637 dx=-135 dy=0 dh=-135 dv=0 dx=0 dy=0 dh=0 dv=0
PairPos2: "'kern' Horizontal Kerning lookup 15-1" uniFEBF dx=-135 dy=0 dh=-135 dv=0 dx=0 dy=0 dh=0 dv=0
PairPos2: "'kern' Horizontal Kerning lookup 15-1" uni0636 dx=-135 dy=0 dh=-135 dv=0 dx=0 dy=0 dh=0 dv=0
PairPos2: "'kern' Horizontal Kerning lookup 15-1" uniFEBB dx=-135 dy=0 dh=-135 dv=0 dx=0 dy=0 dh=0 dv=0
PairPos2: "'kern' Horizontal Kerning lookup 15-1" uni0635 dx=-135 dy=0 dh=-135 dv=0 dx=0 dy=0 dh=0 dv=0
PairPos2: "'kern' Horizontal Kerning lookup 15-1" uniFEB7 dx=-135 dy=0 dh=-135 dv=0 dx=0 dy=0 dh=0 dv=0
PairPos2: "'kern' Horizontal Kerning lookup 15-1" uni0634 dx=-135 dy=0 dh=-135 dv=0 dx=0 dy=0 dh=0 dv=0
PairPos2: "'kern' Horizontal Kerning lookup 15-1" uniFEB3 dx=-135 dy=0 dh=-135 dv=0 dx=0 dy=0 dh=0 dv=0
PairPos2: "'kern' Horizontal Kerning lookup 15-1" uni0633 dx=-135 dy=0 dh=-135 dv=0 dx=0 dy=0 dh=0 dv=0
PairPos2: "'kern' Horizontal Kerning lookup 15-1" uni0630 dx=-135 dy=0 dh=-135 dv=0 dx=0 dy=0 dh=0 dv=0
PairPos2: "'kern' Horizontal Kerning lookup 15-1" uni062F dx=-135 dy=0 dh=-135 dv=0 dx=0 dy=0 dh=0 dv=0
PairPos2: "'kern' Horizontal Kerning lookup 15-1" uniFEA7 dx=-135 dy=0 dh=-135 dv=0 dx=0 dy=0 dh=0 dv=0
PairPos2: "'kern' Horizontal Kerning lookup 15-1" uniFEA3 dx=-135 dy=0 dh=-135 dv=0 dx=0 dy=0 dh=0 dv=0
PairPos2: "'kern' Horizontal Kerning lookup 15-1" uniFE9F dx=-135 dy=0 dh=-135 dv=0 dx=0 dy=0 dh=0 dv=0
PairPos2: "'kern' Horizontal Kerning lookup 15-1" uniFE9B dx=-135 dy=0 dh=-135 dv=0 dx=0 dy=0 dh=0 dv=0
PairPos2: "'kern' Horizontal Kerning lookup 15-1" uni062B dx=-135 dy=0 dh=-135 dv=0 dx=0 dy=0 dh=0 dv=0
PairPos2: "'kern' Horizontal Kerning lookup 15-1" uniFE97 dx=-135 dy=0 dh=-135 dv=0 dx=0 dy=0 dh=0 dv=0
PairPos2: "'kern' Horizontal Kerning lookup 15-1" uni062A dx=-135 dy=0 dh=-135 dv=0 dx=0 dy=0 dh=0 dv=0
PairPos2: "'kern' Horizontal Kerning lookup 15-1" uni0629 dx=-135 dy=0 dh=-135 dv=0 dx=0 dy=0 dh=0 dv=0
PairPos2: "'kern' Horizontal Kerning lookup 15-1" uniFE91 dx=-56 dy=0 dh=-56 dv=0 dx=0 dy=0 dh=0 dv=0
PairPos2: "'kern' Horizontal Kerning lookup 15-1" uni0628 dx=-135 dy=0 dh=-135 dv=0 dx=0 dy=0 dh=0 dv=0
PairPos2: "'kern' Horizontal Kerning lookup 15-1" uni0627 dx=-207 dy=0 dh=-207 dv=0 dx=0 dy=0 dh=0 dv=0
PairPos2: "'kern' Horizontal Kerning lookup 15-1" uni0622 dx=-207 dy=0 dh=-207 dv=0 dx=0 dy=0 dh=0 dv=0
PairPos2: "'kern' Horizontal Kerning lookup 15-1" uniFB94 dx=-248 dy=0 dh=-248 dv=0 dx=0 dy=0 dh=0 dv=0
PairPos2: "'kern' Horizontal Kerning lookup 15-1" afii57509 dx=-248 dy=0 dh=-248 dv=0 dx=0 dy=0 dh=0 dv=0
PairPos2: "'kern' Horizontal Kerning lookup 15-1" uniFB56 dx=-135 dy=0 dh=-135 dv=0 dx=0 dy=0 dh=0 dv=0
PairPos2: "'kern' Horizontal Kerning lookup 15-1" afii57506 dx=-135 dy=0 dh=-135 dv=0 dx=0 dy=0 dh=0 dv=0
Substitution2: "'fina' Terminal Forms in Arabic lookup 9 subtable" uniFEAE
EndChar

StartChar: uni0633
Encoding: 1587 1587 24
Width: 2316
VWidth: 3807
GlyphClass: 2
Flags: W
AnchorPoint: "Anchor-7" 446.8 -802.287 basechar 0
AnchorPoint: "Anchor-10" 632.465 1014.94 basechar 0
LayerCount: 2
Fore
SplineSet
937.805664062 323.5390625 m 1,0,-1
 1060.10742188 530.049804688 l 2,1,2
 1085 572 1085 572 1098 572 c 0,3,4
 1108 572 1108 572 1126 542 c 0,5,6
 1135 527 1135 527 1161.03222656 480.77734375 c 0,7,8
 1214 383 1214 383 1249.80664062 363.560546875 c 24,9,10
 1303 334 1303 334 1400.73339844 335.103515625 c 0,11,12
 1567.38320283 337.004370921 1567.38320283 337.004370921 1592.52929688 492.83203125 c 2,13,-1
 1612.26953125 615.16015625 l 1,14,-1
 1733.20898438 597.302734375 l 1,15,-1
 1721.53027344 500.375976562 l 2,16,17
 1702 336 1702 336 1903.61914062 336.336914062 c 0,18,19
 2052 336 2052 336 2053.56542969 400.491210938 c 0,20,21
 2054 415 2054 415 2028.20507812 476.125 c 0,22,23
 2001 543 2001 543 1955.22949219 629.80078125 c 1,24,-1
 2071.92675781 833.87890625 l 2,25,26
 2086 858 2086 858 2095.56542969 856.430664062 c 0,27,28
 2108 854 2108 854 2126.23144531 822.838867188 c 0,29,30
 2214 680 2214 680 2229.76464844 504.430664062 c 0,31,32
 2248 307 2248 307 2144.20800781 149.478515625 c 0,33,34
 2048 3 2048 3 1887.06347656 2.1845703125 c 0,35,36
 1728 1 1728 1 1630.98535156 137.889648438 c 1,37,38
 1517 0 1517 0 1396.04101562 -0.587890625 c 0,39,40
 1330 -1 1330 -1 1261.68554688 40.146484375 c 1,41,42
 1288 -238 1288 -238 1126.5703125 -414.455078125 c 0,43,44
 958 -600 958 -600 627.6953125 -599.545898438 c 0,45,46
 363 -600 363 -600 231 -490.336914062 c 0,47,48
 100 -382 100 -382 98.185546875 -165 c 0,49,50
 97 13 97 13 205.07421875 260.80859375 c 1,51,-1
 296 223 l 1,52,53
 260 132 260 132 247.127929688 53 c 0,54,55
 234 -34 234 -34 250 -89.58984375 c 0,56,57
 310.983398438 -292.942382812 310.983398438 -292.942382812 625 -288.775390625 c 0,58,59
 995.177734375 -283.862304688 995.177734375 -283.862304688 1146.34765625 -63.4619140625 c 1,60,61
 1096 66 1096 66 937.805664062 323.5390625 c 1,0,-1
EndSplineSet
Substitution2: "'fina' Terminal Forms in Arabic lookup 9 subtable" uniFEB2
Substitution2: "'medi' Medial Forms in Arabic lookup 11 subtable" uniFEB4
Substitution2: "'init' Initial Forms in Arabic lookup 13 subtable" uniFEB3
EndChar

StartChar: uni0635
Encoding: 1589 1589 26
Width: 2604
VWidth: 3808
GlyphClass: 2
Flags: W
AnchorPoint: "Anchor-10" 632.465 1014.94 basechar 0
AnchorPoint: "Anchor-7" 446.8 -802.287 basechar 0
LayerCount: 2
Fore
SplineSet
936.805664062 323.5390625 m 5,0,-1
 1060.10742188 530.049804688 l 2,1,2
 1085 572 1085 572 1098 572 c 0,3,4
 1108 572 1108 572 1126 542 c 0,5,6
 1135 527 1135 527 1161.03222656 480.77734375 c 0,7,8
 1216 380 1216 380 1249.80664062 363.560546875 c 8,9,10
 1322 328 1322 328 1440.80761719 338.553710938 c 1,11,12
 1821 898 1821 898 2166 893.225585938 c 0,13,14
 2312 891 2312 891 2400 815.140625 c 0,15,16
 2507 723 2507 723 2508.64355469 570 c 0,17,18
 2510 489 2510 489 2466.71912736 377 c 0,19,20
 2376 140 2376 140 2185.35253906 64.685546875 c 0,21,22
 2023.06869583 0.0273702354471 2023.06869583 0.0273702354471 1783.99121094 0.013671875 c 2,23,-1
 1545.37597656 0 l 2,24,25
 1352 -0 1352 -0 1261.68554688 40.146484375 c 1,26,27
 1288 -238 1288 -238 1126.5703125 -414.455078125 c 0,28,29
 958.928823417 -598.977646385 958.928823417 -598.977646385 627.6953125 -599.545898438 c 0,30,31
 363 -600 363 -600 231 -490.336914062 c 0,32,33
 100 -382 100 -382 98.185546875 -165 c 0,34,35
 97 13 97 13 205.07421875 260.80859375 c 1,36,-1
 295 223 l 5,37,38
 259 132 259 132 246.127929688 53 c 4,39,40
 233 -34 233 -34 249 -89.58984375 c 4,41,42
 310 -293 310 -293 624 -288.775390625 c 4,43,44
 994 -284 994 -284 1145.34765625 -63.4619140625 c 5,45,46
 1095 66 1095 66 936.805664062 323.5390625 c 5,0,-1
1596.97070312 335.373046875 m 1,47,-1
 1877.04394531 335.373046875 l 2,48,49
 2074.4672922 335.008372675 2074.4672922 335.008372675 2188.8515625 362.807617188 c 0,50,51
 2346 401 2346 401 2344.25 439.235351562 c 0,52,53
 2342 500 2342 500 2282.80957031 544.314453125 c 0,54,55
 2225 589 2225 589 2123.47363281 588.262695312 c 0,56,57
 1934.90565267 588.003986457 1934.90565267 588.003986457 1739.08105469 445.009765625 c 0,58,59
 1669 394 1669 394 1596.97070312 335.373046875 c 1,47,-1
EndSplineSet
Substitution2: "'fina' Terminal Forms in Arabic lookup 9 subtable" uniFEBA
Substitution2: "'medi' Medial Forms in Arabic lookup 11 subtable" uniFEBC
Substitution2: "'init' Initial Forms in Arabic lookup 13 subtable" uniFEBB
EndChar

StartChar: uni0637
Encoding: 1591 1591 28
Width: 1603
VWidth: 3808
GlyphClass: 2
Flags: W
AnchorPoint: "Anchor-10" 525.815 1748.62 basechar 0
AnchorPoint: "Anchor-7" 714.45 -272.688 basechar 0
LayerCount: 2
Fore
SplineSet
785.383789062 0.013671875 m 2,0,-1
 532.869140625 -1.2275390625 l 2,1,2
 428 -2 428 -2 351.674804688 51.8193359375 c 0,3,4
 226 139 226 139 114.864257812 229.728515625 c 0,5,6
 45 287 45 287 51.6357421875 311.924804688 c 0,7,8
 56.9618331903 332.850049532 56.9618331903 332.850049532 114.935546875 333.201171875 c 2,9,-1
 438.221679688 335.159179688 l 1,10,11
 476 376 476 376 513.051757812 416.72265625 c 5,12,13
 506.402800574 739.778999042 506.402800574 739.778999042 501.377929688 921.98828125 c 4,14,15
 496 1106 496 1106 445.881835938 1335.05273438 c 5,16,-1
 653 1580 l 6,17,18
 692.065281578 1626.07699878 692.065281578 1626.07699878 706 1563 c 6,19,-1
 762.412109375 1307.64453125 l 6,20,21
 777.983988557 1235.07461842 777.983988557 1235.07461842 731.502929688 1186.09472656 c 6,22,-1
 695.390625 1148.04101562 l 5,23,-1
 694.313476562 610.900390625 l 5,24,25
 952 894 952 894 1167.39257812 893.225585938 c 24,26,27
 1311 893 1311 893 1401.39257812 815.140625 c 0,28,29
 1508 723 1508 723 1510.03613281 570 c 0,30,31
 1511 489 1511 489 1468.11132812 377 c 0,32,33
 1377 140 1377 140 1186.74511719 64.685546875 c 0,34,35
 1024 1 1024 1 785.383789062 0.013671875 c 2,0,-1
596.672851562 335.373046875 m 1,36,-1
 876.74609375 335.373046875 l 2,37,38
 1075 335 1075 335 1188.55371094 362.807617188 c 0,39,40
 1346 401 1346 401 1343.95214844 439.235351562 c 0,41,42
 1341 500 1341 500 1282.51171875 544.314453125 c 0,43,44
 1224 589 1224 589 1123.17578125 588.262695312 c 0,45,46
 934.607248086 588.003582629 934.607248086 588.003582629 738.783203125 445.009765625 c 0,47,48
 669 394 669 394 596.672851562 335.373046875 c 1,36,-1
EndSplineSet
Substitution2: "'fina' Terminal Forms in Arabic lookup 9 subtable" uniFEC2
Substitution2: "'medi' Medial Forms in Arabic lookup 11 subtable" uniFEC4
Substitution2: "'init' Initial Forms in Arabic lookup 13 subtable" uniFEC3
EndChar

StartChar: uni0639
Encoding: 1593 1593 30
Width: 1321
VWidth: 3802
GlyphClass: 2
Flags: W
AnchorPoint: "Anchor-7" 429.15 -808.544 basechar 0
AnchorPoint: "Anchor-10" 612.723 1489.26 basechar 0
LayerCount: 2
Fore
SplineSet
236.041015625 -91.2119140625 m 28,0,1
 236 -203 236 -203 368.090820312 -279.547851562 c 4,2,3
 496 -354 496 -354 774.54296875 -353.708007812 c 4,4,5
 1017 -353 1017 -353 1147.71289062 -329.379882812 c 4,6,7
 1198 -320 1198 -320 1206.12304688 -321.958984375 c 4,8,9
 1232 -327 1232 -327 1209.40234375 -374.624023438 c 4,10,11
 1084 -639 1084 -639 710.896484375 -639.111328125 c 4,12,13
 100 -640 100 -640 94.3154296875 -135.34765625 c 28,14,15
 91 203 91 203 418.38671875 411.395507812 c 5,16,17
 267 588 267 588 319.1328125 734.989257812 c 4,18,19
 438 1074 438 1074 699.077148438 1072.54199219 c 4,20,21
 922.265625 1071.99902344 922.265625 1071.99902344 1034.19433594 839.561523438 c 6,22,-1
 1039.46875 828.608398438 l 5,23,-1
 987.037109375 765.231445312 l 5,24,25
 674 891 674 891 520.423828125 758.419921875 c 4,26,27
 466 711 466 711 456.342773438 676.583984375 c 4,28,29
 453 665 453 665 544.026367188 594.463867188 c 4,30,31
 631 527 631 527 669.323242188 532.186523438 c 4,32,33
 810 554 810 554 952.575195312 575.870117188 c 5,34,-1
 1094.328125 593.842773438 l 6,35,36
 1131 598 1131 598 1140.10644531 577.50390625 c 4,37,38
 1146.125 561.671875 1146.125 561.671875 1139.56152344 536.811523438 c 6,39,-1
 1073.80761719 287.735351562 l 5,40,41
 713 282 713 282 503.716796875 193.416992188 c 4,42,43
 236 81 236 81 236.041015625 -91.2119140625 c 28,0,1
EndSplineSet
Substitution2: "'fina' Terminal Forms in Arabic lookup 9 subtable" uniFECA
Substitution2: "'medi' Medial Forms in Arabic lookup 11 subtable" uniFECC
Substitution2: "'init' Initial Forms in Arabic lookup 13 subtable" uniFECB
EndChar

StartChar: afii57440
Encoding: 1600 1600 32
Width: 279
VWidth: 3835
GlyphClass: 2
Flags: W
AnchorPoint: "Anchor-10" 149.417 1391.76 basechar 0
AnchorPoint: "Anchor-7" 148.332 -177.021 basechar 0
LayerCount: 2
Fore
SplineSet
324.317382812 113.83203125 m 6,0,1
 324.317382812 0 324.317382812 0 284.526367188 0 c 2,2,-1
 -5.2685546875 0 l 2,3,4
 -85.2783203125 0 -85.2783203125 0 -85.2783203125 112.759765625 c 2,5,-1
 -85.2783203125 219.185546875 l 2,6,7
 -84.9999976119 333.000976562 -84.9999976119 333.000976562 -5.2685546875 333.000976562 c 2,8,-1
 284.526367188 333.000976562 l 2,9,10
 324.317382812 332.999992148 324.317382812 332.999992148 324.317382812 217.083007812 c 6,11,-1
 324.317382812 113.83203125 l 6,0,1
EndSplineSet
EndChar

StartChar: uni0643
Encoding: 1603 1603 35
Width: 1944
VWidth: 3767
GlyphClass: 2
Flags: W
AnchorPoint: "Anchor-7" 636.689 -308.45 basechar 0
AnchorPoint: "Anchor-10" 581.544 1564.27 basechar 0
LayerCount: 2
Fore
SplineSet
1679.79394531 170.345703125 m 24,0,1
 1427 -87 1427 -87 792.51171875 -86.833984375 c 0,2,3
 84 -86 84 -86 87.4287109375 419.53515625 c 0,4,5
 89 602 89 602 203.01171875 774.547851562 c 1,6,-1
 293.727539062 737.8359375 l 1,7,8
 240 605 240 605 239.57421875 530.038085938 c 4,9,10
 237 245 237 245 818.124023438 244.518554688 c 0,11,12
 1356 244 1356 244 1545.40917969 388.91796875 c 24,13,14
 1627 451 1627 451 1627.953125 540.515625 c 0,15,16
 1630 725 1630 725 1608.09863281 924.698242188 c 0,17,18
 1575 1232 1575 1232 1551.1015625 1334.32519531 c 1,19,-1
 1741.11914062 1557.45117188 l 2,20,21
 1784 1608 1784 1608 1799 1602 c 0,22,23
 1810.64355469 1598.1188151 1810.64355469 1598.1188151 1810.64355469 1533.48046875 c 2,24,-1
 1810.64355469 634.616210938 l 2,25,26
 1811 303 1811 303 1679.79394531 170.345703125 c 24,0,1
1188.69921875 989.096679688 m 0,27,28
 1204 958 1204 958 1208.41099841 918 c 0,29,30
 1215 859 1215 859 1200 808 c 0,31,32
 1177 727 1177 727 1079 679.175844301 c 0,33,34
 958 620 958 620 755.21875 664.365234375 c 0,35,36
 720 672 720 672 672.45703125 687.686523438 c 1,37,-1
 690.048828125 867.874023438 l 1,38,-1
 712.932617188 859.721679688 l 2,39,40
 819 822 819 822 948.2265625 823.46484375 c 0,41,42
 1078 825 1078 825 1086.453125 880.211914062 c 0,43,44
 1088 890 1088 890 1062.31152344 906.52734375 c 0,45,46
 1037 924 1037 924 962.41015625 939.788085938 c 0,47,48
 771 981 771 981 776.500976562 1167.20214844 c 0,49,50
 781 1333 781 1333 1000.48925781 1390.05761719 c 0,51,52
 1074 1409 1074 1409 1147 1409.54980469 c 0,53,54
 1194 1410 1194 1410 1194 1398 c 0,55,56
 1194 1395.85709332 1194 1395.85709332 1178.55175781 1351.64550781 c 2,57,-1
 1137.58203125 1234.39355469 l 1,58,59
 952 1217 952 1217 905.063476562 1173.33398438 c 0,60,61
 881 1151 881 1151 897.328125 1138.85351562 c 0,62,63
 933 1111 933 1111 1010.35644531 1097.55859375 c 0,64,65
 1088 1084 1088 1084 1127.59375 1057.76464844 c 0,66,67
 1168 1031 1168 1031 1188.69921875 989.096679688 c 0,27,28
EndSplineSet
Substitution2: "'fina' Terminal Forms in Arabic lookup 9 subtable" uniFEDA
Substitution2: "'medi' Medial Forms in Arabic lookup 11 subtable" uniFEDC
Substitution2: "'init' Initial Forms in Arabic lookup 13 subtable" uniFEDB
EndChar

StartChar: uni0644
Encoding: 1604 1604 36
Width: 1397
VWidth: 3808
GlyphClass: 2
Flags: W
AnchorPoint: "Anchor-7" 446.8 -802.287 basechar 0
AnchorPoint: "Anchor-10" 589.02 1430.97 basechar 0
LayerCount: 2
Fore
SplineSet
638.947265625 -287.706054688 m 28,0,1
 968 -287 968 -287 1114.31445312 -58.9560546875 c 1,2,3
 1055 973 1055 973 993.724609375 1335.0625 c 1,4,-1
 1188.21777344 1569.17675781 l 2,5,6
 1218 1605 1218 1605 1232 1602 c 0,7,8
 1245.51116319 1598.88203926 1245.51116319 1598.88203926 1257.59472656 1545.0078125 c 2,9,-1
 1311.06933594 1306.59277344 l 1,10,11
 1333.00662436 1226.97595828 1333.00662436 1226.97595828 1290.39550781 1190.22851562 c 2,12,-1
 1242.91894531 1149.28515625 l 1,13,-1
 1262.29003906 18.9375 l 2,14,15
 1267 -264 1267 -264 1126.42480469 -414.612304688 c 0,16,17
 955.940612403 -598.982772849 955.940612403 -598.982772849 627.6953125 -599.545898438 c 4,18,19
 363 -600 363 -600 231 -490.336914062 c 4,20,21
 100 -382 100 -382 98.185546875 -165 c 4,22,23
 97 13 97 13 205.07421875 260.80859375 c 5,24,-1
 295 223 l 5,25,26
 259 132 259 132 246.127929688 53 c 4,27,28
 232 -32 232 -32 249 -89.58984375 c 4,29,30
 308 -288 308 -288 638.947265625 -287.706054688 c 28,0,1
EndSplineSet
Substitution2: "'fina' Terminal Forms in Arabic lookup 9 subtable" uniFEDE
Substitution2: "'medi' Medial Forms in Arabic lookup 11 subtable" uniFEE0
Substitution2: "'init' Initial Forms in Arabic lookup 13 subtable" uniFEDF
EndChar

StartChar: uni0645
Encoding: 1605 1605 37
Width: 1041
VWidth: 3838
GlyphClass: 2
Flags: W
AnchorPoint: "Anchor-10" 585.147 1199.6 basechar 0
AnchorPoint: "Anchor-7" 210.299 -850.293 basechar 0
LayerCount: 2
Fore
SplineSet
400.71875 362.1875 m 1,0,1
 613.311523438 360.399414062 613.311523438 360.399414062 823.758789062 317.077148438 c 1,2,3
 745.036132812 482.640625 745.036132812 482.640625 588.177734375 506.291992188 c 0,4,5
 513.200195312 517.416015625 513.200195312 517.416015625 470.915039062 468.791015625 c 0,6,7
 416.250976562 404.659179688 416.250976562 404.659179688 400.71875 362.1875 c 1,0,1
851.0703125 40.15234375 m 0,8,9
 807 4 807 4 718.112304688 16.6640625 c 0,10,11
 351 67 351 67 250.075195312 36.2734375 c 1,12,-1
 277.516601562 -416.53515625 l 6,13,14
 286 -559 286 -559 169.231445312 -736.515625 c 4,15,16
 121 -809 121 -809 107.942382812 -801.481445312 c 4,17,18
 97.5785894923 -794.725282238 97.5785894923 -794.725282238 96.09375 -713.294921875 c 6,19,-1
 85.7939453125 -148.44140625 l 6,20,21
 78 252 78 252 282.154296875 364.139648438 c 1,22,23
 366 821 366 821 616.803710938 782.625976562 c 0,24,25
 794 756 794 756 903.672851562 516.892578125 c 0,26,27
 960 394 960 394 961.063476562 296.390625 c 0,28,29
 963 133 963 133 851.0703125 40.15234375 c 0,8,9
EndSplineSet
Substitution2: "'init' Initial Forms in Arabic lookup 13 subtable" uniFEE3
Substitution2: "'medi' Medial Forms in Arabic lookup 11 subtable" uniFEE4
Substitution2: "'fina' Terminal Forms in Arabic lookup 9 subtable" uniFEE2
EndChar

StartChar: uni0647
Encoding: 1607 1607 39
Width: 813
VWidth: 3801
GlyphClass: 2
Flags: W
AnchorPoint: "Anchor-10" 327.563 1298.83 basechar 0
AnchorPoint: "Anchor-7" 385.186 -212.531 basechar 0
LayerCount: 2
Fore
SplineSet
332.788085938 608.237304688 m 5,0,1
 193.899414062 460.510742188 193.899414062 460.510742188 211.091796875 404.0703125 c 0,2,3
 231.8359375 334.0546875 231.8359375 334.0546875 415.33984375 335.125976562 c 0,4,5
 538.4921875 336.162109375 538.4921875 336.162109375 584.64453125 393.24609375 c 0,6,7
 653.356445312 477.37109375 653.356445312 477.37109375 332.788085938 608.237304688 c 5,0,1
83.376953125 396.663085938 m 0,8,9
 82.1962890625 612.2578125 82.1962890625 612.2578125 268.788085938 904.19921875 c 4,10,11
 302.440429688 956.850585938 302.440429688 956.850585938 355.248046875 936.043945312 c 4,12,13
 734.499023438 781.919921875 734.499023438 781.919921875 734.008789062 443.140625 c 0,14,15
 733.444335938 3.1611328125 733.444335938 3.1611328125 395.338867188 5.2900390625 c 0,16,17
 85.357421875 7.376953125 85.357421875 7.376953125 83.376953125 396.663085938 c 0,8,9
EndSplineSet
Substitution2: "'fina' Terminal Forms in Arabic lookup 9 subtable" uniFEEA
Substitution2: "'medi' Medial Forms in Arabic lookup 11 subtable" uniFEEC
Substitution2: "'init' Initial Forms in Arabic lookup 13 subtable" uniFEEB
EndChar

StartChar: uni0648
Encoding: 1608 1608 40
Width: 834
VWidth: 3836
GlyphClass: 2
Flags: W
AnchorPoint: "Anchor-7" 331.373 -795.689 basechar 0
AnchorPoint: "Anchor-10" 413.012 1204.25 basechar 0
LayerCount: 2
Fore
SplineSet
705.737304688 -178.091796875 m 0,0,1
 641 -378 641 -378 552.25390625 -480.431640625 c 0,2,3
 509 -530 509 -530 479.478515625 -544.814453125 c 0,4,5
 385 -592 385 -592 136.118164062 -554.99609375 c 0,6,7
 4 -535 4 -535 -21.1181640625 -507.399414062 c 0,8,9
 -35 -493 -35 -493 -30.033203125 -482.640625 c 0,10,11
 -26 -474 -26 -474 16.791015625 -460.004882812 c 0,12,13
 394 -336 394 -336 582.750976562 -15.8603515625 c 1,14,15
 516 -26 516 -26 452.491210938 -22.7734375 c 0,16,17
 297 -16 297 -16 231.8359375 34.775390625 c 0,18,19
 158 92 158 92 159.522460938 216.047851562 c 0,20,21
 161 376 161 376 228.279296875 539.221679688 c 4,22,23
 302 718 302 718 438.94921875 720.099609375 c 0,24,25
 594 723 594 723 686.48828125 530.12109375 c 0,26,27
 756 385 756 385 756.108398438 164.392578125 c 0,28,29
 756 -26 756 -26 705.737304688 -178.091796875 c 0,0,1
415.256835938 467.6328125 m 0,30,31
 330 468 330 468 298.166992188 393.521484375 c 0,32,33
 278 347 278 347 287.993164062 328.046875 c 0,34,35
 312 279 312 279 597.8359375 304.08203125 c 1,36,37
 535 468 535 468 415.256835938 467.6328125 c 0,30,31
EndSplineSet
Substitution2: "'fina' Terminal Forms in Arabic lookup 9 subtable" uniFEEE
EndChar

StartChar: uni0649
Encoding: 1609 1609 41
Width: 1518
VWidth: 3808
GlyphClass: 2
Flags: W
AnchorPoint: "Anchor-7" 438.369 -802.287 basechar 0
AnchorPoint: "Anchor-10" 601.961 1074.96 basechar 0
LayerCount: 2
Fore
SplineSet
710.647460938 -285.87109375 m 0,0,1
 1075 -285 1075 -285 1246.24804688 -102.53515625 c 0,2,3
 1258 -90 1258 -90 1254.70214844 -82.3291015625 c 0,4,5
 1247.02028436 -65.0456378858 1247.02028436 -65.0456378858 1195.83398438 -50.23046875 c 2,6,-1
 857.663085938 47.6484375 l 2,7,8
 703 92 703 92 779.20703125 345.22265625 c 0,9,10
 910 777 910 777 1295.12011719 776.150390625 c 4,11,12
 1380 776 1380 776 1470.42382812 747.026367188 c 5,13,14
 1451 580 1451 580 1426.21972656 468.420898438 c 1,15,-1
 1364.04101562 474.380859375 l 2,16,17
 973 512 973 512 915.212890625 317.778320312 c 1,18,19
 1262.05175781 222.064453125 l 2,20,21
 1361 195 1361 195 1387.296875 112.64453125 c 0,22,23
 1423 -1 1423 -1 1359.83398438 -188.874023438 c 0,24,25
 1338 -253 1338 -253 1303.8359375 -308.1015625 c 0,26,27
 1130 -589 1130 -589 665.452148438 -593.817382812 c 24,28,29
 101 -600 101 -600 95.869140625 -115.134765625 c 0,30,31
 94 82 94 82 207.275390625 302.25390625 c 1,32,-1
 297.133789062 264.474609375 l 1,33,34
 246 123 246 123 245.509765625 -0.400390625 c 0,35,36
 244 -287 244 -287 710.647460938 -285.87109375 c 0,0,1
EndSplineSet
Substitution2: "'fina' Terminal Forms in Arabic lookup 9 subtable" uniFEF0
Substitution2: "'medi' Medial Forms in Arabic lookup 11 subtable" uniFBE9
Substitution2: "'init' Initial Forms in Arabic lookup 13 subtable" uniFBE8
EndChar

StartChar: uni064B
Encoding: 1611 1611 43
Width: -25
VWidth: 2441
GlyphClass: 4
Flags: W
AnchorPoint: "Anchor-10" 648.198 1189.49 mark 0
AnchorPoint: "Anchor-9" 648.198 1189.49 mark 0
AnchorPoint: "Anchor-1" 605.661 1741.67 basemark 0
AnchorPoint: "Anchor-1" 648.198 1189.49 mark 0
LayerCount: 2
Fore
SplineSet
319.067382812 1129.12118379 m 1,0,-1
 319.067382812 1255.71202156 l 1,1,-1
 858.926757812 1476.46665787 l 1,2,-1
 858.926757812 1349.87198489 l 1,3,-1
 319.067382812 1129.12118379 l 1,0,-1
319.067382812 1388.36924291 m 1,4,-1
 319.067382812 1514.96102845 l 1,5,-1
 858.926757812 1735.71278834 l 1,6,-1
 858.926757812 1609.12100281 l 1,7,-1
 319.067382812 1388.36924291 l 1,4,-1
EndSplineSet
EndChar

StartChar: uni064C
Encoding: 1612 1612 44
Width: -25
VWidth: 2441
GlyphClass: 4
Flags: W
AnchorPoint: "Anchor-10" 719.362 1300.44 mark 0
AnchorPoint: "Anchor-9" 719.362 1300.44 mark 0
AnchorPoint: "Anchor-1" 604.029 2036.56 basemark 0
AnchorPoint: "Anchor-1" 719.362 1300.44 mark 0
LayerCount: 2
Fore
SplineSet
694.344870701 1842.40409646 m 0,0,1
 683.692532485 1842.52293303 683.692532485 1842.52293303 674.695546276 1840.44896511 c 128,-1,2
 665.698560066 1838.37499719 665.698560066 1838.37499719 658.212936455 1834.05638364 c 128,-1,3
 650.727312843 1829.7377701 650.727312843 1829.7377701 644.686233708 1823.12176024 c 0,4,5
 633.877269154 1811.41135148 633.877269154 1811.41135148 628.610067636 1796.01804901 c 0,6,7
 625.994058135 1788.37228929 625.994058135 1788.37228929 624.76916154 1779.50830144 c 128,-1,8
 623.544264946 1770.64431358 623.544264946 1770.64431358 623.682759862 1760.64386865 c 0,9,10
 624.041768954 1713.1220141 624.041768954 1713.1220141 687.301210676 1689.49284889 c 0,11,-1
 687.634227321 1689.38161704 l 2,12,13
 716.474020379 1680.8619251 716.474020379 1680.8619251 745.80909275 1672.80828909 c 2,14,-1
 750.382392954 1671.55273581 l 1,15,-1
 751.877756281 1676.05333325 l 2,16,17
 762.795855781 1708.9135551 762.795855781 1708.9135551 763.136876265 1748.98844773 c 0,18,19
 762.72857058 1804.13313439 762.72857058 1804.13313439 737.810691537 1826.38030812 c 0,20,21
 718.855604137 1843.6127854 718.855604137 1843.6127854 694.344870701 1842.40409646 c 0,0,1
360.458518447 1549.47083166 m 2,22,23
 360.605652465 1543.43047671 360.605652465 1543.43047671 360.818402191 1537.8101466 c 128,-1,24
 361.031151917 1532.1898165 361.031151917 1532.1898165 361.310316314 1526.97371099 c 128,-1,25
 361.58948071 1521.75760549 361.58948071 1521.75760549 361.935613092 1516.94924815 c 128,-1,26
 362.281745475 1512.1408908 362.281745475 1512.1408908 362.694801718 1507.74196548 c 0,27,28
 363.543313951 1498.71637334 363.543313951 1498.71637334 364.456680702 1492.53694586 c 128,-1,29
 365.370047453 1486.35751838 365.370047453 1486.35751838 366.493096392 1482.35159124 c 0,30,31
 381.028284205 1433.98633781 381.028284205 1433.98633781 406.773739258 1409.6361968 c 128,-1,32
 432.519194312 1385.28605578 432.519194312 1385.28605578 469.112991911 1386.3576142 c 0,33,34
 527.127508094 1387.61228693 527.127508094 1387.61228693 584.251196502 1433.09912267 c 128,-1,35
 641.37488491 1478.58595841 641.37488491 1478.58595841 697.993681414 1567.62865501 c 2,36,-1
 701.766584644 1573.56218766 l 1,37,-1
 694.923226972 1575.17775698 l 2,38,39
 609.187169193 1595.41819328 609.187169193 1595.41819328 564.675648995 1643.79750052 c 0,40,41
 520.448863014 1691.86724945 520.448863014 1691.86724945 520.587839962 1766.11235216 c 0,42,43
 520.288257804 1832.66061673 520.288257804 1832.66061673 555.485042737 1883.74965264 c 0,44,45
 579.994201252 1918.5202671 579.994201252 1918.5202671 615.06162079 1936.26932057 c 0,46,47
 632.607227045 1945.1496347 632.607227045 1945.1496347 652.346135021 1949.6040785 c 128,-1,48
 672.085042998 1954.0585223 672.085042998 1954.0585223 694.092974059 1954.07519605 c 0,49,50
 755.299610831 1954.04178867 755.299610831 1954.04178867 796.403871321 1924.95131509 c 128,-1,51
 837.508131812 1895.86084152 837.508131812 1895.86084152 859.417587282 1836.99964641 c 0,52,53
 868.286908576 1813.49162104 868.286908576 1813.49162104 870.679165583 1785.41167045 c 0,54,55
 871.881982595 1771.31915574 871.881982595 1771.31915574 871.544764163 1756.47237396 c 128,-1,56
 871.207545731 1741.62559219 871.207545731 1741.62559219 869.326219782 1726.07111811 c 0,57,58
 868.38332481 1718.27590923 868.38332481 1718.27590923 867.072003581 1710.22447566 c 128,-1,59
 865.760682351 1702.17304209 865.760682351 1702.17304209 864.07974599 1693.85967079 c 128,-1,60
 862.398809629 1685.54629949 862.398809629 1685.54629949 860.346452147 1676.9697634 c 128,-1,61
 858.294094666 1668.39322731 858.294094666 1668.39322731 855.872412328 1659.5637285 c 2,62,-1
 854.222790743 1653.54917755 l 1,63,-1
 860.452141573 1653.2470802 l 2,64,65
 880.477393219 1652.2759396 880.477393219 1652.2759396 897.412128751 1651.65278515 c 128,-1,66
 914.351372605 1651.03044334 914.351372605 1651.03044334 929.931556655 1650.68967483 c 2,67,-1
 943.59375 1650.39051321 l 1,68,-1
 943.59375 1540.8373184 l 1,69,-1
 929.531101848 1540.9315248 l 2,70,71
 895.953590496 1541.16006895 895.953590496 1541.16006895 864.818804191 1543.24179823 c 128,-1,72
 833.702317691 1545.32160333 833.702317691 1545.32160333 806.801303206 1549.07507534 c 2,73,-1
 803.422818657 1549.54647195 l 1,74,-1
 801.751551939 1546.57271336 l 2,75,76
 751.410994639 1456.9995391 751.410994639 1456.9995391 698.485283241 1397.41131443 c 128,-1,77
 645.559571843 1337.82308975 645.559571843 1337.82308975 590.637390794 1308.36301976 c 128,-1,78
 535.715209745 1278.90294977 535.715209745 1278.90294977 478.331590666 1278.83002567 c 0,79,80
 456.377374239 1278.72946762 456.377374239 1278.72946762 436.790066881 1282.17558764 c 128,-1,81
 417.202759522 1285.62170766 417.202759522 1285.62170766 400.040590732 1292.56524846 c 128,-1,82
 382.878421941 1299.50878926 382.878421941 1299.50878926 367.974283365 1309.97127413 c 0,83,84
 323.130091879 1341.45056642 323.130091879 1341.45056642 300.27616619 1401.06991768 c 0,85,86
 288.758875032 1431.11571468 288.758875032 1431.11571468 282.468345472 1468.06209253 c 128,-1,87
 276.177815912 1505.00847039 276.177815912 1505.00847039 275.167617739 1548.8085721 c 2,88,-1
 274.838250933 1563.09863281 l 1,89,-1
 360.125554229 1563.09863281 l 1,90,-1
 360.458518447 1549.47083166 l 2,22,23
EndSplineSet
EndChar

StartChar: uni064D
Encoding: 1613 1613 45
Width: -24
VWidth: 2266
GlyphClass: 4
Flags: W
AnchorPoint: "Anchor-7" 544.162 87.8379 mark 0
AnchorPoint: "Anchor-6" 544.162 87.8379 mark 0
AnchorPoint: "Anchor-0" 625.786 -416.059 basemark 0
AnchorPoint: "Anchor-0" 544.162 87.8379 mark 0
LayerCount: 2
Fore
SplineSet
294.3203125 -474.968621942 m 1,0,-1
 294.3203125 -344.11611999 l 1,1,-1
 806.810546875 -134.555766355 l 1,2,-1
 806.810546875 -265.406352563 l 1,3,-1
 294.3203125 -474.968621942 l 1,0,-1
294.3203125 -237.266486388 m 1,4,-1
 294.3203125 -106.4149365 l 1,5,-1
 806.810546875 103.14733288 l 1,6,-1
 806.810546875 -27.7051748799 l 1,7,-1
 294.3203125 -237.266486388 l 1,4,-1
EndSplineSet
EndChar

StartChar: uni064E
Encoding: 1614 1614 46
Width: -24
VWidth: 2266
GlyphClass: 4
Flags: W
AnchorPoint: "Anchor-10" 550.54 1353.57 mark 0
AnchorPoint: "Anchor-9" 550.54 1353.57 mark 0
AnchorPoint: "Anchor-1" 529.602 1673.57 basemark 0
AnchorPoint: "Anchor-1" 550.54 1353.57 mark 0
LayerCount: 2
Fore
SplineSet
258.966796875 1311.04016185 m 1,0,-1
 258.966796875 1441.8926725 l 1,1,-1
 771.458007812 1651.45399165 l 1,2,-1
 771.458007812 1520.60243888 l 1,3,-1
 258.966796875 1311.04016185 l 1,0,-1
EndSplineSet
EndChar

StartChar: uni064F
Encoding: 1615 1615 47
Width: -24
VWidth: 2266
GlyphClass: 4
Flags: W
AnchorPoint: "Anchor-10" 608.475 1299.74 mark 0
AnchorPoint: "Anchor-9" 608.475 1299.74 mark 0
AnchorPoint: "Anchor-1" 538.15 1907.01 basemark 0
AnchorPoint: "Anchor-1" 608.475 1299.74 mark 0
LayerCount: 2
Fore
SplineSet
804.183827261 1446.90254367 m 2,0,1
 791.878893924 1447.11909263 791.878893924 1447.11909263 778.20117629 1447.73116891 c 128,-1,2
 764.523458656 1448.34324518 764.523458656 1448.34324518 749.480888837 1449.35110952 c 0,3,4
 719.375696384 1451.36908999 719.375696384 1451.36908999 686.930847754 1454.70810156 c 2,5,-1
 684.087120449 1455.00078169 l 1,6,-1
 682.392341516 1452.69857167 l 2,7,8
 549.7541846 1272.52115213 549.7541846 1272.52115213 312.687976652 1259.76326352 c 2,9,-1
 297.96875 1258.97005916 l 1,10,-1
 297.96875 1362.18674823 l 1,11,-1
 310.424932442 1363.54304175 l 2,12,13
 480.979319817 1382.11098493 480.979319817 1382.11098493 564.561207099 1479.16793475 c 2,14,-1
 569.574572146 1484.98955395 l 1,15,-1
 562.221502882 1487.21608749 l 2,16,17
 546.244931863 1492.05384571 546.244931863 1492.05384571 531.746999061 1497.82903188 c 128,-1,18
 517.249066259 1503.60421806 517.249066259 1503.60421806 504.148446544 1510.34600111 c 0,19,20
 480.268841406 1522.30757287 480.268841406 1522.30757287 462.166159476 1537.71106016 c 128,-1,21
 444.063477546 1553.11454745 444.063477546 1553.11454745 431.563203474 1572.03276656 c 128,-1,22
 419.098725717 1590.89681066 419.098725717 1590.89681066 412.753582831 1612.7216613 c 128,-1,23
 406.408439945 1634.54651194 406.408439945 1634.54651194 406.189558464 1659.42018446 c 0,24,25
 406.606798805 1746.5568855 406.606798805 1746.5568855 476.577733105 1803.54425865 c 0,26,27
 514.686657693 1834.7631892 514.686657693 1834.7631892 579.757411971 1834.95607449 c 0,28,29
 614.164321712 1834.85923653 614.164321712 1834.85923653 644.781969386 1821.61918518 c 128,-1,30
 675.39961706 1808.37913384 675.39961706 1808.37913384 702.465248086 1781.82698173 c 0,31,32
 708.054823138 1776.26141661 708.054823138 1776.26141661 713.020208831 1770.25194386 c 128,-1,33
 717.985594524 1764.24247112 717.985594524 1764.24247112 722.331291873 1757.78380046 c 128,-1,34
 726.676989221 1751.3251298 726.676989221 1751.3251298 730.408330895 1744.40979834 c 0,35,36
 736.014895983 1734.01957182 736.014895983 1734.01957182 740.193949816 1722.82067413 c 128,-1,37
 744.373003649 1711.62177644 744.373003649 1711.62177644 747.128126346 1699.59380122 c 0,38,39
 752.659178748 1675.44188926 752.659178748 1675.44188926 752.754813164 1647.7585949 c 0,40,41
 752.70688783 1641.81585348 752.70688783 1641.81585348 752.256845705 1635.56544302 c 128,-1,42
 751.806803579 1629.31503256 751.806803579 1629.31503256 750.950283381 1622.74637373 c 128,-1,43
 750.093763182 1616.1777149 750.093763182 1616.1777149 748.83585786 1609.35901372 c 0,44,45
 745.037453897 1588.76386523 745.037453897 1588.76386523 737.592955418 1564.83608519 c 2,46,-1
 734.106345915 1553.63050369 l 1,47,-1
 745.827864855 1552.9363401 l 2,48,49
 749.963555795 1552.69338112 749.963555795 1552.69338112 753.984977338 1552.47761565 c 128,-1,50
 758.00639888 1552.26185018 758.00639888 1552.26185018 761.915836405 1552.07316602 c 0,51,52
 769.733703251 1551.69682644 769.733703251 1551.69682644 777.071922893 1551.4310118 c 128,-1,53
 784.40902348 1551.16522457 784.40902348 1551.16522457 791.272053949 1551.00910517 c 0,54,55
 793.560158155 1550.95706561 793.560158155 1550.95706561 795.795621762 1550.91713536 c 128,-1,56
 798.031085368 1550.87720511 798.031085368 1550.87720511 800.215616045 1550.84936485 c 128,-1,57
 802.400146723 1550.8215246 802.400146723 1550.8215246 804.532772423 1550.80579775 c 2,58,-1
 818.3984375 1550.70439955 l 1,59,-1
 818.3984375 1446.65156224 l 1,60,-1
 804.183827261 1446.90254367 l 2,0,1
578.272389806 1725.95019709 m 0,61,62
 575.560228354 1725.94786925 575.560228354 1725.94786925 572.914558153 1725.74403471 c 128,-1,63
 570.268887952 1725.54020016 570.268887952 1725.54020016 567.700575864 1725.13581427 c 128,-1,64
 565.132263776 1724.73142839 565.132263776 1724.73142839 562.639117 1724.1286131 c 128,-1,65
 560.145970223 1723.52579781 560.145970223 1723.52579781 557.734837315 1722.72379734 c 128,-1,66
 555.323704408 1721.92179686 555.323704408 1721.92179686 552.996678759 1720.92455836 c 128,-1,67
 550.669653111 1719.92731987 550.669653111 1719.92731987 548.429297086 1718.73226233 c 128,-1,68
 546.188941062 1717.5372048 546.188941062 1717.5372048 544.041634245 1716.15010063 c 128,-1,69
 541.894327428 1714.76299645 541.894327428 1714.76299645 539.83834599 1713.17943939 c 128,-1,70
 537.782364553 1711.59588234 537.782364553 1711.59588234 535.828106384 1709.82335594 c 0,71,72
 529.898370615 1704.62877113 529.898370615 1704.62877113 525.505138455 1699.0122925 c 0,73,74
 524.40363365 1697.60415895 524.40363365 1697.60415895 523.402095383 1696.18572446 c 128,-1,75
 522.400557116 1694.76728997 522.400557116 1694.76728997 521.494101414 1693.33081036 c 128,-1,76
 520.587645712 1691.89433075 520.587645712 1691.89433075 519.779163177 1690.43964092 c 128,-1,77
 518.970680642 1688.98495108 518.970680642 1688.98495108 518.265060185 1687.51980302 c 0,78,79
 515.461313826 1681.70032491 515.461313826 1681.70032491 513.922872227 1675.26528028 c 0,80,81
 505.454192138 1635.6550738 505.454192138 1635.6550738 528.851582145 1615.46906911 c 0,82,83
 532.191308511 1612.53539954 532.191308511 1612.53539954 536.225063795 1609.65532227 c 128,-1,84
 540.258819078 1606.77524499 540.258819078 1606.77524499 545.007061644 1603.92203866 c 0,85,86
 554.409117568 1598.27337265 554.409117568 1598.27337265 567.479733328 1592.44248116 c 0,87,88
 573.965529004 1589.54939741 573.965529004 1589.54939741 581.168905797 1586.74462347 c 128,-1,89
 588.37228259 1583.93984952 588.37228259 1583.93984952 596.179479752 1581.2647797 c 0,90,91
 601.704003459 1579.32500984 601.704003459 1579.32500984 608.5180128 1577.08861668 c 128,-1,92
 615.332022142 1574.85222351 615.332022142 1574.85222351 623.453100375 1572.31282274 c 2,93,-1
 627.914374294 1570.91781557 l 1,94,-1
 629.606280799 1575.27516136 l 2,95,96
 638.863595831 1599.11650403 638.863595831 1599.11650403 643.639251933 1619.28751244 c 128,-1,97
 648.414908034 1639.45852086 648.414908034 1639.45852086 648.741338345 1656.48033146 c 0,98,99
 648.459586884 1668.71476717 648.459586884 1668.71476717 645.950467904 1678.15125899 c 128,-1,100
 643.390215624 1687.7861719 643.390215624 1687.7861719 638.867691502 1694.74930328 c 0,101,102
 637.354506679 1697.07853093 637.354506679 1697.07853093 635.588325331 1699.26001243 c 128,-1,103
 633.822143982 1701.44149393 633.822143982 1701.44149393 631.799852247 1703.48348967 c 128,-1,104
 629.777560513 1705.5254854 629.777560513 1705.5254854 627.46892272 1707.46312406 c 0,105,106
 616.183173278 1716.64126885 616.183173278 1716.64126885 603.849030098 1721.29023838 c 128,-1,107
 591.514886919 1725.9392079 591.514886919 1725.9392079 578.272389806 1725.95019709 c 0,61,62
EndSplineSet
EndChar

StartChar: uni0650
Encoding: 1616 1616 48
Width: -24
VWidth: 2266
GlyphClass: 4
Flags: W
AnchorPoint: "Anchor-7" 558.702 -2.68262 mark 0
AnchorPoint: "Anchor-6" 558.702 -2.68262 mark 0
AnchorPoint: "Anchor-0" 605.606 -308.668 basemark 0
AnchorPoint: "Anchor-0" 558.702 -2.68262 mark 0
LayerCount: 2
Fore
SplineSet
304.719726562 -346.448127013 m 1,0,-1
 304.719726562 -215.596582932 l 1,1,-1
 817.209960938 -6.03527142466 l 1,2,-1
 817.209960938 -136.886815505 l 1,3,-1
 304.719726562 -346.448127013 l 1,0,-1
EndSplineSet
EndChar

StartChar: uni0651
Encoding: 1617 1617 49
Width: -24
VWidth: 2266
GlyphClass: 4
Flags: W
AnchorPoint: "Anchor-10" 600.186 1382.21 mark 0
AnchorPoint: "Anchor-9" 600.186 1382.21 mark 0
AnchorPoint: "Anchor-1" 527.83 1825.42 basemark 0
AnchorPoint: "Anchor-1" 600.186 1382.21 mark 0
LayerCount: 2
Fore
SplineSet
775.833007812 1639.58007812 m 0,0,1
 775.833007812 1641.89617649 775.833007812 1641.89617649 775.827567886 1644.18315823 c 128,-1,2
 775.822127961 1646.47013997 775.822127961 1646.47013997 775.811247501 1648.7281659 c 128,-1,3
 775.800367042 1650.98619184 775.800367042 1650.98619184 775.784043977 1653.21514368 c 128,-1,4
 775.767720913 1655.44409551 775.767720913 1655.44409551 775.745956464 1657.64391055 c 128,-1,5
 775.724192014 1659.84372559 775.724192014 1659.84372559 775.696982159 1662.01452396 c 128,-1,6
 775.669772304 1664.18532233 775.669772304 1664.18532233 775.637120089 1666.32681781 c 0,7,8
 775.44216607 1679.17810841 775.44216607 1679.17810841 775.056805167 1690.76294394 c 0,9,10
 774.864069421 1696.55580563 774.864069421 1696.55580563 774.625385265 1702.06565741 c 128,-1,11
 774.386701109 1707.57550919 774.386701109 1707.57550919 774.101975312 1712.80317301 c 128,-1,12
 773.817046318 1718.03456759 773.817046318 1718.03456759 773.487204279 1722.95540916 c 128,-1,13
 773.15736224 1727.87625073 773.15736224 1727.87625073 772.782379451 1732.48824376 c 0,14,15
 772.031413137 1741.7235526 772.031413137 1741.7235526 771.107693801 1749.7330677 c 128,-1,16
 770.180592643 1757.77091588 770.180592643 1757.77091588 769.079503264 1764.57900413 c 2,17,-1
 767.923828969 1771.7295141 l 1,18,-1
 773.101831761 1776.79388851 l 2,19,20
 794.697582081 1797.91889178 794.697582081 1797.91889178 820.441995286 1798.23964362 c 0,21,22
 824.739968028 1798.29303929 824.739968028 1798.29303929 828.949439828 1797.79593513 c 128,-1,23
 833.158911628 1797.29883097 833.158911628 1797.29883097 837.327482029 1796.24072371 c 128,-1,24
 841.496052429 1795.18261645 841.496052429 1795.18261645 845.602423411 1793.55117437 c 128,-1,25
 849.708794394 1791.91973229 849.708794394 1791.91973229 853.775395961 1789.71088406 c 128,-1,26
 857.841997529 1787.50203583 857.841997529 1787.50203583 861.874379171 1784.69658899 c 128,-1,27
 865.906760814 1781.89114215 865.906760814 1781.89114215 869.902182996 1778.49145731 c 2,28,-1
 874.028354358 1775.03260679 l 1,29,-1
 874.764749963 1769.69805348 l 2,30,31
 885.833823147 1689.51849024 885.833823147 1689.51849024 885.417002367 1627.1090515 c 0,32,33
 885.487437037 1592.2028833 885.487437037 1592.2028833 880.691178505 1562.65988519 c 128,-1,34
 875.894919973 1533.11688708 875.894919973 1533.11688708 866.289500767 1508.96495793 c 0,35,36
 847.248604912 1461.08840431 847.248604912 1461.08840431 808.467199497 1435.63111228 c 128,-1,37
 769.613560692 1410.12735025 769.613560692 1410.12735025 712.296347463 1410.06835255 c 0,38,39
 692.01608598 1410.10186178 692.01608598 1410.10186178 673.961407597 1413.08219648 c 128,-1,40
 655.906729214 1416.06253119 655.906729214 1416.06253119 640.059775905 1421.96479028 c 0,41,42
 608.57072262 1433.69430462 608.57072262 1433.69430462 586.678615896 1457.27041956 c 2,43,-1
 581.142504788 1463.23238537 l 1,44,-1
 578.32421398 1455.60016423 l 2,45,46
 535.058306554 1338.43164062 535.058306554 1338.43164062 419.404296875 1338.43164062 c 0,47,48
 416.295717161 1338.43164062 416.295717161 1338.43164062 413.242151913 1338.49589592 c 0,49,50
 411.715793838 1338.5289838 411.715793838 1338.5289838 410.197933728 1338.57818562 c 128,-1,51
 408.680073618 1338.62738744 408.680073618 1338.62738744 407.176022645 1338.69251031 c 0,52,53
 404.166836458 1338.82384466 404.166836458 1338.82384466 401.20217731 1339.02021142 c 128,-1,54
 398.238825342 1339.21744907 398.238825342 1339.21744907 395.326736801 1339.48070493 c 0,55,56
 382.850218689 1340.60762065 382.850218689 1340.60762065 371.415290362 1342.90562339 c 128,-1,57
 359.980362035 1345.20362613 359.980362035 1345.20362613 349.583203306 1348.66875079 c 128,-1,58
 339.186044577 1352.13387545 339.186044577 1352.13387545 329.802815758 1356.7771363 c 128,-1,59
 320.419586938 1361.42039715 320.419586938 1361.42039715 312.052781984 1367.22586284 c 128,-1,60
 303.685977029 1373.03132853 303.685977029 1373.03132853 296.305021166 1380.02277734 c 128,-1,61
 288.924065303 1387.01422614 288.924065303 1387.01422614 282.538187573 1395.16296271 c 128,-1,62
 276.152309842 1403.31169928 276.152309842 1403.31169928 270.724621328 1412.65346813 c 0,63,64
 251.582585337 1445.59944044 251.582585337 1445.59944044 244.560969036 1491.2403522 c 128,-1,65
 237.539352735 1536.88126395 237.539352735 1536.88126395 242.845585201 1595.18415705 c 0,66,67
 245.983248633 1628.82877108 245.983248633 1628.82877108 254.283766955 1680.12903091 c 2,68,-1
 254.957431789 1684.30258946 l 1,69,-1
 257.834520269 1687.40115848 l 2,70,71
 260.181746751 1689.92988124 260.181746751 1689.92988124 262.544342956 1692.20688535 c 128,-1,72
 264.89991163 1694.47762746 264.89991163 1694.47762746 267.293382168 1696.51310027 c 0,73,74
 281.284138014 1708.40192868 281.284138014 1708.40192868 296.575074546 1710.91799989 c 0,75,76
 304.199317872 1712.17566636 304.199317872 1712.17566636 311.500653974 1711.21711226 c 128,-1,77
 318.801990077 1710.25855817 318.801990077 1710.25855817 325.95047182 1707.05684886 c 0,78,79
 340.466523169 1700.55580637 340.466523169 1700.55580637 352.669239023 1685.9270941 c 2,80,-1
 356.67342955 1681.12681182 l 1,81,-1
 355.761520476 1674.94050109 l 2,82,83
 349.538168541 1632.74578109 349.538168541 1632.74578109 346.566583423 1605.50622535 c 128,-1,84
 343.594998305 1578.26666961 343.594998305 1578.26666961 343.840582867 1565.27585016 c 0,85,86
 343.790290909 1555.26641814 343.790290909 1555.26641814 344.675064547 1546.5379717 c 128,-1,87
 345.559838186 1537.80952526 345.559838186 1537.80952526 347.447231972 1530.16479479 c 128,-1,88
 349.334625758 1522.52006431 349.334625758 1522.52006431 352.220428261 1516.20019522 c 0,89,90
 361.05572034 1496.85443114 361.05572034 1496.85443114 379.966723974 1487.91415867 c 0,91,92
 398.242813331 1479.27507926 398.242813331 1479.27507926 427.966361612 1479.30957427 c 0,93,94
 466.20650426 1479.26143266 466.20650426 1479.26143266 486.467674822 1507.25922342 c 0,95,96
 496.486160589 1521.10393531 496.486160589 1521.10393531 501.904614474 1543.36183588 c 128,-1,97
 507.32306836 1565.61973646 507.32306836 1565.61973646 508.5237757 1596.65098462 c 0,98,99
 509.400492146 1619.84527734 509.400492146 1619.84527734 509.717560194 1654.07003311 c 128,-1,100
 510.033436827 1688.27076876 510.033436827 1688.27076876 509.781174838 1733.20710313 c 2,101,-1
 509.746653785 1739.50288003 l 1,102,-1
 514.457756615 1743.71507527 l 2,103,104
 536.762219929 1764.06289395 536.762219929 1764.06289395 561.813800465 1764.00489579 c 128,-1,105
 586.69270146 1763.94819739 586.69270146 1763.94819739 607.09166371 1742.80228734 c 2,106,-1
 610.808136069 1738.94917996 l 1,107,-1
 610.997305147 1733.5985043 l 2,108,109
 611.184496025 1728.33961056 611.184496025 1728.33961056 611.357079352 1722.97686948 c 0,110,111
 611.414629815 1721.18857824 611.414629815 1721.18857824 611.470510779 1719.38763194 c 128,-1,112
 611.526391743 1717.58668564 611.526391743 1717.58668564 611.580673963 1715.77075639 c 128,-1,113
 611.634956183 1713.95482715 611.634956183 1713.95482715 611.687666869 1712.12296813 c 0,114,115
 611.847576786 1706.63337769 611.847576786 1706.63337769 611.9919307 1701.01820551 c 128,-1,116
 612.138204004 1695.4042361 612.138204004 1695.4042361 612.269863953 1689.65218595 c 128,-1,117
 612.401545455 1683.89916741 612.401545455 1683.89916741 612.520532604 1678.00247639 c 128,-1,118
 612.638575676 1672.10520057 612.638575676 1672.10520057 612.744899282 1666.05938677 c 2,119,-1
 612.942168167 1653.85402296 l 2,120,121
 612.745744061 1619.70946935 612.745744061 1619.70946935 622.333502701 1598.52232636 c 0,122,123
 627.236606068 1587.68907222 627.236606068 1587.68907222 634.978856923 1579.63529001 c 128,-1,124
 642.721107778 1571.5815078 642.721107778 1571.5815078 653.118174797 1566.52834361 c 0,125,126
 673.430138595 1556.65685886 673.430138595 1556.65685886 706.134061493 1556.63964947 c 0,127,128
 714.083598312 1556.64474054 714.083598312 1556.64474054 721.009446222 1557.50212459 c 128,-1,129
 727.935294133 1558.35950864 727.935294133 1558.35950864 734.051941299 1560.14782991 c 128,-1,130
 740.168588466 1561.93615118 740.168588466 1561.93615118 745.27493333 1564.65607237 c 0,131,132
 760.792714455 1572.91952214 760.792714455 1572.91952214 768.468748847 1591.7478344 c 0,133,134
 775.833007812 1609.80785178 775.833007812 1609.80785178 775.833007812 1639.58007812 c 0,0,1
EndSplineSet
EndChar

StartChar: uni0652
Encoding: 1618 1618 50
Width: -31
VWidth: 2834
GlyphClass: 4
Flags: W
AnchorPoint: "Anchor-10" 724.395 1552.09 mark 0
AnchorPoint: "Anchor-9" 724.395 1552.09 mark 0
AnchorPoint: "Anchor-1" 715.315 2133.97 basemark 0
AnchorPoint: "Anchor-1" 724.395 1552.09 mark 0
LayerCount: 2
Fore
SplineSet
811.988373466 1722.56867291 m 0,0,1
 829.568616 1740.14789771 829.568616 1740.14789771 838.214139956 1761.23406811 c 0,2,3
 842.552554725 1771.81540552 842.552554725 1771.81540552 844.715730488 1783.47022872 c 128,-1,4
 846.87890625 1795.12505192 846.87890625 1795.12505192 846.87890625 1807.80175781 c 0,5,6
 846.87890625 1816.24619694 846.87890625 1816.24619694 845.921749055 1824.22811514 c 128,-1,7
 844.96459186 1832.21003334 844.96459186 1832.21003334 843.036475749 1839.76155268 c 128,-1,8
 841.108359637 1847.31307201 841.108359637 1847.31307201 838.2141864 1854.37226393 c 0,9,10
 833.893176137 1864.91188721 833.893176137 1864.91188721 827.364415107 1874.55736778 c 128,-1,11
 820.857453415 1884.17166084 820.857453415 1884.17166084 811.992718147 1893.03538091 c 0,12,13
 800.246543071 1904.78257262 800.246543071 1904.78257262 786.893508136 1912.51719547 c 128,-1,14
 773.633358104 1920.19670846 773.633358104 1920.19670846 758.549774828 1924.03787576 c 2,15,-1
 752.406660429 1925.42842633 l 2,16,17
 749.299271093 1926.04624007 749.299271093 1926.04624007 746.077540933 1926.51637252 c 128,-1,18
 742.864145141 1926.98340634 742.864145141 1926.98340634 739.565482525 1927.29703304 c 128,-1,19
 736.267727601 1927.60955874 736.267727601 1927.60955874 732.861157712 1927.76710927 c 128,-1,20
 729.452644456 1927.92493891 729.452644456 1927.92493891 725.961914062 1927.92480469 c 0,21,22
 717.309900892 1927.92480469 717.309900892 1927.92480469 709.163438731 1926.9635337 c 128,-1,23
 701.01697657 1926.0022627 701.01697657 1926.0022627 693.387072691 1924.0731427 c 0,24,25
 678.345482221 1920.27134339 678.345482221 1920.27134339 665.181878462 1912.67750762 c 128,-1,26
 651.937171652 1905.03562407 651.937171652 1905.03562407 640.336536407 1893.43397141 c 0,27,28
 638.408958702 1891.5063937 638.408958702 1891.5063937 636.589707084 1889.53207115 c 128,-1,29
 634.770455465 1887.55774861 634.770455465 1887.55774861 633.057565669 1885.53444043 c 128,-1,30
 631.344675873 1883.51113225 631.344675873 1883.51113225 629.740158223 1881.4399568 c 128,-1,31
 628.135640573 1879.36878134 628.135640573 1879.36878134 626.639919382 1877.2506661 c 128,-1,32
 625.144198191 1875.13255086 625.144198191 1875.13255086 623.756735969 1872.96523469 c 128,-1,33
 622.369273746 1870.79791851 622.369273746 1870.79791851 621.092883381 1868.58549718 c 0,34,35
 613.498264071 1855.42128573 613.498264071 1855.42128573 609.695393299 1840.37847836 c 128,-1,36
 605.844726562 1825.14256857 605.844726562 1825.14256857 605.844726562 1807.80175781 c 0,37,38
 605.844726562 1801.29122868 605.844726562 1801.29122868 606.386909281 1795.07210621 c 128,-1,39
 606.929092 1788.85298374 606.929092 1788.85298374 608.016787777 1782.92707483 c 128,-1,40
 609.088564666 1777.0901463 609.088564666 1777.0901463 610.696521587 1771.51827156 c 128,-1,41
 612.304478508 1765.94639683 612.304478508 1765.94639683 614.450783863 1760.64023882 c 2,42,-1
 615.93345194 1757.15067307 l 2,43,44
 616.704858288 1755.41628934 616.704858288 1755.41628934 617.536137135 1753.71283231 c 128,-1,45
 618.367220141 1752.00660148 618.367220141 1752.00660148 619.258633712 1750.33123522 c 128,-1,46
 620.149046235 1748.65582682 620.149046235 1748.65582682 621.099549917 1747.00828711 c 128,-1,47
 622.050365486 1745.35843275 622.050365486 1745.35843275 623.061993036 1743.73617087 c 128,-1,48
 624.07351587 1742.11405234 624.07351587 1742.11405234 625.145809267 1740.51990949 c 0,49,50
 627.306195233 1737.30484691 627.306195233 1737.30484691 629.71843134 1734.19015934 c 128,-1,51
 632.130667447 1731.07547177 632.130667447 1731.07547177 634.783541582 1728.07320677 c 128,-1,52
 637.436415718 1725.07094178 637.436415718 1725.07094178 640.336279117 1722.17175465 c 0,53,54
 647.316982172 1715.19003548 647.316982172 1715.19003548 654.882192159 1709.65029361 c 128,-1,55
 662.385674006 1704.15652702 662.385674006 1704.15652702 670.523911499 1700.04343439 c 0,56,57
 671.877433787 1699.35934124 671.877433787 1699.35934124 673.250566448 1698.71291602 c 128,-1,58
 674.623699109 1698.06649081 674.623699109 1698.06649081 676.013863555 1697.45890259 c 128,-1,59
 677.404028001 1696.85131438 677.404028001 1696.85131438 678.810019636 1696.28305801 c 0,60,61
 683.033643868 1694.5739588 683.033643868 1694.5739588 687.435148292 1693.2069875 c 128,-1,62
 691.851922653 1691.83344726 691.851922653 1691.83344726 696.454507942 1690.80112982 c 128,-1,63
 701.049821932 1689.7694248 701.049821932 1689.7694248 705.848639177 1689.07661272 c 128,-1,64
 710.689819757 1688.3782728 710.689819757 1688.3782728 715.719900855 1688.02995671 c 128,-1,65
 720.749981953 1687.68164062 720.749981953 1687.68164062 725.967773438 1687.68164062 c 0,66,67
 728.879721755 1687.68164062 728.879721755 1687.68164062 731.730276171 1687.79174354 c 128,-1,68
 734.582850098 1687.90091363 734.582850098 1687.90091363 737.356829625 1688.11777483 c 128,-1,69
 740.129636162 1688.334733 740.129636162 1688.334733 742.84748313 1688.65961572 c 0,70,71
 744.875699613 1688.90292043 744.875699613 1688.90292043 746.869291374 1689.20579819 c 128,-1,72
 748.862883135 1689.50867595 748.862883135 1689.50867595 750.824874229 1689.8717436 c 0,73,74
 754.751212166 1690.59914507 754.751212166 1690.59914507 758.546940041 1691.56566401 c 0,75,76
 766.106856915 1693.49011793 766.106856915 1693.49011793 773.1898496 1696.3705554 c 0,77,78
 776.72633244 1697.80929813 776.72633244 1697.80929813 780.148732592 1699.48828858 c 128,-1,79
 783.576187431 1701.16720911 783.576187431 1701.16720911 786.900172562 1703.0941884 c 0,80,-1
 799.672077876 1711.69319648 l 2,81,82
 801.371537891 1713.01082977 801.371537891 1713.01082977 802.91380812 1714.28961188 c 128,-1,83
 804.457941515 1715.56909486 804.457941515 1715.56909486 805.976738102 1716.91350359 c 128,-1,84
 807.50162035 1718.25946631 807.50162035 1718.25946631 809.009334391 1719.67873051 c 0,85,86
 809.759179761 1720.38503321 809.759179761 1720.38503321 810.504082575 1721.1076651 c 128,-1,87
 811.248985389 1721.830297 811.248985389 1721.830297 811.988373466 1722.56867291 c 0,0,1
957.256835938 1808.328125 m 0,88,89
 957.256835938 1792.3712952 957.256835938 1792.3712952 955.399850502 1777.10264187 c 0,90,91
 954.93608306 1773.28917715 954.93608306 1773.28917715 954.355615428 1769.52228944 c 128,-1,92
 953.775147795 1765.75540172 953.775147795 1765.75540172 953.078180644 1762.03615243 c 128,-1,93
 952.381213493 1758.31690314 952.381213493 1758.31690314 951.567940228 1754.64521655 c 128,-1,94
 950.754666963 1750.97352996 950.754666963 1750.97352996 949.824835963 1747.34807279 c 0,95,96
 949.078901089 1744.44074148 949.078901089 1744.44074148 948.257701193 1741.56331484 c 128,-1,97
 947.436501297 1738.68588821 947.436501297 1738.68588821 946.54049802 1735.83987247 c 0,98,99
 944.747359862 1730.14632464 944.747359862 1730.14632464 942.655347893 1724.57972044 c 0,100,101
 941.958246079 1722.72417604 941.958246079 1722.72417604 941.227855509 1720.88256353 c 128,-1,102
 940.49746494 1719.04095101 940.49746494 1719.04095101 939.734147958 1717.21415492 c 128,-1,103
 938.970830976 1715.38735883 938.970830976 1715.38735883 938.174714659 1713.57566145 c 0,104,105
 936.979525499 1710.8568925 936.979525499 1710.8568925 935.710072263 1708.17147544 c 128,-1,106
 934.440619026 1705.48605837 934.440619026 1705.48605837 933.096280605 1702.83270861 c 128,-1,107
 931.75243016 1700.17984475 931.75243016 1700.17984475 930.334415688 1697.55989093 c 128,-1,108
 928.916401215 1694.93993711 928.916401215 1694.93993711 927.426473927 1692.35701482 c 0,109,110
 924.944817923 1688.05772723 924.944817923 1688.05772723 922.260995789 1683.85564585 c 128,-1,111
 919.577173654 1679.65356447 919.577173654 1679.65356447 916.689567008 1675.54650093 c 128,-1,112
 913.801960362 1671.43943738 913.801960362 1671.43943738 910.711798654 1667.42945952 c 0,113,114
 901.430956717 1655.38924149 901.430956717 1655.38924149 890.373257316 1644.26069622 c 0,115,116
 884.848611007 1638.70109895 884.848611007 1638.70109895 879.097999708 1633.59255196 c 128,-1,117
 873.347388409 1628.48400497 873.347388409 1628.48400497 867.370899409 1623.82569039 c 0,118,119
 855.427302913 1614.51807363 855.427302913 1614.51807363 842.527400582 1606.99265304 c 0,120,121
 838.229702075 1604.48550314 838.229702075 1604.48550314 833.841147194 1602.18819283 c 128,-1,122
 829.452592313 1599.89088252 829.452592313 1599.89088252 824.973466024 1597.8034778 c 128,-1,123
 820.494339734 1595.71607308 820.494339734 1595.71607308 815.923070208 1593.8377524 c 0,124,125
 813.640021013 1592.89973818 813.640021013 1592.89973818 811.335480646 1592.01404781 c 128,-1,126
 809.03094028 1591.12835745 809.03094028 1591.12835745 806.704150871 1590.29472309 c 128,-1,127
 804.377361462 1589.46108873 804.377361462 1589.46108873 802.028872583 1588.67974421 c 128,-1,128
 799.680383703 1587.89839968 799.680383703 1587.89839968 797.309524382 1587.16912705 c 128,-1,129
 794.938665061 1586.43985442 794.938665061 1586.43985442 792.545892177 1585.76283427 c 128,-1,130
 790.153119294 1585.08581412 790.153119294 1585.08581412 787.737854569 1584.46088175 c 128,-1,131
 785.322589845 1583.83594938 785.322589845 1583.83594938 782.885197466 1583.26323214 c 128,-1,132
 780.447805088 1582.69051491 780.447805088 1582.69051491 777.987799468 1582.16990134 c 128,-1,133
 775.527793849 1581.64928777 775.527793849 1581.64928777 773.045452277 1581.18085531 c 0,134,135
 750.67882673 1576.95996094 750.67882673 1576.95996094 726.735351562 1576.95996094 c 0,136,137
 721.425050609 1576.95996094 721.425050609 1576.95996094 716.191959159 1577.16702226 c 128,-1,138
 710.963231781 1577.37302857 710.963231781 1577.37302857 705.804881915 1577.7867401 c 128,-1,139
 700.647743682 1578.20023003 700.647743682 1578.20023003 695.565583 1578.82317986 c 128,-1,140
 690.485650711 1579.44609113 690.485650711 1579.44609113 685.486079523 1580.27620334 c 128,-1,141
 680.490118708 1581.10583678 680.490118708 1581.10583678 675.561960128 1582.14882825 c 128,-1,142
 670.638523046 1583.1891121 670.638523046 1583.1891121 665.804258151 1584.4394683 c 0,143,144
 651.256891274 1588.20046691 651.256891274 1588.20046691 637.549063647 1593.83368298 c 128,-1,145
 623.84123602 1599.46689905 623.84123602 1599.46689905 610.950563476 1606.98084883 c 0,146,147
 585.264260073 1621.95329887 585.264260073 1621.95329887 563.099692548 1644.26040072 c 0,148,149
 552.042810357 1655.38908707 552.042810357 1655.38908707 542.762068701 1667.43013179 c 0,150,151
 538.126316503 1673.44513974 538.126316503 1673.44513974 533.947620294 1679.67687657 c 128,-1,152
 529.768924085 1685.9086134 529.768924085 1685.9086134 526.046460507 1692.35750938 c 0,153,154
 518.591427128 1705.27613042 518.591427128 1705.27613042 512.984068843 1719.04251003 c 0,155,156
 511.582050829 1722.48430434 511.582050829 1722.48430434 510.297777585 1725.97354275 c 128,-1,157
 509.013504341 1729.46278116 509.013504341 1729.46278116 507.84650744 1733.00084446 c 128,-1,158
 506.679510539 1736.53890776 506.679510539 1736.53890776 505.629875527 1740.1258308 c 128,-1,159
 504.580240515 1743.71275383 504.580240515 1743.71275383 503.647851976 1747.34892584 c 0,160,161
 496.213867188 1776.32645126 496.213867188 1776.32645126 496.213867188 1808.328125 c 0,162,163
 496.213867188 1817.89278049 496.213867188 1817.89278049 496.879811656 1827.20737931 c 0,164,165
 497.101948204 1830.30995026 497.101948204 1830.30995026 497.398558787 1833.38426958 c 128,-1,166
 497.69516937 1836.4585889 497.69516937 1836.4585889 498.065968988 1839.50247446 c 128,-1,167
 498.436768606 1842.54636002 498.436768606 1842.54636002 498.881855265 1845.56121636 c 2,168,-1
 500.389244168 1854.55853472 l 2,169,170
 501.224545788 1859.02080391 501.224545788 1859.02080391 502.230534035 1863.41818782 c 128,-1,171
 503.236603383 1867.81603892 503.236603383 1867.81603892 504.412374218 1872.14845282 c 128,-1,172
 505.588035171 1876.48053899 505.588035171 1876.48053899 506.930442346 1880.73786018 c 0,173,174
 509.619075359 1889.2601394 509.619075359 1889.2601394 512.979636333 1897.49189085 c 128,-1,175
 516.340365092 1905.72333783 516.340365092 1905.72333783 520.366183489 1913.65088114 c 128,-1,176
 524.391208185 1921.5758942 524.391208185 1921.5758942 529.085170589 1929.19487202 c 128,-1,177
 533.780391678 1936.81648803 533.780391678 1936.81648803 539.133200089 1944.11820402 c 128,-1,178
 544.469345848 1951.39780809 544.469345848 1951.39780809 550.459367185 1958.36097912 c 128,-1,179
 556.449388523 1965.32415016 556.449388523 1965.32415016 563.095053487 1971.9712513 c 0,180,181
 596.412641532 2005.28788323 596.412641532 2005.28788323 637.55756864 2022.0836993 c 0,182,183
 658.090170824 2030.46494781 658.090170824 2030.46494781 680.370325592 2034.65776688 c 128,-1,184
 702.65048036 2038.85058594 702.65048036 2038.85058594 726.735351562 2038.85058594 c 0,185,186
 774.837176314 2038.85058594 774.837176314 2038.85058594 815.913021973 2022.08374523 c 128,-1,187
 857.057035562 2005.28791227 857.057035562 2005.28791227 890.375345294 1971.96960253 c 128,-1,188
 923.694055155 1938.6461121 923.694055155 1938.6461121 940.48899504 1897.50194705 c 128,-1,189
 957.256835938 1856.4250363 957.256835938 1856.4250363 957.256835938 1808.328125 c 0,88,89
EndSplineSet
EndChar

StartChar: uni0653
Encoding: 1619 1619 51
Width: -3
VWidth: 2801
GlyphClass: 4
Flags: W
AnchorPoint: "Anchor-10" 493.848 1605.79 mark 0
AnchorPoint: "Anchor-9" 493.848 1605.79 mark 0
AnchorPoint: "Anchor-1" 463.075 2078.87 basemark 0
AnchorPoint: "Anchor-1" 493.848 1605.79 mark 0
LayerCount: 2
Fore
SplineSet
842.819335938 1828.23144531 m 0,0,1
 802.147460938 1766.49707031 802.147460938 1766.49707031 749.98828125 1729.12695312 c 0,2,3
 721.755859375 1709.10644531 721.755859375 1709.10644531 680.47265625 1699.76855469 c 128,-1,4
 639.189453125 1690.42871094 639.189453125 1690.42871094 584.260742188 1690.57617188 c 0,5,6
 542.796875 1690.43554688 542.796875 1690.43554688 503.163085938 1691.31152344 c 128,-1,7
 463.530273438 1692.18847656 463.530273438 1692.18847656 425.975585938 1694.08007812 c 0,8,9
 377.43359375 1696.48242188 377.43359375 1696.48242188 367.764648438 1697.52148438 c 0,10,11
 284.63671875 1695.91601562 284.63671875 1695.91601562 192.684570312 1614.03710938 c 2,12,-1
 182.069335938 1604.58398438 l 1,13,-1
 170.016601562 1612.1171875 l 2,14,15
 141.67578125 1629.83007812 141.67578125 1629.83007812 126.0390625 1651.6484375 c 2,16,-1
 120.26171875 1659.70898438 l 1,17,-1
 123.5859375 1669.05371094 l 2,18,19
 164.868164062 1785.13574219 164.868164062 1785.13574219 215.88671875 1834.55957031 c 0,20,21
 272.686523438 1889.51074219 272.686523438 1889.51074219 334.119140625 1889.1328125 c 0,22,23
 340.373046875 1889.17089844 340.373046875 1889.17089844 346.986328125 1889.06640625 c 128,-1,24
 353.599609375 1888.9609375 353.599609375 1888.9609375 360.552734375 1888.71484375 c 128,-1,25
 367.5078125 1888.46777344 367.5078125 1888.46777344 374.8203125 1888.08007812 c 128,-1,26
 382.133789062 1887.69238281 382.133789062 1887.69238281 389.787109375 1887.16308594 c 128,-1,27
 397.438476562 1886.63476562 397.438476562 1886.63476562 405.450195312 1885.96484375 c 128,-1,28
 413.463867188 1885.29492188 413.463867188 1885.29492188 421.813476562 1884.48535156 c 128,-1,29
 430.162109375 1883.67773438 430.162109375 1883.67773438 438.873046875 1882.72753906 c 128,-1,30
 447.583007812 1881.77832031 447.583007812 1881.77832031 456.627929688 1880.69140625 c 128,-1,31
 465.672851562 1879.60449219 465.672851562 1879.60449219 475.080078125 1878.37792969 c 0,32,33
 499.803710938 1875.04785156 499.803710938 1875.04785156 526.180664062 1872.78027344 c 128,-1,34
 552.557617188 1870.51464844 552.557617188 1870.51464844 580.723632812 1869.30566406 c 128,-1,35
 608.889648438 1868.09765625 608.889648438 1868.09765625 638.806640625 1867.95507812 c 0,36,37
 678.689453125 1867.65234375 678.689453125 1867.65234375 717.323242188 1872.30957031 c 128,-1,38
 755.95703125 1876.96582031 755.95703125 1876.96582031 793.427734375 1886.578125 c 0,39,40
 826.55859375 1895.17773438 826.55859375 1895.17773438 841.899414062 1886.06640625 c 0,41,42
 869.549804688 1869.64257812 869.549804688 1869.64257812 842.819335938 1828.23144531 c 0,0,1
EndSplineSet
EndChar

StartChar: uni0657
Encoding: 1623 1623 54
Width: -33
VWidth: 3061
GlyphClass: 4
Flags: W
AnchorPoint: "Anchor-10" 757.076 1805.3 mark 0
AnchorPoint: "Anchor-9" 757.076 1805.3 mark 0
AnchorPoint: "Anchor-1" 757.076 2781.63 basemark 0
AnchorPoint: "Anchor-1" 757.076 1805.3 mark 0
LayerCount: 2
Fore
SplineSet
333.779296875 2420.88199345 m 1,0,-1
 513.555618634 2409.47193892 l 1,1,2
 625 2563 625 2563 796 2637 c 0,3,4
 980 2716 980 2716 1051.79296875 2723.15094231 c 1,5,-1
 1051.79296875 2588.31481414 l 1,6,7
 921 2581 921 2581 749.148856084 2448.20907234 c 0,8,9
 714 2421 714 2421 665.78250494 2370.02409747 c 1,10,11
 720 2359 720 2359 746.344726562 2344.45117188 c 0,12,13
 818 2307 818 2307 840.048828125 2203.04199219 c 0,14,15
 844 2185 844 2185 844.475585938 2166.46191406 c 0,16,17
 844 1917 844 1917 632.71875 1919.22460938 c 0,18,19
 547 1920 547 1920 489.285833899 1974.54529244 c 0,20,21
 423 2039 423 2039 422.399414062 2142.28320312 c 0,22,23
 422 2197 422 2197 448.543467003 2282.05535316 c 1,24,-1
 333.779296875 2286.19300255 l 1,25,-1
 333.779296875 2420.88199345 l 1,0,-1
658.299804688 2043.85644531 m 0,26,27
 737 2044 737 2044 736.838867188 2134.25390625 c 0,28,29
 737 2204 737 2204 669.630610252 2231.06670959 c 0,30,31
 642 2242 642 2242 586.214198952 2259.55558602 c 1,32,33
 556.99974499 2191.40656867 556.99974499 2191.40656867 557.030273438 2142.734375 c 4,34,35
 557 2044 557 2044 658.299804688 2043.85644531 c 0,26,27
EndSplineSet
EndChar

StartChar: uni065A
Encoding: 1626 1626 55
Width: 1498
VWidth: 3061
GlyphClass: 4
Flags: W
AnchorPoint: "Anchor-10" 757.076 1805.3 mark 0
AnchorPoint: "Anchor-9" 757.076 1805.3 mark 0
AnchorPoint: "Anchor-1" 754.073 2481.22 basemark 0
AnchorPoint: "Anchor-1" 757.076 1805.3 mark 0
LayerCount: 2
Fore
SplineSet
654.600077361 1913.73046875 m 1,0,-1
 380.003531615 2372.80078125 l 1,1,-1
 553.629689918 2372.80078125 l 1,2,-1
 757.076151639 2067.61970851 l 1,3,-1
 960.524592516 2372.80078125 l 1,4,-1
 1134.1516473 2372.80078125 l 1,5,-1
 859.549367098 1913.73046875 l 1,6,-1
 654.600077361 1913.73046875 l 1,0,-1
EndSplineSet
EndChar

StartChar: afii57392
Encoding: 1632 1632 56
Width: 993
VWidth: 3373
GlyphClass: 2
Flags: W
LayerCount: 2
Fore
SplineSet
507.591796875 900.403320312 m 1,0,-1
 769.2890625 638.706054688 l 1,1,-1
 502.19140625 371.607421875 l 1,2,-1
 240.494140625 633.305664062 l 1,3,-1
 507.591796875 900.403320312 l 1,0,-1
EndSplineSet
EndChar

StartChar: afii57393
Encoding: 1633 1633 57
Width: 762
VWidth: 3363
GlyphClass: 2
Flags: W
LayerCount: 2
Fore
SplineSet
327.227539062 1439.6796875 m 4,0,1
 547 945 547 945 545.762695312 323.516601562 c 0,2,3
 545 31 545 31 406.009765625 -6.091796875 c 1,4,-1
 405.930664062 18.24609375 l 2,5,6
 404 566 404 566 112.21875 1276.15136719 c 1,7,-1
 251.888671875 1451.16308594 l 6,8,9
 283 1491 283 1491 308.692382812 1469.02929688 c 4,10,11
 318 1461 318 1461 327.227539062 1439.6796875 c 4,0,1
EndSplineSet
EndChar

StartChar: afii57394
Encoding: 1634 1634 58
Width: 1089
VWidth: 3363
GlyphClass: 2
Flags: W
LayerCount: 2
Fore
SplineSet
405.520507812 18.478515625 m 2,0,1
 405.16015625 573.614257812 405.16015625 573.614257812 112.21875 1278.25 c 1,2,-1
 259.110351562 1458.22265625 l 2,3,4
 288 1494 288 1494 308.751953125 1470.578125 c 0,5,6
 326 1451 326 1451 332.462890625 1430.53320312 c 1,7,8
 427 1219 427 1219 612.049804688 1218.65039062 c 0,9,10
 862.705078125 1218.00097656 862.705078125 1218.00097656 881.125976562 1397.0234375 c 2,11,-1
 888.423828125 1467.94824219 l 1,12,-1
 990.31640625 1453.3046875 l 1,13,-1
 987.283203125 1380.1875 l 2,14,15
 967 880 967 880 589.015625 881.791992188 c 0,16,17
 548 882 548 882 497.072265625 886.883789062 c 1,18,19
 543 640 543 640 545.297851562 327.731445312 c 0,20,21
 547 28 547 28 405.536132812 -5.6103515625 c 1,22,-1
 405.520507812 18.478515625 l 2,0,1
EndSplineSet
EndChar

StartChar: afii57395
Encoding: 1635 1635 59
Width: 1276
VWidth: 3363
GlyphClass: 2
Flags: W
LayerCount: 2
Fore
SplineSet
405.520507812 18.478515625 m 2,0,1
 405.157226562 578.625 405.157226562 578.625 112.21875 1278.25 c 1,2,-1
 261.364257812 1462.42675781 l 2,3,4
 284 1490 284 1490 299.87109375 1480.27148438 c 0,5,6
 318 1470 318 1470 323.822265625 1450.44921875 c 0,7,8
 402 1218 402 1218 537.071289062 1218.66210938 c 4,9,10
 699.620117188 1218.99902344 699.620117188 1218.99902344 707.255859375 1340 c 2,11,-1
 712.51171875 1423.30175781 l 1,12,-1
 825.759765625 1419.7890625 l 1,13,-1
 831.5546875 1338.72753906 l 2,14,15
 840 1216 840 1216 978.182617188 1216.2265625 c 4,16,17
 1089.27246094 1217.00195312 1089.27246094 1217.00195312 1089.78125 1420 c 2,18,-1
 1089.85449219 1449.11328125 l 1,19,-1
 1203.72167969 1441.42675781 l 1,20,-1
 1204.65527344 1405 l 2,21,22
 1218 895 1218 895 941.788085938 894.060546875 c 4,23,24
 817 894 817 894 744.73828125 994.145507812 c 5,25,26
 668 887 668 887 497.072265625 886.883789062 c 5,27,28
 543 640 543 640 545.297851562 327.731445312 c 0,29,30
 547 28 547 28 405.536132812 -5.6103515625 c 1,31,-1
 405.520507812 18.478515625 l 2,0,1
EndSplineSet
EndChar

StartChar: afii57396
Encoding: 1636 1636 60
Width: 978
VWidth: 3370
GlyphClass: 2
Flags: W
LayerCount: 2
Fore
SplineSet
340.94140625 343.380859375 m 0,0,1
 410.27734375 326.717773438 410.27734375 326.717773438 831.564453125 397.723632812 c 2,2,-1
 854.205078125 401.540039062 l 1,3,-1
 849.376953125 147.901367188 l 2,4,5
 848.825195312 110.649414062 848.825195312 110.649414062 830.662109375 98.001953125 c 0,6,7
 811.94140625 84.3037109375 811.94140625 84.3037109375 795.438476562 83.212890625 c 0,8,9
 664.41015625 70.6044921875 664.41015625 70.6044921875 541.817382812 76.4833984375 c 0,10,11
 126.971679688 96.94921875 126.971679688 96.94921875 137.2265625 306.520507812 c 0,12,13
 145.940429688 493.178710938 145.940429688 493.178710938 432.171875 701.974609375 c 1,14,15
 361.96875 760.84375 361.96875 760.84375 285.68359375 814.420898438 c 0,16,17
 123.810546875 929.451171875 123.810546875 929.451171875 123.826171875 1029.95605469 c 0,18,19
 123.810546875 1186.57910156 123.810546875 1186.57910156 380.341796875 1325.01074219 c 0,20,21
 478.94140625 1378.37011719 478.94140625 1378.37011719 626.5546875 1439.44238281 c 0,22,23
 685.485351562 1463.72851562 685.485351562 1463.72851562 706.05859375 1444.00390625 c 0,24,25
 724.4765625 1425.79101562 724.4765625 1425.79101562 719.142578125 1387.05957031 c 0,26,27
 706.561523438 1306.71191406 706.561523438 1306.71191406 670.98046875 1118.80761719 c 1,28,29
 464.1875 1108.59765625 464.1875 1108.59765625 412.229492188 1090.96777344 c 0,30,31
 389.368164062 1083.30664062 389.368164062 1083.30664062 388.586914062 1078.80957031 c 0,32,33
 386.20703125 1061.17675781 386.20703125 1061.17675781 424.611328125 1033.65820312 c 0,34,35
 654.92578125 863.0625 654.92578125 863.0625 682.4296875 786.653320312 c 0,36,37
 708.668945312 712.369140625 708.668945312 712.369140625 522.642578125 570.876953125 c 0,38,39
 444.166015625 511.092773438 444.166015625 511.092773438 378.854492188 442.938476562 c 0,40,41
 313.494140625 375.15234375 313.494140625 375.15234375 312.139648438 368.033203125 c 0,42,43
 308.225585938 350.915039062 308.225585938 350.915039062 340.94140625 343.380859375 c 0,0,1
EndSplineSet
EndChar

StartChar: afii57397
Encoding: 1637 1637 61
Width: 1063
VWidth: 3710
GlyphClass: 2
Flags: W
LayerCount: 2
Fore
SplineSet
507.946289062 969.008789062 m 1,0,1
 205.9296875 624.961914062 205.9296875 624.961914062 246.504882812 494.485351562 c 4,2,3
 288.203125 360.399414062 288.203125 360.399414062 517.837890625 362.98046875 c 4,4,5
 670.732421875 364.615234375 670.732421875 364.615234375 741.952148438 421.069335938 c 132,-1,6
 813.008789062 477.59765625 813.008789062 477.59765625 811.776367188 526.96875 c 0,7,8
 807.7265625 689.185546875 807.7265625 689.185546875 507.946289062 969.008789062 c 1,0,1
96.599609375 493.153320312 m 0,9,10
 96.4111328125 723.9609375 96.4111328125 723.9609375 371.21484375 1080.40039062 c 1,11,-1
 290.529296875 1140.91503906 l 1,12,-1
 441.96484375 1453.47167969 l 1,13,-1
 459.3359375 1437.20507812 l 2,14,15
 965.796875 963.172851562 965.796875 963.172851562 965.856445312 521.06640625 c 0,16,17
 965.796875 285.580078125 965.796875 285.580078125 850.639648438 164.786132812 c 0,18,19
 735.014648438 44.259765625 735.014648438 44.259765625 510.099609375 43.3505859375 c 0,20,21
 237.62109375 42.15234375 237.62109375 42.15234375 143.336914062 245.045898438 c 0,22,23
 96.4111328125 345.646484375 96.4111328125 345.646484375 96.599609375 493.153320312 c 0,9,10
EndSplineSet
EndChar

StartChar: afii57398
Encoding: 1638 1638 62
Width: 1381
VWidth: 3373
GlyphClass: 2
Flags: W
LayerCount: 2
Fore
SplineSet
980.928710938 1387.89160156 m 1,0,1
 1001.62207031 420.658203125 1001.62207031 420.658203125 1195.00292969 216.227539062 c 2,2,-1
 1204.87304688 205.793945312 l 1,3,-1
 1052.40820312 -14.1435546875 l 1,4,-1
 1035.19335938 3.189453125 l 2,5,6
 931.021484375 108.541015625 931.021484375 108.541015625 871.577148438 340.383789062 c 128,-1,7
 811.94140625 572.213867188 811.94140625 572.213867188 801.966796875 1138.00878906 c 1,8,9
 482.086914062 911.705078125 482.086914062 911.705078125 157.5234375 1079.19921875 c 0,10,11
 131.186523438 1092.79101562 131.186523438 1092.79101562 110.196289062 1204.07714844 c 0,12,13
 98.51953125 1266.66796875 98.51953125 1266.66796875 97.486328125 1335.86425781 c 0,14,15
 96.4111328125 1405.76953125 96.4111328125 1405.76953125 100.450195312 1416.56152344 c 0,16,17
 111.165039062 1448.97460938 111.165039062 1448.97460938 149.056640625 1434.94628906 c 0,18,19
 457.865234375 1318.30371094 457.865234375 1318.30371094 980.928710938 1387.89160156 c 1,0,1
EndSplineSet
EndChar

StartChar: afii57399
Encoding: 1639 1639 63
Width: 1182
VWidth: 3374
GlyphClass: 2
Flags: W
LayerCount: 2
Fore
SplineSet
63.150390625 1221.89550781 m 1,0,-1
 202.375 1469.20410156 l 1,1,2
 228.13671875 1496.39648438 228.13671875 1496.39648438 250.78515625 1467.37402344 c 0,3,4
 254.481445312 1462.67480469 254.481445312 1462.67480469 257.673828125 1457.83398438 c 0,5,6
 450.48828125 1120.18945312 450.48828125 1120.18945312 592.291992188 509.588867188 c 1,7,8
 731.852539062 1078.03710938 731.852539062 1078.03710938 947.643554688 1462.68457031 c 0,9,10
 968.958007812 1500.61132812 968.958007812 1500.61132812 989.771484375 1483.48632812 c 0,11,12
 998.280273438 1476.52441406 998.280273438 1476.52441406 1002.59179688 1466.625 c 2,13,-1
 1108.88574219 1222.5703125 l 1,14,15
 712.884765625 525.846679688 712.884765625 525.846679688 634.82421875 1.82421875 c 5,16,-1
 538.083007812 1.82421875 l 1,17,18
 458.918945312 541.653320312 458.918945312 541.653320312 63.150390625 1221.89550781 c 1,0,-1
EndSplineSet
EndChar

StartChar: afii57400
Encoding: 1640 1640 64
Width: 1182
VWidth: 3374
GlyphClass: 2
Flags: W
LayerCount: 2
Fore
SplineSet
63.150390625 258.619140625 m 1,0,1
 458.918945312 938.935546875 458.918945312 938.935546875 538.083007812 1478.69042969 c 1,2,-1
 645.362304688 1478.69042969 l 1,3,4
 723.422851562 954.743164062 723.422851562 954.743164062 1119.42382812 257.944335938 c 1,5,-1
 1002.59179688 13.890625 l 2,6,7
 996.356445312 0 996.356445312 0 988.3671875 -4.0205078125 c 0,8,9
 965.796875 -15.806640625 965.796875 -15.806640625 947.643554688 17.830078125 c 0,10,11
 726.583984375 421.51953125 726.583984375 421.51953125 592.291992188 970.92578125 c 1,12,13
 453.649414062 373.044921875 453.649414062 373.044921875 257.673828125 22.6806640625 c 0,14,15
 244.997070312 0 244.997070312 0 228.998046875 -0.0615234375 c 0,16,17
 213.383789062 0 213.383789062 0 202.375 11.310546875 c 1,18,-1
 63.150390625 258.619140625 l 1,0,1
EndSplineSet
EndChar

StartChar: afii57401
Encoding: 1641 1641 65
Width: 1078
VWidth: 3374
GlyphClass: 2
Flags: W
LayerCount: 2
Fore
SplineSet
623.737304688 738.447265625 m 1,0,1
 304.009765625 667.055664062 304.009765625 667.055664062 187.149414062 797.311523438 c 0,2,3
 122.756835938 868.331054688 122.756835938 868.331054688 123.138671875 990.572265625 c 0,4,5
 122.756835938 1106.49023438 122.756835938 1106.49023438 160.428710938 1208.85351562 c 0,6,7
 260.8046875 1480.58886719 260.8046875 1480.58886719 445.002929688 1480.34667969 c 0,8,9
 680.216796875 1479.53515625 680.216796875 1479.53515625 755.025390625 1206.75 c 0,10,11
 786.650390625 1090.68261719 786.650390625 1090.68261719 797.280273438 922.1875 c 0,12,13
 836.172851562 308.865234375 836.172851562 308.865234375 945.846679688 205.671875 c 2,14,-1
 956.696289062 195.463867188 l 1,15,-1
 833.533203125 -12.5419921875 l 1,16,-1
 816.04296875 2.4638671875 l 2,17,18
 748.713867188 60.06640625 748.713867188 60.06640625 703.69140625 170.537109375 c 0,19,20
 637.010742188 330.893554688 637.010742188 330.893554688 623.737304688 738.447265625 c 1,0,1
304.248046875 1016.3359375 m 0,21,22
 398.852539062 986.356445312 398.852539062 986.356445312 598.5859375 1015.77050781 c 1,23,-1
 594.252929688 1048.06347656 l 2,24,25
 573.783203125 1204.49316406 573.783203125 1204.49316406 416.286132812 1204.484375 c 0,26,27
 291.364257812 1204.49316406 291.364257812 1204.49316406 261.6953125 1065.39160156 c 0,28,29
 254.481445312 1031.66992188 254.481445312 1031.66992188 304.248046875 1016.3359375 c 0,21,22
EndSplineSet
EndChar

StartChar: afii57381
Encoding: 1642 1642 66
Width: 1127
VWidth: 3613
GlyphClass: 2
Flags: W
LayerCount: 2
Fore
SplineSet
672 260 m 0,0,1
 672 267.379188444 672 267.379188444 672.779937728 274.544361721 c 128,-1,2
 673.559875456 281.709534999 673.559875456 281.709534999 675.110034408 288.593696083 c 128,-1,3
 676.66019336 295.477857167 676.66019336 295.477857167 678.965212108 302.08975273 c 128,-1,4
 681.270230856 308.701648293 681.270230856 308.701648293 684.331258251 315.002196148 c 128,-1,5
 687.392285646 321.302744003 687.392285646 321.302744003 691.182370548 327.270914992 c 128,-1,6
 694.972455449 333.239085982 694.972455449 333.239085982 699.504336421 338.865573749 c 128,-1,7
 704.036217393 344.492061515 704.036217393 344.492061515 709.272077939 349.727922061 c 0,8,9
 727.629608516 368.085452639 727.629608516 368.085452639 750.386260666 377.54272632 c 128,-1,10
 773.142912816 387 773.142912816 387 799 387 c 0,11,12
 851.455844123 387 851.455844123 387 888.727922061 349.727922061 c 128,-1,13
 926 312.455844123 926 312.455844123 926 260 c 0,14,15
 926 251.39223519 926 251.39223519 924.937300744 243.077443069 c 128,-1,16
 923.874601487 234.762650949 923.874601487 234.762650949 921.774823045 226.844770152 c 128,-1,17
 919.675044603 218.926889355 919.675044603 218.926889355 916.53812286 211.377904043 c 128,-1,18
 913.401201118 203.828918731 913.401201118 203.828918731 909.266074231 196.743961115 c 128,-1,19
 905.130947345 189.659003499 905.130947345 189.659003499 899.983345242 183.019451258 c 128,-1,20
 894.835743139 176.379899016 894.835743139 176.379899016 888.727922061 170.272077939 c 0,21,22
 870.370391484 151.914547361 870.370391484 151.914547361 847.613739334 142.45727368 c 128,-1,23
 824.857087184 133 824.857087184 133 799 133 c 0,24,25
 746.544155877 133 746.544155877 133 709.272077939 170.272077939 c 128,-1,26
 672 207.544155877 672 207.544155877 672 260 c 0,0,1
220 1210 m 0,27,28
 220 1222.90814337 220 1222.90814337 222.385547627 1235.12799507 c 128,-1,29
 224.771095254 1247.34784677 224.771095254 1247.34784677 229.45856018 1258.62452536 c 128,-1,30
 234.146025107 1269.90120395 234.146025107 1269.90120395 241.128813933 1280.23432542 c 128,-1,31
 248.111602759 1290.56744688 248.111602759 1290.56744688 257.272077939 1299.72792206 c 0,32,33
 275.629608516 1318.08545264 275.629608516 1318.08545264 298.386260666 1327.54272632 c 128,-1,34
 321.142912816 1337 321.142912816 1337 347 1337 c 0,35,36
 399.455844123 1337 399.455844123 1337 436.727922061 1299.72792206 c 128,-1,37
 474 1262.45584412 474 1262.45584412 474 1210 c 0,38,39
 474 1199.67229156 474 1199.67229156 472.474514134 1189.77805847 c 128,-1,40
 470.949028267 1179.88382539 470.949028267 1179.88382539 467.924669221 1170.55737269 c 128,-1,41
 464.900310175 1161.23091999 464.900310175 1161.23091999 460.419348268 1152.49795897 c 128,-1,42
 455.938386361 1143.76499795 455.938386361 1143.76499795 449.997471546 1135.68285528 c 128,-1,43
 444.056556731 1127.60071261 444.056556731 1127.60071261 436.727922061 1120.27207794 c 0,44,45
 418.370391484 1101.91454736 418.370391484 1101.91454736 395.613739334 1092.45727368 c 128,-1,46
 372.857087184 1083 372.857087184 1083 347 1083 c 0,47,48
 294.544155877 1083 294.544155877 1083 257.272077939 1120.27207794 c 128,-1,49
 220 1157.54415588 220 1157.54415588 220 1210 c 0,27,28
784.50829405 1370.66684138 m 1,50,-1
 940.776878967 1370.53618094 l 1,51,-1
 307.57488178 -18 l 1,52,-1
 140.816682865 -18 l 1,53,-1
 784.50829405 1370.66684138 l 1,50,-1
EndSplineSet
EndChar

StartChar: uni066B
Encoding: 1643 1643 67
Width: 903
VWidth: 3616
GlyphClass: 2
Flags: W
LayerCount: 2
Fore
SplineSet
648.617177951 603.107344665 m 1,0,-1
 796.515131077 602.972103895 l 1,1,-1
 225.417003191 -429.223632812 l 1,2,-1
 75.2164443465 -429.223632812 l 1,3,-1
 648.617177951 603.107344665 l 1,0,-1
EndSplineSet
EndChar

StartChar: uni066C
Encoding: 1644 1644 68
Width: 612
VWidth: 3443
GlyphClass: 2
Flags: W
LayerCount: 2
Fore
SplineSet
287.658203125 -58.3955078125 m 1,0,-1
 274.405273438 -56.3359375 l 1,1,2
 206.301757812 -50.69140625 206.301757812 -50.69140625 173.2890625 -2.4248046875 c 0,3,4
 138.5078125 48.46875 138.5078125 48.46875 153.10546875 120.825195312 c 0,5,6
 159.188476562 150.567382812 159.188476562 150.567382812 175.172851562 174.762695312 c 128,-1,7
 191.157226562 198.958984375 191.157226562 198.958984375 216.524414062 216.874023438 c 0,8,9
 266.715820312 250.981445312 266.715820312 250.981445312 330.799804688 239.614257812 c 0,10,11
 390.83984375 228.959960938 390.83984375 228.959960938 428.07421875 176.048828125 c 0,12,13
 462.592773438 126.314453125 462.592773438 126.314453125 454.90234375 33.99609375 c 0,14,15
 434.290039062 -207.701171875 434.290039062 -207.701171875 177.185546875 -360.315429688 c 0,16,17
 174.321289062 -362.015625 174.321289062 -362.015625 171.701171875 -363.456054688 c 128,-1,18
 169.081054688 -364.896484375 169.081054688 -364.896484375 166.030273438 -366.43359375 c 128,-1,19
 162.978515625 -367.969726562 162.978515625 -367.969726562 160.142578125 -369.143554688 c 128,-1,20
 157.306640625 -370.318359375 157.306640625 -370.318359375 154.213867188 -371.416015625 c 128,-1,21
 151.120117188 -372.514648438 151.120117188 -372.514648438 148.200195312 -373.149414062 c 128,-1,22
 145.279296875 -373.784179688 145.279296875 -373.784179688 142.276367188 -374.170898438 c 128,-1,23
 139.2734375 -374.557617188 139.2734375 -374.557617188 136.401367188 -374.3828125 c 128,-1,24
 133.529296875 -374.20703125 133.529296875 -374.20703125 130.747070312 -373.612304688 c 128,-1,25
 127.966796875 -373.016601562 127.966796875 -373.016601562 125.2734375 -371.7578125 c 128,-1,26
 122.580078125 -370.5 122.580078125 -370.5 120.140625 -368.654296875 c 0,27,28
 102.568359375 -355.493164062 102.568359375 -355.493164062 106.549804688 -337.881835938 c 0,29,30
 108.451171875 -329.46875 108.451171875 -329.46875 113.126953125 -324.05859375 c 128,-1,31
 117.803710938 -318.649414062 117.803710938 -318.649414062 126.411132812 -311.938476562 c 0,32,33
 196.662109375 -260.189453125 196.662109375 -260.189453125 245.950195312 -182.629882812 c 0,34,35
 289.95703125 -113.571289062 289.95703125 -113.571289062 287.658203125 -58.3955078125 c 1,0,-1
EndSplineSet
EndChar

StartChar: uni066E
Encoding: 1646 1646 69
Width: 1830
VWidth: 3808
GlyphClass: 2
Flags: W
AnchorPoint: "Anchor-10" 683.449 1309.82 basechar 0
AnchorPoint: "Anchor-7" 538.857 -200.311 basechar 0
LayerCount: 2
Fore
SplineSet
818.122070312 244.518554688 m 0,0,1
 1033 244 1033 244 1186 263.288225377 c 0,2,3
 1583 314 1583 314 1571 393 c 0,4,5
 1562 452 1562 452 1457.43359375 647.904296875 c 1,6,-1
 1558.18457031 847.66796875 l 2,7,8
 1578 887 1578 887 1591 886 c 0,9,10
 1603 885 1603 885 1622.53125 853.97265625 c 0,11,12
 1738 670 1738 670 1738.40917969 450.975585938 c 24,13,14
 1739 174 1739 174 1515.60449219 49.2607421875 c 0,15,16
 1274 -86 1274 -86 792.5234375 -86.833984375 c 0,17,18
 84 -88 84 -88 87.4287109375 419.53515625 c 0,19,20
 89 602 89 602 203.01171875 774.547851562 c 1,21,-1
 293.727539062 737.8359375 l 1,22,23
 240 605 240 605 239.57421875 530.038085938 c 4,24,25
 238 246 238 246 818.122070312 244.518554688 c 0,0,1
EndSplineSet
Substitution2: "'init' Initial Forms in Arabic lookup 13 subtable" uni066E.init
Substitution2: "'medi' Medial Forms in Arabic lookup 11 subtable" uni066E.medi
Substitution2: "'fina' Terminal Forms in Arabic lookup 9 subtable" uni066E.fina
EndChar

StartChar: uni066F
Encoding: 1647 1647 70
Width: 1355
VWidth: 3836
GlyphClass: 2
Flags: W
AnchorPoint: "Anchor-10" 556.921 1202.72 basechar 0
AnchorPoint: "Anchor-7" 577.921 -670.829 basechar 0
LayerCount: 2
Fore
SplineSet
627.6796875 -469.295898438 m 0,0,1
 363 -470 363 -470 230.984375 -360.086914062 c 0,2,3
 100 -251 100 -251 98.169921875 -34.75 c 0,4,5
 97 143 97 143 205.05859375 391.05859375 c 1,6,-1
 294.984375 353.25 l 1,7,8
 257 258 257 258 246.112304688 183.25 c 0,9,10
 233 96 233 96 248.984375 40.66015625 c 0,11,12
 309 -160 309 -160 638.931640625 -157.456054688 c 4,13,14
 981 -155 981 -155 1134.59863281 62.689453125 c 5,15,16
 1141 95 1141 95 1133.54882812 138.635742188 c 1,17,18
 1055 116 1055 116 928.918945312 113.961914062 c 0,19,20
 796 112 796 112 736.370117188 154.671875 c 0,21,22
 614 243 614 243 705.693359375 538.30078125 c 0,23,24
 785 792 785 792 957.481445312 793.991210938 c 0,25,26
 1072 795 1072 795 1145.93652344 693.274414062 c 0,27,28
 1272 518 1272 518 1272.81347656 229.728515625 c 0,29,30
 1273 168 1273 168 1269.47749716 114 c 0,31,32
 1250 -202 1250 -202 1050 -348.552002921 c 0,33,34
 886 -469 886 -469 627.6796875 -469.295898438 c 0,0,1
1121.80566406 390.556640625 m 1,35,36
 1036.93945312 534.276367188 1036.93945312 534.276367188 929.921875 534.000976562 c 0,37,38
 836.716796875 534.276367188 836.716796875 534.276367188 808.59375 440.049804688 c 0,39,40
 801.94140625 419.412109375 801.94140625 419.412109375 802.397460938 403.65234375 c 0,41,42
 801.94140625 383.583007812 801.94140625 383.583007812 834.5390625 374.672851562 c 0,43,44
 938.935546875 345.646484375 938.935546875 345.646484375 1121.80566406 390.556640625 c 1,35,36
EndSplineSet
Substitution2: "'init' Initial Forms in Arabic lookup 13 subtable" uni066F.init
Substitution2: "'medi' Medial Forms in Arabic lookup 11 subtable" uni066F.medi
Substitution2: "'fina' Terminal Forms in Arabic lookup 9 subtable" uni066F.fina
EndChar

StartChar: uni0670
Encoding: 1648 1648 71
Width: 0
VWidth: 3024
GlyphClass: 4
Flags: W
AnchorPoint: "Anchor-10" 769.355 1796.69 mark 0
AnchorPoint: "Anchor-9" 769.355 1796.69 mark 0
AnchorPoint: "Anchor-1" 757.391 2506.32 basemark 0
AnchorPoint: "Anchor-1" 769.355 1796.69 mark 0
LayerCount: 2
Fore
SplineSet
740.578421616 1839.96540448 m 1,0,-1
 682.49958865 2356.9772304 l 1,1,-1
 831.599609375 2444.78127612 l 1,2,-1
 831.599609375 1870.24287926 l 1,3,-1
 740.578421616 1839.96540448 l 1,0,-1
EndSplineSet
EndChar

StartChar: uni0674
Encoding: 1652 1652 72
Width: 815
VWidth: 2801
GlyphClass: 2
Flags: W
LayerCount: 2
Fore
SplineSet
639.35946172 2056.87583346 m 2,0,-1
 589.859691918 1955.49796669 l 1,1,-1
 582.979566703 1954.19486364 l 2,2,3
 527.2080593 1943.63019523 527.2080593 1943.63019523 467.970846768 1924.11133012 c 128,-1,4
 408.733634235 1904.59246502 408.733634235 1904.59246502 346.116682999 1876.16865769 c 128,-1,5
 283.499731763 1847.74485036 283.499731763 1847.74485036 217.383767269 1810.38228263 c 2,6,-1
 192.576973239 1796.36333371 l 1,7,-1
 218.93057943 1977.04523421 l 1,8,-1
 225.635620825 1980.26256102 l 1,9,-1
 238.130682089 1986.29196252 l 1,10,-1
 250.641695759 1992.39489973 l 2,11,12
 253.762596064 1993.92600893 253.762596064 1993.92600893 256.875324856 1995.46085907 c 128,-1,13
 259.988053648 1996.99570921 259.988053648 1996.99570921 263.093583031 1998.53478023 c 0,14,15
 269.30413157 2001.61316266 269.30413157 2001.61316266 275.552617237 2004.73936151 c 2,16,-1
 283.275283267 2008.60311163 l 1,17,-1
 276.079768741 2013.37728237 l 2,18,19
 205.178981385 2060.41943115 205.178981385 2060.41943115 204.767546692 2143.80258314 c 0,20,21
 205.004917818 2210.74510033 205.004917818 2210.74510033 225.015176977 2266.08983091 c 128,-1,22
 245.025436136 2321.43456148 245.025436136 2321.43456148 284.857028315 2365.53260485 c 0,23,24
 346.792653546 2434.54969328 346.792653546 2434.54969328 432.554399175 2434.50781278 c 0,25,26
 558.289190152 2434.54967744 558.289190152 2434.54967744 615.270691829 2299.75110261 c 2,27,-1
 618.027884743 2293.22991708 l 1,28,-1
 585.753768494 2239.17393718 l 1,29,-1
 574.420011758 2244.24464268 l 2,30,31
 535.55231662 2261.63539535 535.55231662 2261.63539535 503.291041214 2270.25890843 c 128,-1,32
 471.029765807 2278.88242151 471.029765807 2278.88242151 445.111766774 2278.68446296 c 0,33,34
 355.383519812 2278.09647054 355.383519812 2278.09647054 315.212264562 2216.04735974 c 0,35,36
 312.614327442 2211.98090555 312.614327442 2211.98090555 310.49794251 2208.06896611 c 128,-1,37
 308.381557579 2204.15702666 308.381557579 2204.15702666 306.716558122 2200.32303487 c 128,-1,38
 305.051558666 2196.48904307 305.051558666 2196.48904307 303.873207974 2192.7879475 c 0,39,40
 300.295710607 2181.54801647 300.295710607 2181.54801647 300.822453189 2172.2465662 c 2,41,-1
 305.358901053 2154.11235749 l 1,42,43
 316.527638038 2128.99017949 316.527638038 2128.99017949 344.870687362 2110.40753553 c 0,44,45
 372.714856583 2092.15065878 372.714856583 2092.15065878 419.232519862 2081.09422331 c 0,46,47
 427.290392545 2078.89314332 427.290392545 2078.89314332 436.954729873 2078.07113439 c 128,-1,48
 446.619067201 2077.24912546 446.619067201 2077.24912546 457.680734938 2077.78215533 c 128,-1,49
 468.742402674 2078.3151852 468.742402674 2078.3151852 481.351488407 2080.17458496 c 0,50,51
 500.225085841 2082.95770818 500.225085841 2082.95770818 521.415582387 2088.7862107 c 128,-1,52
 542.606078933 2094.61471323 542.606078933 2094.61471323 566.16516728 2103.48573406 c 0,53,54
 613.360450433 2121.25565215 613.360450433 2121.25565215 632.742095885 2112.04821541 c 0,55,56
 639.283866916 2108.9403143 639.283866916 2108.9403143 642.852634935 2103.98647062 c 128,-1,57
 646.475474402 2098.95529533 646.475474402 2098.95529533 647.294657413 2093.76952456 c 0,58,59
 648.180489997 2088.16269498 648.180489997 2088.16269498 647.171535109 2081.30672778 c 0,60,61
 646.118753778 2074.15918623 646.118753778 2074.15918623 644.183381879 2068.56750864 c 0,62,63
 643.185621997 2065.68571316 643.185621997 2065.68571316 641.982103825 2062.76761964 c 128,-1,64
 640.778585653 2059.84952612 640.778585653 2059.84952612 639.35946172 2056.87583346 c 2,0,-1
EndSplineSet
EndChar

StartChar: uni06A1
Encoding: 1697 1697 76
Width: 1748
VWidth: 3836
GlyphClass: 2
Flags: W
AnchorPoint: "Anchor-10" 762.887 1489.57 basechar 0
AnchorPoint: "Anchor-7" 545.732 -261.4 basechar 0
LayerCount: 2
Fore
SplineSet
818.124023438 244.518554688 m 0,0,1
 1260 244 1260 244 1448.06542969 325.318359375 c 0,2,3
 1529 360 1529 360 1518.80273438 466.971679688 c 1,4,5
 1445 446 1445 446 1314.171875 442.297851562 c 0,6,7
 1183 439 1183 439 1121.62402344 483.0078125 c 0,8,9
 998 571 998 571 1090.94628906 866.63671875 c 0,10,11
 1171 1122 1171 1122 1342.734375 1122.32714844 c 0,12,13
 1457 1123 1457 1123 1531.18945312 1021.61132812 c 0,14,15
 1656 851 1656 851 1659.61523438 534.833984375 c 24,16,17
 1662 318 1662 318 1632.97949219 228.08984375 c 0,18,19
 1532 -87 1532 -87 792.51171875 -86.833984375 c 0,20,21
 84 -86 84 -86 87.4287109375 419.53515625 c 0,22,23
 89 602 89 602 203.01171875 774.547851562 c 1,24,-1
 293.727539062 737.8359375 l 1,25,26
 240 605 240 605 239.57421875 530.038085938 c 0,27,28
 236 245 236 245 818.124023438 244.518554688 c 0,0,1
1507.05957031 718.892578125 m 1,29,30
 1424 862 1424 862 1315.17578125 862.336914062 c 0,31,32
 1222 863 1222 863 1193.84765625 768.385742188 c 0,33,34
 1188 748 1188 748 1187.65136719 731.989257812 c 0,35,36
 1188 712 1188 712 1219.79199219 703.009765625 c 0,37,38
 1325 674 1325 674 1507.05957031 718.892578125 c 1,29,30
EndSplineSet
Substitution2: "'init' Initial Forms in Arabic lookup 13 subtable" uni06A1.init
Substitution2: "'medi' Medial Forms in Arabic lookup 11 subtable" uni06A1.medi
Substitution2: "'fina' Terminal Forms in Arabic lookup 9 subtable" uni06A1.fina
EndChar

StartChar: uni06A9
Encoding: 1705 1705 77
Width: 2021
VWidth: 3808
GlyphClass: 2
Flags: W
AnchorPoint: "Anchor-7" 636.689 -308.45 basechar 0
AnchorPoint: "Anchor-10" 597.813 1532.15 basechar 0
LayerCount: 2
Fore
SplineSet
1625.98242188 476 m 0,0,1
 1620 521 1620 521 1401.05761719 721.491210938 c 0,2,3
 1204 902 1204 902 1095.53710938 1000.18652344 c 0,4,5
 1056 1036 1056 1036 1066.51367188 1076.06445312 c 0,6,7
 1073 1101 1073 1101 1126.10058594 1264.27148438 c 0,8,9
 1136.12733003 1295.39524187 1136.12733003 1295.39524187 1154.69824219 1303.33886719 c 2,10,-1
 1948.4765625 1642.87402344 l 2,11,12
 1987.741924 1659.88817259 1987.741924 1659.88817259 1982.19824219 1616.52929688 c 2,13,-1
 1952.69140625 1385.74707031 l 1,14,-1
 1341.91503906 1125.20507812 l 1,15,16
 1788 751 1788 751 1785.07519531 454.116210938 c 8,17,18
 1784 351 1784 351 1743.06347656 276.826171875 c 0,19,20
 1542 -85 1542 -85 792.51171875 -86.833984375 c 24,21,22
 84 -88 84 -88 87.4287109375 419.53515625 c 0,23,24
 89 602 89 602 203.01171875 774.547851562 c 1,25,-1
 293.727539062 737.8359375 l 1,26,27
 240 605 240 605 239.57421875 530.038085938 c 4,28,29
 237 245 237 245 818.124023438 244.518554688 c 0,30,31
 1414 244 1414 244 1612.17578125 438.584960938 c 24,32,33
 1629 455 1629 455 1625.98242188 476 c 0,0,1
EndSplineSet
Substitution2: "'init' Initial Forms in Arabic lookup 13 subtable" uniFB90
Substitution2: "'medi' Medial Forms in Arabic lookup 11 subtable" uniFB91
Substitution2: "'fina' Terminal Forms in Arabic lookup 9 subtable" uniFB8F
EndChar

StartChar: afii57509
Encoding: 1711 1711 78
Width: 2036
VWidth: 3808
GlyphClass: 2
Flags: W
AnchorPoint: "Anchor-7" 636.689 -327.419 basechar 0
AnchorPoint: "Anchor-10" 598.446 1513.18 basechar 0
LayerCount: 2
Fore
SplineSet
1576.80664062 418.590820312 m 0,0,1
 1625 467 1625 467 1614.390625 480.21484375 c 0,2,3
 1579 527 1579 527 1376.8203125 689.876953125 c 0,4,5
 1223 815 1223 815 1092.37597656 915.8828125 c 0,6,7
 1052 947 1052 947 1063.35253906 991.760742188 c 0,8,9
 1070 1017 1070 1017 1122.93945312 1179.96777344 c 0,10,11
 1133.03951401 1211.12188281 1133.03951401 1211.12188281 1151.53710938 1219.03417969 c 2,12,-1
 1945.31445312 1558.5703125 l 2,13,14
 1984.47723692 1574.78357778 1984.47723692 1574.78357778 1979.03613281 1532.22558594 c 2,15,-1
 1949.53027344 1301.44335938 l 1,16,-1
 1338.75390625 1040.90136719 l 1,17,18
 1784 701 1784 701 1781.9140625 454.116210938 c 24,19,20
 1781 346 1781 346 1743.06347656 276.826171875 c 0,21,22
 1544 -85 1544 -85 792.51171875 -86.833984375 c 24,23,24
 84 -88 84 -88 87.4287109375 419.53515625 c 0,25,26
 89 602 89 602 203.01171875 774.547851562 c 1,27,-1
 293.727539062 737.8359375 l 1,28,29
 240 605 240 605 239.57421875 530.038085938 c 4,30,31
 237 248 237 248 818.124023438 244.518554688 c 0,32,33
 1400 241 1400 241 1576.80664062 418.590820312 c 0,0,1
EndSplineSet
Refer: 269 -1 N 1.1342 0 0 1.1342 1088.13 -668.31 2
Substitution2: "'init' Initial Forms in Arabic lookup 13 subtable" uniFB94
Substitution2: "'medi' Medial Forms in Arabic lookup 11 subtable" uniFB95
Substitution2: "'fina' Terminal Forms in Arabic lookup 9 subtable" uniFB93
EndChar

StartChar: afii57514
Encoding: 1722 1722 79
Width: 1359
VWidth: 3808
GlyphClass: 2
Flags: W
LayerCount: 2
Fore
SplineSet
936.805664062 433.5390625 m 1,0,-1
 1060.10742188 640.049804688 l 2,1,2
 1085.15470401 682 1085.15470401 682 1098 682 c 0,3,4
 1108 682 1108 682 1126 652 c 0,5,6
 1277 400 1277 400 1276.10339708 107 c 0,7,8
 1276 28 1276 28 1262.60533922 -41 c 0,9,10
 1234 -187 1234 -187 1126.5703125 -304.455078125 c 0,11,12
 958.928823418 -488.977646384 958.928823418 -488.977646384 627.6953125 -489.545898438 c 0,13,14
 363 -490 363 -490 231 -380.336914062 c 0,15,16
 100 -272 100 -272 98.185546875 -55 c 0,17,18
 97 123 97 123 205.07421875 370.80859375 c 1,19,-1
 295 333 l 1,20,21
 259 242 259 242 246.127929688 163 c 0,22,23
 233 76 233 76 249 20.41015625 c 0,24,25
 309.983398438 -182.942382812 309.983398438 -182.942382812 624 -178.775390625 c 0,26,27
 994.177734375 -173.862304688 994.177734375 -173.862304688 1145.34765625 46.5380859375 c 1,28,29
 1095 176 1095 176 936.805664062 433.5390625 c 1,0,-1
EndSplineSet
Substitution2: "'init' Initial Forms in Arabic lookup 13 subtable" uni06BA.init
Substitution2: "'medi' Medial Forms in Arabic lookup 11 subtable" uni06BA.medi
Substitution2: "'fina' Terminal Forms in Arabic lookup 9 subtable" uniFB9F
EndChar

StartChar: uni06F4
Encoding: 1780 1780 86
Width: 1188
VWidth: 3084
GlyphClass: 2
Flags: W
LayerCount: 2
Fore
SplineSet
497.072265625 886.883789062 m 1,0,1
 543 640 543 640 545.297851562 327.731445312 c 0,2,3
 547 28 547 28 405.536132812 -5.6103515625 c 1,4,-1
 405.520507812 18.478515625 l 2,5,6
 405 566 405 566 112.21875 1278.25 c 1,7,-1
 267.783203125 1465.48632812 l 1,8,-1
 281.671875 1476.06933594 l 1,9,10
 311.669921875 1485.89160156 311.669921875 1485.89160156 323.282226562 1450.95703125 c 2,11,-1
 357.673828125 1347.49316406 l 2,12,13
 408 1197 408 1197 517.983398438 1138.99316406 c 1,14,15
 553 1451 553 1451 792.359375 1450.59765625 c 0,16,17
 973 1451 973 1451 1039.13183594 1264.63671875 c 5,18,-1
 1002.79589844 1217.43652344 l 5,19,20
 783 1300 783 1300 700.61328125 1206.33496094 c 4,21,22
 658 1158 658 1158 659.66796875 1111.75878906 c 0,23,24
 661 1046 661 1046 737.264648438 1023.41308594 c 0,25,26
 856 988 856 988 1066.62890625 1056.04589844 c 1,27,-1
 1100.25097656 999.274414062 l 1,28,29
 1013 760 1013 760 790.83984375 762.626953125 c 0,30,31
 612 765 612 765 497.072265625 886.883789062 c 1,0,1
EndSplineSet
EndChar

StartChar: uni06F5
Encoding: 1781 1781 87
Width: 1134
VWidth: 3163
GlyphClass: 2
Flags: W
LayerCount: 2
Fore
SplineSet
606.418945312 509.353515625 m 1,0,1
 617 465 617 465 695.456054688 368.545898438 c 0,2,3
 748 303 748 303 838.477539062 315.907226562 c 0,4,5
 921 328 921 328 918.744140625 422.57421875 c 0,6,7
 914 658 914 658 540.918945312 1045.9609375 c 1,8,9
 251 604 251 604 241.424804688 449.197265625 c 0,10,11
 233 313 233 313 333.8203125 313.80078125 c 0,12,13
 476 315 476 315 524.471679688 511.22265625 c 1,14,-1
 606.418945312 509.353515625 l 1,0,1
568.055664062 179.6640625 m 1,15,16
 486 8 486 8 303.209960938 7.6337890625 c 0,17,18
 79 7 79 7 74.89453125 326.850585938 c 0,19,20
 71 604 71 604 440 1163 c 5,21,-1
 394.12109375 1204.27929688 l 5,22,-1
 474.467773438 1418.19140625 l 2,23,24
 496.951171875 1478.04882812 496.951171875 1478.04882812 550.328125 1424.7890625 c 0,25,26
 857 1119 857 1119 978.28515625 797.7265625 c 0,27,28
 1119 425 1119 425 1034.24707031 167.5546875 c 0,29,30
 982 8 982 8 820.520507812 8.0576171875 c 0,31,32
 656 8 656 8 568.055664062 179.6640625 c 1,15,16
EndSplineSet
EndChar

StartChar: uni06F6
Encoding: 1782 1782 88
Width: 1106
VWidth: 3374
GlyphClass: 2
Flags: W
LayerCount: 2
Fore
SplineSet
811.745117188 1200.10449219 m 1,0,1
 661.248046875 1239.26855469 661.248046875 1239.26855469 593.501953125 1239.2109375 c 0,2,3
 467.349609375 1239.26855469 467.349609375 1239.26855469 375.276367188 1126.52148438 c 0,4,5
 335.624023438 1078.03710938 335.624023438 1078.03710938 349.447265625 1063.515625 c 0,6,7
 425.197265625 994.787109375 425.197265625 994.787109375 690.393554688 999.350585938 c 0,8,9
 727.637695312 1000.05664062 727.637695312 1000.05664062 832.620117188 1043.33496094 c 0,10,11
 937.34375 1086.46777344 937.34375 1086.46777344 955.483398438 1087.51953125 c 0,12,13
 973.172851562 1088.57519531 973.172851562 1088.57519531 981.603515625 1084.82519531 c 0,14,15
 1014.55859375 1071.59960938 1014.55859375 1071.59960938 997.418945312 995.2578125 c 2,16,-1
 954.13671875 802.474609375 l 1,17,18
 698.364257812 665.875976562 698.364257812 665.875976562 495.891601562 397.282226562 c 0,19,20
 366.461914062 225.5859375 366.461914062 225.5859375 265.509765625 6.3232421875 c 0,21,22
 252.374023438 -22.1298828125 252.374023438 -22.1298828125 223.46484375 14.7529296875 c 0,23,24
 151.208984375 107.487304688 151.208984375 107.487304688 307.329101562 459.45703125 c 0,25,26
 389.368164062 644.92578125 389.368164062 644.92578125 500.016601562 771.381835938 c 1,27,28
 206.006835938 856.739257812 206.006835938 856.739257812 205.893554688 1065.88183594 c 0,29,30
 206.006835938 1126.51171875 206.006835938 1126.51171875 241.7109375 1210.08007812 c 0,31,32
 358.807617188 1480.58886719 358.807617188 1480.58886719 581.250976562 1480.00390625 c 0,33,34
 769.75390625 1479.53515625 769.75390625 1479.53515625 863.2890625 1275.62792969 c 2,35,-1
 868.427734375 1264.42382812 l 1,36,-1
 811.745117188 1200.10449219 l 1,0,1
EndSplineSet
EndChar

StartChar: uniFB8F
Encoding: 64399 64399 103
Width: 2339
VWidth: 3808
GlyphClass: 2
Flags: W
AnchorPoint: "Anchor-7" 636.689 -308.45 basechar 0
AnchorPoint: "Anchor-10" 597.813 1532.15 basechar 0
LayerCount: 2
Fore
SplineSet
1629.14355469 479.161132812 m 0,0,1
 1621 526 1621 526 1408.43457031 721.491210938 c 0,2,3
 1230 886 1230 886 1102.9140625 1000.18652344 c 0,4,5
 1058 1040 1058 1040 1073.88964844 1076.06445312 c 0,6,7
 1078 1086 1078 1086 1133.47753906 1264.27148438 c 0,8,9
 1143.06413498 1295.20696044 1143.06413498 1295.20696044 1162.07519531 1303.33886719 c 2,10,-1
 1955.85253906 1642.87402344 l 2,11,12
 1995.13983563 1660.06117438 1995.13983563 1660.06117438 1989.57421875 1616.52929688 c 2,13,-1
 1960.06835938 1385.74707031 l 1,14,-1
 1349.29199219 1125.20507812 l 1,15,16
 1654 835 1654 835 1896.83984375 574.142578125 c 0,17,18
 2120.99909221 333.000976562 2120.99909221 333.000976562 2321.08886719 333.000976562 c 2,19,-1
 2344.02539062 333.000976562 l 2,20,21
 2381.78613281 333.0000055 2381.78613281 333.0000055 2381.78613281 121.186523438 c 2,22,-1
 2381.78613281 173.779296875 l 2,23,24
 2382 0 2382 0 2344.02539062 0 c 2,25,-1
 2321.52148438 0 l 2,26,27
 1994 0 1994 0 1769.1796875 345.646484375 c 1,28,29
 1760 308 1760 308 1743.06347656 276.826171875 c 0,30,31
 1544 -85 1544 -85 792.51171875 -86.833984375 c 24,32,33
 84 -88 84 -88 87.4287109375 419.53515625 c 0,34,35
 89 602 89 602 203.01171875 774.547851562 c 1,36,-1
 293.727539062 737.8359375 l 1,37,38
 240 605 240 605 239.57421875 530.038085938 c 0,39,40
 237 245 237 245 818.124023438 244.518554688 c 0,41,42
 1414 244 1414 244 1615.33789062 441.74609375 c 24,43,44
 1632 458 1632 458 1629.14355469 479.161132812 c 0,0,1
EndSplineSet
EndChar

StartChar: uniFB93
Encoding: 64403 64403 107
Width: 2249
VWidth: 3808
GlyphClass: 2
Flags: W
AnchorPoint: "Anchor-7" 636.689 -327.419 basechar 0
AnchorPoint: "Anchor-10" 619.522 1513.18 basechar 0
LayerCount: 2
Fore
SplineSet
1801.16894531 585.913085938 m 0,0,1
 2037.99908553 333.000976562 2037.99908553 333.000976562 2232.1953125 333.000976562 c 2,2,-1
 2255.13183594 333.000976562 l 2,3,4
 2293.92382812 333.000001914 2293.92382812 333.000001914 2293.92382812 152.21875 c 6,5,-1
 2293.92382812 144.841796875 l 6,6,7
 2294 0 2294 0 2255.13183594 0 c 2,8,-1
 2232.62792969 0 l 2,9,10
 2007 0 2007 0 1762.20019531 304.547851562 c 1,11,12
 1556 -85 1556 -85 792.51171875 -86.833984375 c 24,13,14
 84 -88 84 -88 87.4287109375 419.53515625 c 0,15,16
 89 602 89 602 203.01171875 774.547851562 c 1,17,-1
 293.727539062 737.8359375 l 1,18,19
 240 605 240 605 239.57421875 530.038085938 c 0,20,21
 238 248 238 248 818.124023438 244.518554688 c 0,22,23
 1399 241 1399 241 1576.80664062 418.590820312 c 0,24,25
 1625 467 1625 467 1614.390625 480.21484375 c 0,26,27
 1577 527 1577 527 1376.8203125 689.876953125 c 0,28,29
 1223 815 1223 815 1092.37597656 915.8828125 c 0,30,31
 1052 947 1052 947 1063.35253906 991.760742188 c 0,32,33
 1070 1017 1070 1017 1122.93945312 1179.96777344 c 0,34,35
 1133.03951401 1211.12188281 1133.03951401 1211.12188281 1151.53710938 1219.03417969 c 2,36,-1
 1945.31445312 1558.5703125 l 2,37,38
 1984.47723692 1574.78357778 1984.47723692 1574.78357778 1979.03613281 1532.22558594 c 2,39,-1
 1949.53027344 1301.44335938 l 1,40,-1
 1338.75390625 1040.90136719 l 1,41,42
 1507 901 1507 901 1801.16894531 585.913085938 c 0,0,1
EndSplineSet
Refer: 269 -1 N 1.1342 0 0 1.1342 1088.13 -668.31 2
EndChar

StartChar: uniFB94
Encoding: 64404 64404 108
Width: 947
VWidth: 3808
GlyphClass: 2
Flags: W
AnchorPoint: "Anchor-7" 340.972 -299.121 basechar 0
AnchorPoint: "Anchor-10" 295.097 1822.19 basechar 0
LayerCount: 2
Fore
SplineSet
98.2705078125 333.000976562 m 2,0,1
 398 333 398 333 479.80078125 418.590820312 c 0,2,3
 525 466 525 466 506.846679688 490.752929688 c 0,4,5
 480 529 480 529 279.814453125 689.876953125 c 0,6,7
 84 847 84 847 -4.6298828125 915.8828125 c 0,8,9
 -44 946 -44 946 -33.6533203125 991.760742188 c 0,10,11
 -27 1017 -27 1017 25.93359375 1179.96777344 c 0,12,13
 36 1211 36 1211 54.53125 1219.03417969 c 2,14,-1
 848.30859375 1558.5703125 l 2,15,16
 888.081366576 1575.58300955 888.081366576 1575.58300955 882.030273438 1532.22558594 c 2,17,-1
 852.524414062 1301.44335938 l 1,18,-1
 241.748046875 1040.90136719 l 1,19,20
 688 710 688 710 684.908203125 454.116210938 c 0,21,22
 679 0 679 0 98.25 0 c 2,23,-1
 -5.2685546875 0 l 2,24,25
 -84 0 -84 0 -84.2783203125 143.788085938 c 2,26,-1
 -84.2783203125 154.326171875 l 2,27,28
 -84.2783203125 332.999996548 -84.2783203125 332.999996548 -5.2685546875 333.000976562 c 2,29,-1
 98.2705078125 333.000976562 l 2,0,1
EndSplineSet
Refer: 269 -1 S 1.1342 0 0 1.1342 -11.87 -668.31 2
EndChar

StartChar: uniFB95
Encoding: 64405 64405 109
Width: 1154
VWidth: 3808
GlyphClass: 2
Flags: W
AnchorPoint: "Anchor-7" 340.972 -299.121 basechar 0
AnchorPoint: "Anchor-10" 240.302 1818.55 basechar 0
LayerCount: 2
Fore
SplineSet
650.520507812 640.709960938 m 0,0,1
 944.999065427 333.000976562 944.999065427 333.000976562 1136.61816406 333.000976562 c 2,2,-1
 1159.5546875 333.000976562 l 2,3,4
 1198.34570312 332.999991219 1198.34570312 332.999991219 1198.34570312 152.21875 c 6,5,-1
 1198.34570312 144.841796875 l 6,6,7
 1198 0 1198 0 1159.5546875 0 c 2,8,-1
 1137.04980469 0 l 2,9,10
 908 0 908 0 663.893554688 304.810546875 c 1,11,12
 573 0 573 0 98.25 0 c 2,13,-1
 -5.2685546875 0 l 2,14,15
 -84.2783203125 0 -84.2783203125 0 -84.2783203125 143.788085938 c 2,16,-1
 -84.2783203125 154.326171875 l 2,17,18
 -83.9999984788 333.000976562 -83.9999984788 333.000976562 -5.2685546875 333.000976562 c 2,19,-1
 98.2705078125 333.000976562 l 2,20,21
 398 333 398 333 479.80078125 418.590820312 c 0,22,23
 525 466 525 466 506.846679688 490.752929688 c 0,24,25
 480 528 480 528 279.814453125 689.876953125 c 0,26,27
 126 815 126 815 -4.6298828125 915.8828125 c 0,28,29
 -45 947 -45 947 -33.6533203125 991.760742188 c 0,30,31
 -27 1017 -27 1017 25.93359375 1179.96777344 c 0,32,33
 36.0404847365 1211.12480437 36.0404847365 1211.12480437 54.53125 1219.03417969 c 2,34,-1
 848.30859375 1558.5703125 l 2,35,36
 887.471054447 1574.78105059 887.471054447 1574.78105059 882.030273438 1532.22558594 c 2,37,-1
 852.524414062 1301.44335938 l 1,38,-1
 241.748046875 1040.90136719 l 1,39,40
 364 939 364 939 650.520507812 640.709960938 c 0,0,1
EndSplineSet
Refer: 269 -1 N 1.1342 0 0 1.1342 -11.87 -668.31 2
EndChar

StartChar: uniFB9F
Encoding: 64415 64415 111
Width: 1474
VWidth: 3808
GlyphClass: 2
Flags: W
AnchorPoint: "Anchor-10" 569.156 1040.11 basechar 0
AnchorPoint: "Anchor-7" 442.178 -1009.45 basechar 0
LayerCount: 2
Fore
SplineSet
1479.85839844 0 m 2,0,-1
 1447.59082031 0 l 2,1,2
 1333 0 1333 0 1261.68554688 40.146484375 c 1,3,4
 1258 -232 1258 -232 1126.5703125 -394.455078125 c 0,5,6
 964 -595 964 -595 627.6953125 -599.545898438 c 0,7,8
 361 -603 361 -603 232 -482 c 0,9,10
 100 -358 100 -358 98.185546875 -165 c 0,11,12
 97 13 97 13 205.07421875 260.80859375 c 1,13,-1
 295 223 l 1,14,15
 259 132 259 132 246.127929688 53 c 0,16,17
 233 -34 233 -34 249 -89.5894270435 c 0,18,19
 310 -293 310 -293 624 -288.775166704 c 0,20,21
 994 -284 994 -284 1145.34765625 -63.4619140625 c 1,22,23
 1095 66 1095 66 936.805664062 323.5390625 c 1,24,-1
 1060.10742188 530.049804688 l 2,25,26
 1085 572 1085 572 1098 572 c 0,27,28
 1108 572 1108 572 1126 542 c 0,29,30
 1135 527 1135 527 1161.03222656 480.77734375 c 0,31,32
 1216 380 1216 380 1249.80664062 363.560546875 c 0,33,34
 1312.00591952 332.99709127 1312.00591952 332.99709127 1437.66894531 333 c 2,35,-1
 1479.85839844 333.000976562 l 2,36,37
 1519.64941406 333.000008529 1519.64941406 333.000008529 1519.64941406 217.083007812 c 6,38,-1
 1519.64941406 113.83203125 l 6,39,40
 1520 0 1520 0 1479.85839844 0 c 2,0,-1
EndSplineSet
EndChar

StartChar: uniFBE8
Encoding: 64488 64488 114
Width: 621
VWidth: 3807
GlyphClass: 2
Flags: W
AnchorPoint: "Anchor-10" 328.943 1311.83 basechar 0
AnchorPoint: "Anchor-7" 357.044 -246.154 basechar 0
LayerCount: 2
Fore
SplineSet
-5.2685546875 333.000976562 m 6,0,-1
 99.525390625 333.000976562 l 2,1,2
 269 333 269 333 338 365.030273438 c 0,3,4
 384 387 384 387 369.978515625 423 c 0,5,6
 336 509 336 509 246.177734375 627.904296875 c 1,7,-1
 368.927734375 847.66796875 l 2,8,9
 390 886 390 886 401 886 c 0,10,11
 413 886 413 886 433.274414062 853.97265625 c 0,12,13
 547 678 547 678 546.706054688 454 c 0,14,15
 547 233 547 233 404 106 c 0,16,17
 285 0 285 0 102.477539062 0 c 2,18,-1
 -5.2685546875 0 l 6,19,20
 -85.2783203125 0 -85.2783203125 0 -85.2783203125 112.759765625 c 2,21,-1
 -85.2783203125 219.185546875 l 2,22,23
 -85 333 -85 333 -5.2685546875 333.000976562 c 6,0,-1
365 933 m 1048,24,-1
EndSplineSet
EndChar

StartChar: uniFBE9
Encoding: 64489 64489 115
Width: 834
VWidth: 3807
GlyphClass: 2
Flags: W
AnchorPoint: "Anchor-10" 403.931 1197.71 basechar 0
AnchorPoint: "Anchor-7" 377.847 -204.398 basechar 0
LayerCount: 2
Fore
SplineSet
839.19921875 0 m 2,0,-1
 816.6953125 0 l 2,1,2
 565 0 565 0 462.580078125 144.041015625 c 1,3,4
 342 0 342 0 88.068359375 0 c 2,5,-1
 -5.2685546875 0 l 2,6,7
 -85.2783203125 0 -85.2783203125 0 -85.2783203125 112.759765625 c 2,8,-1
 -85.2783203125 219.185546875 l 2,9,10
 -84.9999976119 333.000976562 -84.9999976119 333.000976562 -5.2685546875 333.000976562 c 2,11,-1
 94.59765625 333.000976562 l 2,12,13
 391.412715817 332.99999864 391.412715817 332.99999864 396.32421875 511.356445312 c 2,14,-1
 399.443359375 624.625 l 1,15,-1
 516.385742188 624.625 l 1,16,-1
 521.950195312 515.0234375 l 2,17,18
 530.999951447 333.000976562 530.999951447 333.000976562 816.262695312 333.000976562 c 2,19,-1
 839.19921875 333.000976562 l 2,20,21
 878.990234375 333.00000024 878.990234375 333.00000024 878.990234375 217.083007812 c 6,22,-1
 878.990234375 113.83203125 l 6,23,24
 879 0 879 0 839.19921875 0 c 2,0,-1
EndSplineSet
EndChar

StartChar: uniFE73
Encoding: 65139 65139 123
Width: 943
VWidth: 3619
GlyphClass: 2
Flags: W
AnchorPoint: "Anchor-10" 349.14 2111.7 basechar 0
AnchorPoint: "Anchor-7" 349.14 -192.28 basechar 0
LayerCount: 2
Fore
SplineSet
460.658203125 539.623046875 m 2,0,1
 460.658203125 435.034179688 460.658203125 435.034179688 547.915039062 347.252929688 c 128,-1,2
 635.125 259.518554688 635.125 259.518554688 852.466796875 259.518554688 c 2,3,-1
 967.581054688 259.518554688 l 1,4,-1
 967.581054688 2.7568359375 l 1,5,-1
 754.969726562 2.7568359375 l 2,6,7
 511.258789062 3.248046875 511.258789062 3.248046875 357.59765625 150.25390625 c 0,8,9
 203.899414062 297.752929688 203.899414062 297.752929688 203.899414062 518.357421875 c 2,10,-1
 203.899414062 576.754882812 l 1,11,-1
 460.658203125 576.754882812 l 1,12,-1
 460.658203125 539.623046875 l 2,0,1
EndSplineSet
EndChar

StartChar: uniFE8E
Encoding: 65166 65166 149
Width: 589
VWidth: 3767
GlyphClass: 2
Flags: W
AnchorPoint: "Anchor-10" 224.89 1671.48 basechar 0
AnchorPoint: "Anchor-7" 305.394 -215.548 basechar 0
LayerCount: 2
Fore
SplineSet
593.6640625 0 m 2,0,-1
 573.267578125 0 l 2,1,2
 313 0 313 0 222.16796875 160.970703125 c 0,3,4
 160 271 160 271 161.768554688 548.755859375 c 0,5,6
 165.000221789 1111.03858938 165.000221789 1111.03858938 133.743164062 1385.74121094 c 2,7,-1
 132.741210938 1394.546875 l 1,8,-1
 300.333007812 1567.23828125 l 2,9,10
 340 1608 340 1608 354 1601 c 0,11,12
 365 1596 365 1596 366.243164062 1513.21679688 c 0,13,14
 371 947 371 947 357.229492188 730.893554688 c 0,15,16
 340 467 340 467 378.473632812 406.995117188 c 0,17,18
 424.999385961 333.000976562 424.999385961 333.000976562 572.834960938 333.000976562 c 2,19,-1
 593.6640625 333.000976562 l 2,20,21
 633.455078125 332.999988702 633.455078125 332.999988702 633.455078125 217.083007812 c 6,22,-1
 633.455078125 113.83203125 l 6,23,24
 633 0 633 0 593.6640625 0 c 2,0,-1
EndSplineSet
EndChar

StartChar: uniFEA2
Encoding: 65186 65186 169
Width: 1338
VWidth: 3802
GlyphClass: 2
Flags: W
AnchorPoint: "Anchor-10" 577.28 1290.97 basechar 0
AnchorPoint: "Anchor-7" 429.15 -808.544 basechar 0
LayerCount: 2
Fore
SplineSet
869.678710938 430.935546875 m 0,0,1
 706 396 706 396 585.212890625 337.736328125 c 0,2,3
 236 169 236 169 236.045898438 -90.7509765625 c 0,4,5
 236 -201 236 -201 368.090820312 -277.440429688 c 0,6,7
 496 -352 496 -352 774.54296875 -351.600585938 c 0,8,9
 1017 -351 1017 -351 1147.71289062 -327.272460938 c 0,10,11
 1198 -318 1198 -318 1206.12304688 -319.8515625 c 0,12,13
 1232 -325 1232 -325 1209.40234375 -372.515625 c 0,14,15
 1084 -636 1084 -636 710.896484375 -637.00390625 c 0,16,17
 93 -638 93 -638 94.314453125 -133.240234375 c 0,18,19
 95 100 95 100 227.360351562 285.232421875 c 0,20,21
 394 519 394 519 678.05859375 595.33984375 c 1,22,23
 633 604 633 604 606.193359375 610.352539062 c 0,24,25
 579 617 579 617 551.65234375 622.037109375 c 0,26,27
 525 627 525 627 497.76953125 632.200195312 c 0,28,29
 445 642 445 642 394.060546875 647.185546875 c 0,30,31
 280.471377413 658.951174473 280.471377413 658.951174473 179.209960938 534.342773438 c 2,32,-1
 168.72265625 521.4375 l 1,33,-1
 81.3076171875 575.176757812 l 1,34,-1
 87.453125 590.102539062 l 2,35,36
 229 933 229 933 394.094726562 927.245117188 c 0,37,38
 474 924 474 924 978.921875 777.065429688 c 0,39,40
 1085 746 1085 746 1200.2734375 746.1015625 c 0,41,42
 1228 746 1228 746 1231.05371094 730.139648438 c 0,43,44
 1235.03598478 708.807235223 1235.03598478 708.807235223 1230.64746094 696.016601562 c 2,45,-1
 1153.54980469 471.310546875 l 1,46,47
 1073 464 1073 464 1001.11035156 452.557617188 c 1,48,49
 1006.99995189 333.000976562 1006.99995189 333.000976562 1293.63378906 333.000976562 c 2,50,-1
 1342.89355469 333.000976562 l 2,51,52
 1400.65332031 333.000005826 1400.65332031 333.000005826 1400.65332031 217.083007812 c 6,53,-1
 1400.65332031 113.779296875 l 6,54,55
 1401 0 1401 0 1342.89355469 0 c 2,56,-1
 1294.06640625 0 l 2,57,58
 896.488743011 8.52651282912e-13 896.488743011 8.52651282912e-13 870.924804688 410.90625 c 2,59,-1
 869.678710938 430.935546875 l 0,0,1
EndSplineSet
EndChar

StartChar: uniFEA3
Encoding: 65187 65187 170
Width: 1543
VWidth: 3808
GlyphClass: 2
Flags: W
AnchorPoint: "Anchor-10" 536.521 1354.39 basechar 0
AnchorPoint: "Anchor-7" 613.297 -212.934 basechar 0
LayerCount: 2
Fore
SplineSet
-5.2685546875 333.000976562 m 6,0,-1
 121.454101562 333.000976562 l 2,1,2
 545.600437806 333.000000919 545.600437806 333.000000919 731.662109375 402.88671875 c 2,3,-1
 974.40234375 494.0625 l 1,4,5
 871 529 871 529 717.637695312 585.913085938 c 0,6,7
 564 643 564 643 487.280273438 642.186523438 c 0,8,9
 336.501916712 640.996067431 336.501916712 640.996067431 237.854492188 516.611328125 c 2,10,-1
 227.396484375 503.424804688 l 1,11,-1
 147.532226562 549.030273438 l 1,12,-1
 162.095703125 595.087890625 l 2,13,14
 272 943 272 943 505.654296875 940.991210938 c 0,15,16
 623 940 623 940 864.196289062 827.991210938 c 0,17,18
 1105 716 1105 716 1274.48144531 693.228515625 c 0,19,20
 1351 683 1351 683 1400.11523438 682.349609375 c 0,21,22
 1463 682 1463 682 1475.71972656 676.453125 c 0,23,24
 1483.08176797 672.961216425 1483.08176797 672.961216425 1473.54785156 645.365234375 c 2,25,-1
 1390.35449219 404.561523438 l 1,26,27
 1233 401 1233 401 1182.14550781 388.004882812 c 0,28,29
 1132 375 1132 375 1083.38085938 350.5 c 0,30,31
 984 300 984 300 802.516601562 189.693359375 c 0,32,33
 493 0 493 0 121.43359375 0 c 2,34,-1
 -5.2685546875 0 l 6,35,36
 -85.2783203125 0 -85.2783203125 0 -85.2783203125 112.759765625 c 2,37,-1
 -85.2783203125 219.185546875 l 2,38,39
 -85 333 -85 333 -5.2685546875 333.000976562 c 6,0,-1
EndSplineSet
EndChar

StartChar: uniFEA4
Encoding: 65188 65188 171
Width: 1581
VWidth: 3808
GlyphClass: 2
Flags: W
AnchorPoint: "Anchor-10" 541.068 1351.68 basechar 0
AnchorPoint: "Anchor-7" 618.556 -220.048 basechar 0
LayerCount: 2
Fore
SplineSet
1586.34375 0 m 2,0,-1
 1378.37011719 0 l 2,1,2
 1206 0 1206 0 1114.72363281 81.8359375 c 0,3,4
 1024 163 1024 163 1021.23242188 364.203125 c 1,5,6
 890 257 890 257 802.516601562 189.693359375 c 0,7,8
 553 0 553 0 121.43359375 0 c 2,9,-1
 -5.2685546875 0 l 2,10,11
 -85.2783203125 0 -85.2783203125 0 -85.2783203125 112.759765625 c 2,12,-1
 -85.2783203125 219.185546875 l 2,13,14
 -84.9999976119 333.000976562 -84.9999976119 333.000976562 -5.2685546875 333.000976562 c 2,15,-1
 121.454101562 333.000976562 l 2,16,17
 702.506239242 333.000000829 702.506239242 333.000000829 956.850585938 523.096679688 c 2,18,-1
 974.40234375 536.21484375 l 1,19,20
 823 587 823 587 738.186523438 606.989257812 c 0,21,22
 584 643 584 643 508.356445312 642.186523438 c 0,23,24
 357.578569893 640.996674325 357.578569893 640.996674325 258.930664062 516.611328125 c 2,25,-1
 248.47265625 503.424804688 l 1,26,-1
 168.608398438 549.030273438 l 1,27,-1
 183.171875 595.087890625 l 2,28,29
 293 943 293 943 526.73046875 940.991210938 c 0,30,31
 640 940 640 940 864.196289062 859.60546875 c 0,32,33
 1134 763 1134 763 1274.48144531 735.380859375 c 0,34,35
 1328 725 1328 725 1400.11523438 724.501953125 c 0,36,37
 1461 724 1461 724 1475.71972656 718.60546875 c 0,38,39
 1491.15444051 712.943344506 1491.15444051 712.943344506 1473.54785156 666.44140625 c 2,40,-1
 1390.35449219 446.713867188 l 1,41,42
 1233 444 1233 444 1182.14550781 430.15625 c 0,43,44
 1170 427 1170 427 1157.07226562 422.98828125 c 1,45,46
 1156.00001164 333.000976562 1156.00001164 333.000976562 1377.93847656 333.000976562 c 2,47,-1
 1586.34375 333.000976562 l 2,48,49
 1626.13476562 332.999996681 1626.13476562 332.999996681 1626.13476562 217.083007812 c 6,50,-1
 1626.13476562 113.83203125 l 6,51,52
 1626 0 1626 0 1586.34375 0 c 2,0,-1
EndSplineSet
EndChar

StartChar: uniFEAA
Encoding: 65194 65194 177
Width: 1224
VWidth: 3800
GlyphClass: 2
Flags: W
AnchorPoint: "Anchor-10" 559.692 1436.33 basechar 0
AnchorPoint: "Anchor-7" 437.002 -250.036 basechar 0
LayerCount: 2
Fore
SplineSet
1229.10546875 0 m 2,0,-1
 1204.49316406 0 l 2,1,2
 976 0 976 0 853.337890625 223.41015625 c 1,3,-1
 773.807617188 102.06640625 l 1,4,5
 636 -0 636 -0 428.4609375 0.1572265625 c 0,6,7
 86 0 86 0 84.330078125 321.581054688 c 0,8,9
 84 405 84 405 122.272460938 560.825195312 c 1,10,-1
 212.734375 542.872070312 l 1,11,12
 207 494 207 494 207.076171875 476.305664062 c 0,13,14
 211 335 211 335 441.184570312 336.611328125 c 0,15,16
 625 338 625 338 695 358.631835938 c 0,17,18
 786.16426815 385.047598346 786.16426815 385.047598346 751.7421875 474.532226562 c 2,19,-1
 585 908 l 1,20,-1
 690.646484375 1106.97167969 l 2,21,22
 727.953727368 1176.91325061 727.953727368 1176.91325061 754.928710938 1102.75683594 c 2,23,-1
 954.4375 554.291015625 l 2,24,25
 1034.99964448 333.000976562 1034.99964448 333.000976562 1204.06152344 333.000976562 c 2,26,-1
 1229.10546875 333.000976562 l 2,27,28
 1268.89648438 333.000002534 1268.89648438 333.000002534 1268.89648438 217.083007812 c 6,29,-1
 1268.89648438 113.83203125 l 6,30,31
 1269 0 1269 0 1229.10546875 0 c 2,0,-1
EndSplineSet
EndChar

StartChar: uniFEAE
Encoding: 65198 65198 181
Width: 923
VWidth: 3807
GlyphClass: 2
Flags: W
AnchorPoint: "Anchor-10" 490.788 1068 basechar 0
AnchorPoint: "Anchor-7" 244.184 -830.931 basechar 0
LayerCount: 2
Fore
SplineSet
-14.8232421875 -460.004882812 m 0,0,1
 372 -333 372 -333 567.888671875 25.0517578125 c 0,2,3
 604 91 604 91 428.239257812 311.137695312 c 1,4,5
 552.19140625 520.577148438 l 0,6,7
 566 544 566 544 588.020507812 513.200195312 c 0,8,9
 659 415 659 415 689.758789062 377.344726562 c 0,10,11
 725.999201894 333.000976562 725.999201894 333.000976562 902.674804688 333.000976562 c 2,12,-1
 927.71875 333.000976562 l 2,13,14
 985.478515625 332.999991842 985.478515625 332.999991842 985.478515625 161.186523438 c 6,15,-1
 985.478515625 153.779296875 l 6,16,17
 985 0 985 0 927.71875 0 c 2,18,-1
 903.106445312 0 l 2,19,20
 786 0 786 0 722.174804688 36.146484375 c 1,21,22
 684 -262 684 -262 520.639648438 -480.431640625 c 16,23,24
 491 -520 491 -520 447.865234375 -544.814453125 c 0,25,26
 362 -594 362 -594 104.50390625 -554.99609375 c 0,27,28
 -26 -535 -26 -535 -52.732421875 -507.399414062 c 0,29,30
 -66 -493 -66 -493 -61.6474609375 -482.640625 c 0,31,32
 -58 -474 -58 -474 -14.8232421875 -460.004882812 c 0,0,1
EndSplineSet
PairPos2: "'kern' Horizontal Kerning lookup 15-1" uniFEF3 dx=74 dy=0 dh=74 dv=0 dx=0 dy=0 dh=0 dv=0
PairPos2: "'kern' Horizontal Kerning lookup 15-1" uniFB58 dx=56 dy=0 dh=56 dv=0 dx=0 dy=0 dh=0 dv=0
PairPos2: "'kern' Horizontal Kerning lookup 15-1" uniFBFE dx=74 dy=0 dh=74 dv=0 dx=0 dy=0 dh=0 dv=0
PairPos2: "'kern' Horizontal Kerning lookup 15-4" uni0621 dx=-207 dy=0 dh=-207 dv=0 dx=0 dy=0 dh=0 dv=0
PairPos2: "'kern' Horizontal Kerning lookup 15-3" uni0648 dx=-45 dy=0 dh=-45 dv=0 dx=0 dy=0 dh=0 dv=0
PairPos2: "'kern' Horizontal Kerning lookup 15-1" uni0644 dx=-45 dy=0 dh=-45 dv=0 dx=0 dy=0 dh=0 dv=0
PairPos2: "'kern' Horizontal Kerning lookup 15-1" uni0642 dx=-45 dy=0 dh=-45 dv=0 dx=0 dy=0 dh=0 dv=0
PairPos2: "'kern' Horizontal Kerning lookup 15-1" uni0632 dx=-45 dy=0 dh=-45 dv=0 dx=0 dy=0 dh=0 dv=0
PairPos2: "'kern' Horizontal Kerning lookup 15-1" uni0631 dx=-45 dy=0 dh=-45 dv=0 dx=0 dy=0 dh=0 dv=0
PairPos2: "'kern' Horizontal Kerning lookup 15-1" uniFB8A dx=-45 dy=0 dh=-45 dv=0 dx=0 dy=0 dh=0 dv=0
PairPos2: "'kern' Horizontal Kerning lookup 15-1" afii57508 dx=-45 dy=0 dh=-45 dv=0 dx=0 dy=0 dh=0 dv=0
PairPos2: "'kern' Horizontal Kerning lookup 15-1" uniFB7C dx=-135 dy=0 dh=-135 dv=0 dx=0 dy=0 dh=0 dv=0
PairPos2: "'kern' Horizontal Kerning lookup 15-1" uni06CC dx=-45 dy=0 dh=-45 dv=0 dx=0 dy=0 dh=0 dv=0
PairPos2: "'kern' Horizontal Kerning lookup 15-1" uniFEEB dx=-135 dy=0 dh=-135 dv=0 dx=0 dy=0 dh=0 dv=0
PairPos2: "'kern' Horizontal Kerning lookup 15-1" uniFEDF dx=-135 dy=0 dh=-135 dv=0 dx=0 dy=0 dh=0 dv=0
PairPos2: "'kern' Horizontal Kerning lookup 15-1" uniFB90 dx=-224 dy=0 dh=-224 dv=0 dx=0 dy=0 dh=0 dv=0
PairPos2: "'kern' Horizontal Kerning lookup 15-1" uni06A9 dx=-224 dy=0 dh=-224 dv=0 dx=0 dy=0 dh=0 dv=0
PairPos2: "'kern' Horizontal Kerning lookup 15-1" uni0649 dx=-45 dy=0 dh=-45 dv=0 dx=0 dy=0 dh=0 dv=0
PairPos2: "'kern' Horizontal Kerning lookup 15-1" uni0647 dx=-135 dy=0 dh=-135 dv=0 dx=0 dy=0 dh=0 dv=0
PairPos2: "'kern' Horizontal Kerning lookup 15-1" uniFEE7 dx=-135 dy=0 dh=-135 dv=0 dx=0 dy=0 dh=0 dv=0
PairPos2: "'kern' Horizontal Kerning lookup 15-1" uniFEE3 dx=-135 dy=0 dh=-135 dv=0 dx=0 dy=0 dh=0 dv=0
PairPos2: "'kern' Horizontal Kerning lookup 15-1" uni0645 dx=-135 dy=0 dh=-135 dv=0 dx=0 dy=0 dh=0 dv=0
PairPos2: "'kern' Horizontal Kerning lookup 15-1" uniFEDB dx=-224 dy=0 dh=-224 dv=0 dx=0 dy=0 dh=0 dv=0
PairPos2: "'kern' Horizontal Kerning lookup 15-1" uniFED7 dx=-135 dy=0 dh=-135 dv=0 dx=0 dy=0 dh=0 dv=0
PairPos2: "'kern' Horizontal Kerning lookup 15-1" uniFED3 dx=-135 dy=0 dh=-135 dv=0 dx=0 dy=0 dh=0 dv=0
PairPos2: "'kern' Horizontal Kerning lookup 15-1" uni0641 dx=-135 dy=0 dh=-135 dv=0 dx=0 dy=0 dh=0 dv=0
PairPos2: "'kern' Horizontal Kerning lookup 15-1" uniFECF dx=-135 dy=0 dh=-135 dv=0 dx=0 dy=0 dh=0 dv=0
PairPos2: "'kern' Horizontal Kerning lookup 15-1" uniFECB dx=-135 dy=0 dh=-135 dv=0 dx=0 dy=0 dh=0 dv=0
PairPos2: "'kern' Horizontal Kerning lookup 15-1" uniFEC7 dx=-135 dy=0 dh=-135 dv=0 dx=0 dy=0 dh=0 dv=0
PairPos2: "'kern' Horizontal Kerning lookup 15-1" uni0638 dx=-135 dy=0 dh=-135 dv=0 dx=0 dy=0 dh=0 dv=0
PairPos2: "'kern' Horizontal Kerning lookup 15-1" uniFEC3 dx=-135 dy=0 dh=-135 dv=0 dx=0 dy=0 dh=0 dv=0
PairPos2: "'kern' Horizontal Kerning lookup 15-1" uni0637 dx=-135 dy=0 dh=-135 dv=0 dx=0 dy=0 dh=0 dv=0
PairPos2: "'kern' Horizontal Kerning lookup 15-1" uniFEBF dx=-135 dy=0 dh=-135 dv=0 dx=0 dy=0 dh=0 dv=0
PairPos2: "'kern' Horizontal Kerning lookup 15-1" uni0636 dx=-135 dy=0 dh=-135 dv=0 dx=0 dy=0 dh=0 dv=0
PairPos2: "'kern' Horizontal Kerning lookup 15-1" uniFEBB dx=-135 dy=0 dh=-135 dv=0 dx=0 dy=0 dh=0 dv=0
PairPos2: "'kern' Horizontal Kerning lookup 15-1" uni0635 dx=-135 dy=0 dh=-135 dv=0 dx=0 dy=0 dh=0 dv=0
PairPos2: "'kern' Horizontal Kerning lookup 15-1" uniFEB7 dx=-135 dy=0 dh=-135 dv=0 dx=0 dy=0 dh=0 dv=0
PairPos2: "'kern' Horizontal Kerning lookup 15-1" uni0634 dx=-135 dy=0 dh=-135 dv=0 dx=0 dy=0 dh=0 dv=0
PairPos2: "'kern' Horizontal Kerning lookup 15-1" uniFEB3 dx=-135 dy=0 dh=-135 dv=0 dx=0 dy=0 dh=0 dv=0
PairPos2: "'kern' Horizontal Kerning lookup 15-1" uni0633 dx=-135 dy=0 dh=-135 dv=0 dx=0 dy=0 dh=0 dv=0
PairPos2: "'kern' Horizontal Kerning lookup 15-1" uni0630 dx=-135 dy=0 dh=-135 dv=0 dx=0 dy=0 dh=0 dv=0
PairPos2: "'kern' Horizontal Kerning lookup 15-1" uni062F dx=-135 dy=0 dh=-135 dv=0 dx=0 dy=0 dh=0 dv=0
PairPos2: "'kern' Horizontal Kerning lookup 15-1" uniFEA7 dx=-135 dy=0 dh=-135 dv=0 dx=0 dy=0 dh=0 dv=0
PairPos2: "'kern' Horizontal Kerning lookup 15-1" uniFEA3 dx=-135 dy=0 dh=-135 dv=0 dx=0 dy=0 dh=0 dv=0
PairPos2: "'kern' Horizontal Kerning lookup 15-1" uniFE9F dx=-135 dy=0 dh=-135 dv=0 dx=0 dy=0 dh=0 dv=0
PairPos2: "'kern' Horizontal Kerning lookup 15-1" uniFE9B dx=-135 dy=0 dh=-135 dv=0 dx=0 dy=0 dh=0 dv=0
PairPos2: "'kern' Horizontal Kerning lookup 15-1" uni062B dx=-135 dy=0 dh=-135 dv=0 dx=0 dy=0 dh=0 dv=0
PairPos2: "'kern' Horizontal Kerning lookup 15-1" uniFE97 dx=-135 dy=0 dh=-135 dv=0 dx=0 dy=0 dh=0 dv=0
PairPos2: "'kern' Horizontal Kerning lookup 15-1" uni062A dx=-135 dy=0 dh=-135 dv=0 dx=0 dy=0 dh=0 dv=0
PairPos2: "'kern' Horizontal Kerning lookup 15-1" uni0629 dx=-135 dy=0 dh=-135 dv=0 dx=0 dy=0 dh=0 dv=0
PairPos2: "'kern' Horizontal Kerning lookup 15-1" uni0628 dx=-135 dy=0 dh=-135 dv=0 dx=0 dy=0 dh=0 dv=0
PairPos2: "'kern' Horizontal Kerning lookup 15-1" uni0627 dx=-207 dy=0 dh=-207 dv=0 dx=0 dy=0 dh=0 dv=0
PairPos2: "'kern' Horizontal Kerning lookup 15-1" uni0622 dx=-207 dy=0 dh=-207 dv=0 dx=0 dy=0 dh=0 dv=0
PairPos2: "'kern' Horizontal Kerning lookup 15-1" uniFB94 dx=-248 dy=0 dh=-248 dv=0 dx=0 dy=0 dh=0 dv=0
PairPos2: "'kern' Horizontal Kerning lookup 15-1" afii57509 dx=-248 dy=0 dh=-248 dv=0 dx=0 dy=0 dh=0 dv=0
PairPos2: "'kern' Horizontal Kerning lookup 15-1" uniFB56 dx=-135 dy=0 dh=-135 dv=0 dx=0 dy=0 dh=0 dv=0
PairPos2: "'kern' Horizontal Kerning lookup 15-1" afii57506 dx=-135 dy=0 dh=-135 dv=0 dx=0 dy=0 dh=0 dv=0
EndChar

StartChar: uniFEB2
Encoding: 65202 65202 185
Width: 2551
VWidth: 3807
GlyphClass: 2
Flags: W
AnchorPoint: "Anchor-10" 632.465 1014.94 basechar 0
AnchorPoint: "Anchor-7" 446.8 -802.287 basechar 0
LayerCount: 2
Fore
SplineSet
936.805664062 323.5390625 m 5,0,-1
 1060.10742188 530.049804688 l 2,1,2
 1085 572 1085 572 1098 572 c 0,3,4
 1108 572 1108 572 1126 542 c 0,5,6
 1135 527 1135 527 1161.03222656 480.77734375 c 0,7,8
 1214 383 1214 383 1249.80664062 363.560546875 c 24,9,10
 1304 334 1304 334 1400.73339844 335.103515625 c 0,11,12
 1566.00770792 336.000041811 1566.00770792 336.000041811 1592.59667969 492.83203125 c 2,13,-1
 1613.3359375 615.16015625 l 1,14,-1
 1734.27636719 597.302734375 l 1,15,-1
 1722.59765625 500.3828125 l 2,16,17
 1711 408 1711 408 1759.3671875 370.893554688 c 0,18,19
 1807 334 1807 334 1902.65332031 333.973632812 c 0,20,21
 1998 334 1998 334 2043.80078125 378.12109375 c 0,22,23
 2089.79150162 422.797460223 2089.79150162 422.797460223 2092.41601562 515.5859375 c 2,24,-1
 2095.54785156 626.310546875 l 1,25,-1
 2212.48242188 626.310546875 l 1,26,-1
 2218.04003906 516.098632812 l 2,27,28
 2226.99995221 333.000976562 2226.99995221 333.000976562 2488.64355469 333.000976562 c 2,29,-1
 2555.83984375 333.000976562 l 2,30,31
 2615.63085938 333.000005992 2615.63085938 333.000005992 2615.63085938 217.083007812 c 2,32,-1
 2615.63085938 113.83203125 l 2,33,34
 2616 0 2616 0 2555.83984375 0 c 2,35,-1
 2489.07519531 0 l 2,36,37
 2249 0 2249 0 2172.60253906 134.927734375 c 1,38,39
 2067 -1 2067 -1 1891.29296875 -0.0029296875 c 0,40,41
 1717 1 1717 1 1633.17871094 138.875 c 1,42,43
 1522 0 1522 0 1395.23144531 0 c 0,44,45
 1329 0 1329 0 1261.68554688 40.146484375 c 1,46,47
 1288 -238 1288 -238 1126.5703125 -414.455078125 c 0,48,49
 959 -599 959 -599 627.6953125 -599.545898438 c 0,50,51
 363 -600 363 -600 231 -490.336914062 c 0,52,53
 100 -382 100 -382 98.185546875 -165 c 0,54,55
 97 13 97 13 205.07421875 260.80859375 c 1,56,-1
 295 223 l 5,57,58
 259 132 259 132 246.127929688 53 c 4,59,60
 233 -34 233 -34 249 -89.58984375 c 4,61,62
 310 -293 310 -293 624 -288.775390625 c 4,63,64
 994 -284 994 -284 1145.34765625 -63.4619140625 c 5,65,66
 1095 66 1095 66 936.805664062 323.5390625 c 5,0,-1
EndSplineSet
EndChar

StartChar: uniFEB3
Encoding: 65203 65203 186
Width: 1638
VWidth: 3807
GlyphClass: 2
Flags: W
AnchorPoint: "Anchor-10" 902.609 1249.63 basechar 0
AnchorPoint: "Anchor-7" 836.934 -275.292 basechar 0
LayerCount: 2
Fore
SplineSet
-5.2685546875 333.000976562 m 6,0,-1
 79.302734375 333.000976562 l 2,1,2
 370.308538418 332.999998964 370.308538418 332.999998964 394.619140625 468.734375 c 2,3,-1
 416.5546875 591.208007812 l 1,4,-1
 533.762695312 573.333007812 l 1,5,-1
 519.318359375 476.702148438 l 2,6,7
 498 332 498 332 697.772460938 332.80078125 c 0,8,9
 890.279768605 333.000289944 890.279768605 333.000289944 916.96484375 490.400390625 c 2,10,-1
 937.704101562 612.729492188 l 1,11,-1
 1058.64355469 594.872070312 l 1,12,-1
 1046.96484375 497.9453125 l 2,13,14
 1027 334 1027 334 1229.05371094 333.90625 c 0,15,16
 1377 334 1377 334 1377 409.060546875 c 0,17,18
 1377 442 1377 442 1265.6640625 603.370117188 c 1,19,-1
 1397.36132812 831.448242188 l 2,20,21
 1412 856 1412 856 1421 854 c 0,22,23
 1433 852 1433 852 1451.66601562 820.408203125 c 0,24,25
 1549 661 1549 661 1547.80478615 441 c 0,26,27
 1547 279 1547 279 1459.64257812 147.047851562 c 0,28,29
 1362 -0 1362 -0 1212.49804688 -0.24609375 c 0,30,31
 1053 -1 1053 -1 956.419921875 135.458984375 c 1,32,33
 845 1 845 1 688.6640625 0.142578125 c 0,34,35
 500 -1 500 -1 422.590820312 134.1875 c 1,36,37
 320 0 320 0 79.2822265625 0 c 2,38,-1
 -5.2685546875 0 l 6,39,40
 -85.2783203125 0 -85.2783203125 0 -85.2783203125 112.759765625 c 2,41,-1
 -85.2783203125 219.185546875 l 2,42,43
 -85 333 -85 333 -5.2685546875 333.000976562 c 6,0,-1
EndSplineSet
EndChar

StartChar: uniFEB4
Encoding: 65204 65204 187
Width: 1875
VWidth: 3807
GlyphClass: 2
Flags: W
AnchorPoint: "Anchor-7" 836.934 -271.076 basechar 0
AnchorPoint: "Anchor-10" 902.609 1249.63 basechar 0
LayerCount: 2
Fore
SplineSet
1881.40722656 0 m 2,0,-1
 1814.64355469 0 l 2,1,2
 1575 0 1575 0 1499.28320312 133.712890625 c 1,3,4
 1400 0 1400 0 1219.89648438 0.248046875 c 0,5,6
 1039 0 1039 0 957.2734375 136.368164062 c 1,7,8
 843 -2 843 -2 688.6015625 -0.9111328125 c 0,9,10
 501 1 501 1 422.52734375 134.104492188 c 1,11,12
 320 0 320 0 79.2822265625 0 c 2,13,-1
 -5.2685546875 0 l 2,14,15
 -85.2783203125 0 -85.2783203125 0 -85.2783203125 112.759765625 c 2,16,-1
 -85.2783203125 219.185546875 l 2,17,18
 -84.9999976119 333.000976562 -84.9999976119 333.000976562 -5.2685546875 333.000976562 c 2,19,-1
 79.302734375 333.000976562 l 2,20,21
 370.308538418 332.999998964 370.308538418 332.999998964 394.619140625 468.734375 c 2,22,-1
 416.5546875 591.208007812 l 1,23,-1
 533.762695312 573.333007812 l 1,24,-1
 519.318359375 476.702148438 l 2,25,26
 498.104386001 333.02081824 498.104386001 333.02081824 697.8203125 332.80078125 c 0,27,28
 890.279768617 333.000290016 890.279768617 333.000290016 916.96484375 490.400390625 c 2,29,-1
 937.704101562 612.729492188 l 1,30,-1
 1058.64355469 594.872070312 l 1,31,-1
 1046.96484375 497.9453125 l 2,32,33
 1026.76400597 334.009288972 1026.76400597 334.009288972 1229.04882812 333.90625 c 0,34,35
 1325 334 1325 334 1370.29785156 377.103515625 c 0,36,37
 1415.9650888 419.967232007 1415.9650888 419.967232007 1418.51074219 512.41015625 c 2,38,-1
 1421.62988281 625.678710938 l 1,39,-1
 1538.57128906 625.678710938 l 1,40,-1
 1544.13671875 516.07421875 l 2,41,42
 1552.99995272 333.000976562 1552.99995272 333.000976562 1814.2109375 333.000976562 c 2,43,-1
 1881.40722656 333.000976562 l 2,44,45
 1921.19824219 332.99999511 1921.19824219 332.99999511 1921.19824219 217.083007812 c 2,46,-1
 1921.19824219 113.83203125 l 2,47,48
 1921 0 1921 0 1881.40722656 0 c 2,0,-1
EndSplineSet
EndChar

StartChar: uniFEBA
Encoding: 65210 65210 193
Width: 2673
VWidth: 3808
GlyphClass: 2
Flags: W
AnchorPoint: "Anchor-10" 632.465 1014.94 basechar 0
AnchorPoint: "Anchor-7" 446.8 -802.287 basechar 0
LayerCount: 2
Fore
SplineSet
936.805664062 323.5390625 m 1,0,-1
 1060.10742188 530.049804688 l 2,1,2
 1085 572 1085 572 1098 572 c 0,3,4
 1108 572 1108 572 1126 542 c 0,5,6
 1135 527 1135 527 1161.03222656 480.77734375 c 0,7,8
 1216 380 1216 380 1249.80664062 363.560546875 c 8,9,10
 1322 328 1322 328 1440.80761719 338.553710938 c 1,11,12
 1819 895 1819 895 2160.87792969 894.32421875 c 0,13,14
 2317 894 2317 894 2417.15625 799.927734375 c 0,15,16
 2507 714 2507 714 2506.63867188 572.896484375 c 0,17,18
 2506 445 2506 445 2427.61132812 334.0546875 c 1,19,-1
 2678.08007812 333.000976562 l 2,20,21
 2717.87109375 333.000003153 2717.87109375 333.000003153 2717.87109375 217.083007812 c 6,22,-1
 2717.87109375 113.83203125 l 6,23,24
 2718 0 2718 0 2678.08007812 0 c 2,25,-1
 2569.1640625 0 l 2,26,27
 2334 0 2334 0 2226.89453125 84.7802734375 c 1,28,29
 2200 71 2200 71 2185.35253906 64.685546875 c 0,30,31
 2026 2 2026 2 1783.99121094 0.013671875 c 1,32,-1
 1545.37597656 0 l 2,33,34
 1352 -0 1352 -0 1261.68554688 40.146484375 c 1,35,36
 1288 -238 1288 -238 1126.5703125 -414.455078125 c 0,37,38
 959 -599 959 -599 627.6953125 -599.545898438 c 0,39,40
 363 -600 363 -600 231 -490.336914062 c 0,41,42
 100 -382 100 -382 98.185546875 -165 c 0,43,44
 97 13 97 13 205.07421875 260.80859375 c 1,45,-1
 295 223 l 1,46,47
 259 132 259 132 246.127929688 53 c 0,48,49
 233 -34 233 -34 249 -89.58984375 c 0,50,51
 310 -293 310 -293 624 -288.775390625 c 0,52,53
 994 -284 994 -284 1145.34765625 -63.4619140625 c 1,54,55
 1095 66 1095 66 936.805664062 323.5390625 c 1,0,-1
1596.97070312 335.373046875 m 1,56,-1
 1877.04394531 335.373046875 l 2,57,58
 2074.4672922 335.008372675 2074.4672922 335.008372675 2188.8515625 362.807617188 c 0,59,60
 2346 401 2346 401 2344.25 439.235351562 c 0,61,62
 2342 500 2342 500 2282.80957031 544.314453125 c 0,63,64
 2225 589 2225 589 2123.47363281 588.262695312 c 0,65,66
 1934.90565267 588.003986457 1934.90565267 588.003986457 1739.08105469 445.009765625 c 0,67,68
 1669 394 1669 394 1596.97070312 335.373046875 c 1,56,-1
EndSplineSet
EndChar

StartChar: uniFEBB
Encoding: 65211 65211 194
Width: 1906
VWidth: 3808
GlyphClass: 2
Flags: W
AnchorPoint: "Anchor-10" 1185.92 1398.47 basechar 0
AnchorPoint: "Anchor-7" 829.338 -265.584 basechar 0
LayerCount: 2
Fore
SplineSet
-5.2685546875 333.000976562 m 6,0,-1
 37.150390625 333.000976562 l 2,1,2
 318.164538904 332.999999428 318.164538904 332.999999428 323.401367188 513.2578125 c 2,3,-1
 326.610351562 623.71484375 l 1,4,-1
 444.419921875 623.71484375 l 1,5,-1
 449.984375 514.125 l 2,6,7
 458 358 458 358 746.142578125 338.553710938 c 1,8,9
 1126 898 1126 898 1471.33496094 893.225585938 c 0,10,11
 1617 891 1617 891 1705.33496094 815.140625 c 0,12,13
 1812 723 1812 723 1813.97851562 570 c 0,14,15
 1815 489 1815 489 1772.05371094 377 c 0,16,17
 1681 140 1681 140 1490.6875 64.685546875 c 0,18,19
 1328.0687893 0.0273510486331 1328.0687893 0.0273510486331 1089.32617188 0.013671875 c 2,20,-1
 850.7109375 0 l 2,21,22
 512 -0 512 -0 390.6484375 139.315429688 c 1,23,24
 282 0 282 0 37.1298828125 0 c 2,25,-1
 -5.2685546875 0 l 6,26,27
 -85.2783203125 0 -85.2783203125 0 -85.2783203125 112.759765625 c 2,28,-1
 -85.2783203125 219.185546875 l 2,29,30
 -85 333 -85 333 -5.2685546875 333.000976562 c 6,0,-1
902.305664062 335.373046875 m 1,31,-1
 1182.37890625 335.373046875 l 2,32,33
 1381 335 1381 335 1494.18652344 362.807617188 c 0,34,35
 1651 401 1651 401 1649.58496094 439.235351562 c 0,36,37
 1647 500 1647 500 1588.14453125 544.314453125 c 0,38,39
 1530 589 1530 589 1428.80859375 588.262695312 c 0,40,41
 1240 588 1240 588 1044.41601562 445.009765625 c 0,42,43
 974 394 974 394 902.305664062 335.373046875 c 1,31,-1
EndSplineSet
EndChar

StartChar: uniFEBC
Encoding: 65212 65212 195
Width: 1981
VWidth: 3808
GlyphClass: 2
Flags: W
AnchorPoint: "Anchor-7" 829.338 -265.584 basechar 0
AnchorPoint: "Anchor-10" 1185.92 1398.47 basechar 0
LayerCount: 2
Fore
SplineSet
1984.73339844 0 m 2,0,-1
 1875.81738281 0 l 2,1,2
 1641 0 1641 0 1533.54785156 84.7802734375 c 1,3,4
 1507 71 1507 71 1492.00585938 64.685546875 c 0,5,6
 1333 2 1333 2 1090.64453125 0.013671875 c 1,7,-1
 852.029296875 0 l 2,8,9
 512 -0 512 -0 390.6484375 139.315429688 c 1,10,11
 282 0 282 0 37.1298828125 0 c 2,12,-1
 -5.2685546875 0 l 2,13,14
 -83.2470703125 0 -83.2470703125 0 -83.2470703125 112.756835938 c 2,15,-1
 -83.2470703125 193.2890625 l 2,16,17
 -82.999998273 333.000976562 -82.999998273 333.000976562 -5.2685546875 333.000976562 c 2,18,-1
 37.150390625 333.000976562 l 2,19,20
 318.164538904 332.999999428 318.164538904 332.999999428 323.401367188 513.2578125 c 2,21,-1
 326.610351562 623.71484375 l 1,22,-1
 444.453125 623.71484375 l 1,23,-1
 449.984375 510.6484375 l 2,24,25
 457 359 457 359 747.4609375 338.553710938 c 1,26,27
 1126 895 1126 895 1467.53125 894.32421875 c 0,28,29
 1624 894 1624 894 1723.80957031 799.927734375 c 0,30,31
 1814 714 1814 714 1813.29199219 572.896484375 c 0,32,33
 1813 445 1813 445 1734.26464844 334.0546875 c 1,34,-1
 1984.73339844 333.000976562 l 2,35,36
 2024.52441406 333.000011534 2024.52441406 333.000011534 2024.52441406 217.083007812 c 2,37,-1
 2024.52441406 113.83203125 l 2,38,39
 2025 0 2025 0 1984.73339844 0 c 2,0,-1
903.624023438 335.373046875 m 1,40,-1
 1183.69726562 335.373046875 l 2,41,42
 1381.12109375 335.008789062 1381.12109375 335.008789062 1495.50488281 362.807617188 c 0,43,44
 1652.65332031 401 1652.65332031 401 1650.90332031 439.235351562 c 0,45,46
 1648.65332031 500 1648.65332031 500 1589.46289062 544.314453125 c 0,47,48
 1531.65332031 589 1531.65332031 589 1430.12695312 588.262695312 c 0,49,50
 1241.55859375 588.00390625 1241.55859375 588.00390625 1045.734375 445.009765625 c 0,51,52
 975.653320312 394 975.653320312 394 903.624023438 335.373046875 c 1,40,-1
EndSplineSet
EndChar

StartChar: uniFEC2
Encoding: 65218 65218 201
Width: 1677
VWidth: 3808
GlyphClass: 2
Flags: W
AnchorPoint: "Anchor-10" 525.815 1748.62 basechar 0
AnchorPoint: "Anchor-7" 714.45 -274.796 basechar 0
LayerCount: 2
Fore
SplineSet
694.313476562 611.900390625 m 1,0,1
 952 894 952 894 1174.83203125 893.653320312 c 0,2,3
 1333 893 1333 893 1431.11035156 799.256835938 c 0,4,5
 1521 713 1521 713 1520.59277344 572.225585938 c 0,6,7
 1520 444 1520 444 1441.56542969 333.383789062 c 1,8,-1
 1682.23925781 333.000976562 l 2,9,10
 1719.99902344 333.000000025 1719.99902344 333.000000025 1719.99902344 217.083007812 c 6,11,-1
 1719.99902344 113.779296875 l 6,12,13
 1720 0 1720 0 1682.23925781 0 c 2,14,-1
 1573.32324219 0 l 2,15,16
 1338 0 1338 0 1230.20898438 84.1884765625 c 1,17,18
 1083.88394397 1.49952081596 1083.88394397 1.49952081596 785.383789062 0.013671875 c 2,19,-1
 536.030273438 -1.2275390625 l 2,20,21
 428 -2 428 -2 351.674804688 51.8193359375 c 0,22,23
 226 139 226 139 114.864257812 229.728515625 c 0,24,25
 45 287 45 287 51.6357421875 311.924804688 c 0,26,27
 56.9618331903 332.850049532 56.9618331903 332.850049532 114.935546875 333.201171875 c 2,28,-1
 438.221679688 335.159179688 l 1,29,30
 476 376 476 376 513.051757812 417.72265625 c 1,31,32
 506 741 506 741 501.377929688 922.98828125 c 0,33,34
 496 1107 496 1107 445.881835938 1336.05273438 c 1,35,-1
 653 1581 l 2,36,37
 692.065281578 1627.07699878 692.065281578 1627.07699878 706 1564 c 2,38,-1
 762.412109375 1308.64453125 l 2,39,40
 777.983988557 1236.07461842 777.983988557 1236.07461842 731.502929688 1187.09472656 c 2,41,-1
 695.390625 1149.04101562 l 1,42,-1
 694.313476562 611.900390625 l 1,0,1
596.672851562 335.373046875 m 1,43,-1
 876.74609375 335.373046875 l 2,44,45
 1075 335 1075 335 1188.55371094 362.807617188 c 0,46,47
 1346 401 1346 401 1343.95214844 439.235351562 c 0,48,49
 1341 500 1341 500 1282.51171875 544.314453125 c 0,50,51
 1224 589 1224 589 1123.17578125 588.262695312 c 0,52,53
 934.607248086 588.003582629 934.607248086 588.003582629 738.783203125 445.009765625 c 0,54,55
 669 394 669 394 596.672851562 335.373046875 c 1,43,-1
EndSplineSet
EndChar

StartChar: uniFEC3
Encoding: 65219 65219 202
Width: 1321
VWidth: 3808
GlyphClass: 2
Flags: W
AnchorPoint: "Anchor-10" 262.365 1748.62 basechar 0
AnchorPoint: "Anchor-7" 451 -276.904 basechar 0
LayerCount: 2
Fore
SplineSet
-1.2685546875 333.000976562 m 6,0,-1
 155.485351562 335.159179688 l 1,1,2
 193 376 193 376 230.315429688 417.72265625 c 1,3,4
 224 741 224 741 218.641601562 922.98828125 c 0,5,6
 213 1107 213 1107 163.145507812 1336.05273438 c 1,7,-1
 370.263671875 1581 l 2,8,9
 409.274065132 1627.32545666 409.274065132 1627.32545666 423.263671875 1564 c 2,10,-1
 479.67578125 1308.64453125 l 2,11,12
 495.842401024 1236.70133241 495.842401024 1236.70133241 448.766601562 1187.09472656 c 2,13,-1
 412.654296875 1149.04101562 l 1,14,-1
 411.577148438 611.900390625 l 1,15,16
 669 894 669 894 884.65625 893.225585938 c 24,17,18
 1028 893 1028 893 1118.65625 815.140625 c 0,19,20
 1225 723 1225 723 1227.29980469 570 c 0,21,22
 1228 489 1228 489 1185.375 377 c 0,23,24
 1094 140 1094 140 904.008789062 64.685546875 c 0,25,26
 741.480258182 1.1876310176 741.480258182 1.1876310176 502.647460938 0.013671875 c 2,27,-1
 250.1328125 -1.2275390625 l 2,28,-1
 -1.2685546875 0 l 6,29,30
 -85.2783203125 0 -85.2783203125 0 -85.2783203125 112.759765625 c 6,31,-1
 -85.2783203125 219.185546875 l 6,32,33
 -85 332 -85 332 -1.2685546875 333.000976562 c 6,0,-1
313.936523438 335.373046875 m 1,34,-1
 594.009765625 335.373046875 l 2,35,36
 792.263671875 335 792.263671875 335 905.817382812 362.807617188 c 0,37,38
 1063.26367188 401 1063.26367188 401 1061.21582031 439.235351562 c 0,39,40
 1058.26367188 500 1058.26367188 500 999.775390625 544.314453125 c 0,41,42
 941.263671875 589 941.263671875 589 840.439453125 588.262695312 c 0,43,44
 651.87109375 588.00390625 651.87109375 588.00390625 456.046875 445.009765625 c 0,45,46
 386.263671875 394 386.263671875 394 313.936523438 335.373046875 c 1,34,-1
EndSplineSet
EndChar

StartChar: uniFEC4
Encoding: 65220 65220 203
Width: 1392
VWidth: 3808
GlyphClass: 2
Flags: W
AnchorPoint: "Anchor-10" 262.365 1748.62 basechar 0
AnchorPoint: "Anchor-7" 451 -274.796 basechar 0
LayerCount: 2
Fore
SplineSet
411.577148438 609.900390625 m 1,0,1
 669 894 669 894 892.095703125 893.653320312 c 0,2,3
 1050 893 1050 893 1148.37402344 799.256835938 c 0,4,5
 1238 713 1238 713 1237.85644531 572.225585938 c 0,6,7
 1237 444 1237 444 1158.82910156 333.383789062 c 1,8,-1
 1399.50292969 333.000976562 l 2,9,10
 1437.26269531 332.999993158 1437.26269531 332.999993158 1437.26269531 217.083007812 c 6,11,-1
 1437.26269531 113.779296875 l 6,12,13
 1437 0 1437 0 1399.50292969 0 c 2,14,-1
 1290.58691406 0 l 2,15,16
 1055 0 1055 0 947.47265625 84.1884765625 c 1,17,18
 801.885994008 1.50319625261 801.885994008 1.50319625261 502.647460938 0.013671875 c 2,19,-1
 253.293945312 -1.2275390625 l 2,20,-1
 -5.2685546875 0 l 2,21,22
 -83.2470703125 0 -83.2470703125 0 -83.2470703125 112.756835938 c 2,23,-1
 -83.2470703125 203.2890625 l 2,24,25
 -83.0000773537 331.959702682 -83.0000773537 331.959702682 -5.5302734375 332.999023438 c 2,26,-1
 155.485351562 335.159179688 l 1,27,28
 193 376 193 376 230.315429688 415.72265625 c 1,29,30
 224 739 224 739 218.641601562 920.98828125 c 0,31,32
 213 1105 213 1105 163.145507812 1334.05273438 c 1,33,-1
 370.263671875 1579 l 2,34,35
 409.274065132 1625.32545666 409.274065132 1625.32545666 423.263671875 1562 c 2,36,-1
 479.67578125 1306.64453125 l 2,37,38
 495.842401024 1234.70133241 495.842401024 1234.70133241 448.766601562 1185.09472656 c 2,39,-1
 412.654296875 1147.04101562 l 1,40,-1
 411.577148438 609.900390625 l 1,0,1
313.936523438 335.373046875 m 1,41,-1
 594.009765625 335.373046875 l 2,42,43
 792.263671875 335 792.263671875 335 905.817382812 362.807617188 c 0,44,45
 1063.26367188 401 1063.26367188 401 1061.21582031 439.235351562 c 0,46,47
 1058.26367188 500 1058.26367188 500 999.775390625 544.314453125 c 0,48,49
 941.263671875 589 941.263671875 589 840.439453125 588.262695312 c 0,50,51
 651.87109375 588.00390625 651.87109375 588.00390625 456.046875 445.009765625 c 0,52,53
 386.263671875 394 386.263671875 394 313.936523438 335.373046875 c 1,41,-1
EndSplineSet
EndChar

StartChar: uniFECA
Encoding: 65226 65226 209
Width: 1357
VWidth: 3802
GlyphClass: 2
Flags: W
AnchorPoint: "Anchor-7" 429.15 -808.544 basechar 0
AnchorPoint: "Anchor-10" 636.595 1410.2 basechar 0
LayerCount: 2
Fore
SplineSet
236.045898438 -90.7509765625 m 0,0,1
 236 -201 236 -201 368.090820312 -277.440429688 c 0,2,3
 496 -352 496 -352 774.54296875 -351.600585938 c 0,4,5
 1017 -351 1017 -351 1147.71289062 -327.272460938 c 0,6,7
 1198 -318 1198 -318 1206.12304688 -319.8515625 c 0,8,9
 1232 -325 1232 -325 1209.40234375 -372.515625 c 0,10,11
 1084 -636 1084 -636 710.896484375 -637.00390625 c 0,12,13
 93 -638 93 -638 94.3154296875 -133.239257812 c 0,14,15
 95 100 95 100 227.352539062 285.219726562 c 0,16,17
 390 511 390 511 648.811523438 595.936523438 c 1,18,19
 593 664 593 664 338.705078125 665.208984375 c 1,20,-1
 338.545898438 800.387695312 l 1,21,22
 455 876 455 876 769.654296875 873.578125 c 0,23,24
 1074 872 1074 872 1074.55078125 708.982421875 c 0,25,26
 1075 542 1075 542 852.087890625 420.760742188 c 1,27,28
 877.999711662 333.000976562 877.999711662 333.000976562 1332.625 333.000976562 c 2,29,-1
 1361.88378906 333.000976562 l 2,30,31
 1399.64453125 333.000009107 1399.64453125 333.000009107 1399.64453125 181.186523438 c 6,32,-1
 1399.64453125 113.810546875 l 6,33,34
 1400 0 1400 0 1361.88378906 0 c 2,35,-1
 1333.05664062 0 l 2,36,37
 805 0 805 0 734.545898438 372.056640625 c 1,38,39
 236 156 236 156 236.045898438 -90.7509765625 c 0,0,1
EndSplineSet
EndChar

StartChar: uniFECB
Encoding: 65227 65227 210
Width: 1149
VWidth: 3802
GlyphClass: 2
Flags: W
AnchorPoint: "Anchor-10" 512.918 1445.43 basechar 0
AnchorPoint: "Anchor-7" 516.998 -271.252 basechar 0
LayerCount: 2
Fore
SplineSet
-5.2685546875 333.000976562 m 6,0,-1
 29.888671875 333.51171875 l 1,1,-1
 281.150390625 333.541992188 l 1,2,3
 156 452 156 452 219.50390625 654.366210938 c 0,4,5
 319 975 319 975 617.930664062 974.907226562 c 0,6,7
 831.633575026 974.999841199 831.633575026 974.999841199 951.180664062 731.364257812 c 2,8,-1
 956.579101562 720.362304688 l 1,9,-1
 903.458984375 656.151367188 l 1,10,11
 690 758 690 758 522.353515625 696.108398438 c 0,12,13
 433 663 433 663 375.150390625 591.587890625 c 0,14,15
 347 556 347 556 347.681640625 538.639648438 c 0,16,17
 349 516 349 516 462.642578125 436.571289062 c 0,18,19
 508 405 508 405 529.0078125 391.546875 c 0,20,21
 548 379 548 379 572.213867188 382.336914062 c 0,22,23
 655.070415117 393.842982394 655.070415117 393.842982394 853.33984375 436.72265625 c 2,24,-1
 997.383789062 467.875 l 2,25,26
 1059 481 1059 481 1061.21875 444.331054688 c 0,27,28
 1062 428 1062 428 1055.98730469 419.233398438 c 1,29,-1
 964.564453125 170.637695312 l 1,30,31
 494 0 494 0 66.63671875 0 c 2,32,-1
 -5.2685546875 0 l 6,33,34
 -85.2783203125 0 -85.2783203125 0 -85.2783203125 112.759765625 c 2,35,-1
 -85.2783203125 219.185546875 l 2,36,37
 -85 332 -85 332 -5.2685546875 333.000976562 c 6,0,-1
EndSplineSet
EndChar

StartChar: uniFECC
Encoding: 65228 65228 211
Width: 1150
VWidth: 3804
GlyphClass: 2
Flags: W
AnchorPoint: "Anchor-10" 582.129 1294.06 basechar 0
AnchorPoint: "Anchor-7" 539.772 -270.976 basechar 0
LayerCount: 2
Fore
SplineSet
-5.2685546875 333.000976562 m 2,0,-1
 66.5078125 333.000976562 l 2,1,2
 453 333 453 333 550.486328125 419.77734375 c 1,3,4
 459 556 459 556 235.552734375 583.2421875 c 1,5,-1
 235.426757812 734.365234375 l 1,6,7
 338 803 338 803 644.125 803.513671875 c 0,8,9
 927 804 927 804 929.245117188 647.3359375 c 0,10,11
 931 541 931 541 791.78125 405.760742188 c 1,12,13
 880.998802546 333.000976562 880.998802546 333.000976562 1134.51074219 333.000976562 c 2,14,-1
 1155.33984375 333.000976562 l 2,15,16
 1193.09960938 332.999997417 1193.09960938 332.999997417 1193.09960938 161.186523438 c 6,17,-1
 1193.09960938 153.779296875 l 6,18,19
 1193 0 1193 0 1155.33984375 0 c 2,20,-1
 1050.63867188 0 l 2,21,22
 796 0 796 0 645.85546875 167.034179688 c 1,23,24
 449 0 449 0 170.962890625 0 c 2,25,-1
 -5.2685546875 0 l 2,26,27
 -85.2783203125 0 -85.2783203125 0 -85.2783203125 112.759765625 c 2,28,-1
 -85.2783203125 219.185546875 l 2,29,30
 -85 333 -85 333 -5.2685546875 333.000976562 c 2,0,-1
EndSplineSet
EndChar

StartChar: uniFEDA
Encoding: 65242 65242 225
Width: 2049
VWidth: 3767
GlyphClass: 2
Flags: W
AnchorPoint: "Anchor-7" 636.689 -308.45 basechar 0
AnchorPoint: "Anchor-10" 781.844 1623.95 basechar 0
LayerCount: 2
Fore
SplineSet
1188.69921875 989.096679688 m 0,0,1
 1204 958 1204 958 1208.41099841 918 c 0,2,3
 1215 859 1215 859 1200 808 c 0,4,5
 1177 727 1177 727 1079 679.175844301 c 0,6,7
 958 620 958 620 755.21875 664.365234375 c 0,8,9
 720 672 720 672 672.45703125 687.686523438 c 1,10,-1
 690.048828125 867.874023438 l 1,11,-1
 712.932617188 859.721679688 l 2,12,13
 819 822 819 822 948.2265625 823.46484375 c 0,14,15
 1078 825 1078 825 1086.453125 880.211914062 c 0,16,17
 1088 890 1088 890 1062.31152344 906.52734375 c 0,18,19
 1037 924 1037 924 962.41015625 939.788085938 c 0,20,21
 771 981 771 981 776.500976562 1167.20214844 c 0,22,23
 781 1333 781 1333 1000.48925781 1390.05761719 c 0,24,25
 1074 1409 1074 1409 1147 1409.54980469 c 0,26,27
 1194 1410 1194 1410 1194 1398 c 0,28,29
 1194 1395.85709332 1194 1395.85709332 1178.55175781 1351.64550781 c 2,30,-1
 1137.58203125 1234.39355469 l 1,31,32
 952 1217 952 1217 905.063476562 1173.33398438 c 0,33,34
 881 1151 881 1151 897.328125 1138.85351562 c 0,35,36
 933 1111 933 1111 1010.35644531 1097.55859375 c 0,37,38
 1088 1084 1088 1084 1127.59375 1057.76464844 c 0,39,40
 1168 1031 1168 1031 1188.69921875 989.096679688 c 0,0,1
1810.64355469 634.616210938 m 2,41,42
 1810.64355469 405.219391172 1810.64355469 405.219391172 1891.5703125 355.409179688 c 0,43,44
 1927.99841244 333.000976562 1927.99841244 333.000976562 2010.21777344 333.000976562 c 2,45,-1
 2054.23046875 333.000976562 l 2,46,47
 2091.99121094 333.000000227 2091.99121094 333.000000227 2091.99121094 161.186523438 c 6,48,-1
 2091.99121094 153.779296875 l 6,49,50
 2092 0 2092 0 2054.23046875 0 c 2,51,-1
 2010.65039062 0 l 2,52,53
 1784 0 1784 0 1701.81347656 176.3671875 c 1,54,55
 1444 -87 1444 -87 792.51171875 -86.833984375 c 0,56,57
 84 -86 84 -86 87.4287109375 419.53515625 c 0,58,59
 89 602 89 602 203.01171875 774.547851562 c 1,60,-1
 293.727539062 737.8359375 l 1,61,62
 240 605 240 605 239.57421875 530.038085938 c 0,63,64
 238 244 238 244 818.124023438 244.518554688 c 0,65,66
 1367 245 1367 245 1555.40917969 388.91796875 c 24,67,68
 1627 444 1627 444 1627.953125 540.515625 c 0,69,70
 1629 677 1629 677 1608.09863281 914.698242188 c 0,71,72
 1586 1166 1586 1166 1551.1015625 1334.32519531 c 1,73,-1
 1741.11914062 1557.45117188 l 2,74,75
 1784 1608 1784 1608 1799 1602 c 0,76,77
 1810.64355469 1598.1188151 1810.64355469 1598.1188151 1810.64355469 1533.48046875 c 2,78,-1
 1810.64355469 634.616210938 l 2,41,42
EndSplineSet
EndChar

StartChar: uniFEDB
Encoding: 65243 65243 226
Width: 934
VWidth: 3808
GlyphClass: 2
Flags: W
AnchorPoint: "Anchor-7" 340.972 -280.152 basechar 0
LayerCount: 2
Fore
SplineSet
-5.2685546875 333.000976562 m 6,0,-1
 98.2705078125 333.000976562 l 2,1,2
 377 333 377 333 479.80078125 418.590820312 c 0,3,4
 517 450 517 450 517.384765625 480.21484375 c 0,5,6
 517 523 517 523 300.890625 721.491210938 c 0,7,8
 82 922 82 922 -4.6298828125 1000.18652344 c 0,9,10
 -44 1036 -44 1036 -33.6533203125 1076.06445312 c 0,11,12
 -27 1101 -27 1101 25.93359375 1264.27148438 c 0,13,14
 36.1570374988 1295.47936961 36.1570374988 1295.47936961 54.53125 1303.33886719 c 2,15,-1
 848.30859375 1642.87402344 l 2,16,17
 887.564018074 1659.8118833 887.564018074 1659.8118833 882.030273438 1616.52929688 c 2,18,-1
 852.524414062 1385.74707031 l 1,19,-1
 241.748046875 1125.20507812 l 1,20,21
 685 755 685 755 684.908203125 454.116210938 c 0,22,23
 685 0 685 0 98.25 0 c 2,24,-1
 -5.2685546875 0 l 6,25,26
 -85.2783203125 0 -85.2783203125 0 -85.2783203125 112.759765625 c 2,27,-1
 -85.2783203125 219.185546875 l 2,28,29
 -85 333 -85 333 -5.2685546875 333.000976562 c 6,0,-1
EndSplineSet
EndChar

StartChar: uniFEDC
Encoding: 65244 65244 227
Width: 1232
VWidth: 3808
GlyphClass: 2
Flags: W
AnchorPoint: "Anchor-10" 259.4 1687.83 basechar 0
AnchorPoint: "Anchor-7" 340.972 -280.152 basechar 0
LayerCount: 2
Fore
SplineSet
1237.53613281 0 m 2,0,-1
 1215.03125 0 l 2,1,2
 893 0 893 0 671.270507812 326.126953125 c 1,3,4
 595 0 595 0 98.25 0 c 2,5,-1
 -5.2685546875 0 l 2,6,7
 -85.2783203125 0 -85.2783203125 0 -85.2783203125 112.759765625 c 2,8,-1
 -85.2783203125 219.185546875 l 2,9,10
 -84.9999976119 333.000976562 -84.9999976119 333.000976562 -5.2685546875 333.000976562 c 2,11,-1
 98.2705078125 333.000976562 l 2,12,13
 377 333 377 333 479.80078125 418.590820312 c 0,14,15
 517 450 517 450 517.384765625 480.21484375 c 0,16,17
 517 523 517 523 301.944335938 721.491210938 c 0,18,19
 154 858 154 858 -3.576171875 1000.18652344 c 0,20,21
 -43 1036 -43 1036 -32.599609375 1076.06445312 c 0,22,23
 -26 1101 -26 1101 26.9873046875 1264.27148438 c 0,24,25
 37.1473690431 1295.45226902 37.1473690431 1295.45226902 55.5849609375 1303.33886719 c 2,26,-1
 849.36328125 1642.87402344 l 2,27,28
 888.620834435 1659.8361726 888.620834435 1659.8361726 883.083984375 1616.52929688 c 2,29,-1
 853.578125 1385.74707031 l 1,30,-1
 242.801757812 1125.20507812 l 1,31,32
 548 835 548 835 790.349609375 574.142578125 c 0,33,34
 1014.99909023 333.000976562 1014.99909023 333.000976562 1214.59960938 333.000976562 c 2,35,-1
 1237.53613281 333.000976562 l 2,36,37
 1277.32714844 332.999991904 1277.32714844 332.999991904 1277.32714844 217.083007812 c 2,38,-1
 1277.32714844 113.83203125 l 2,39,40
 1277 0 1277 0 1237.53613281 0 c 2,0,-1
EndSplineSet
EndChar

StartChar: uniFEDE
Encoding: 65246 65246 229
Width: 1500
VWidth: 3808
GlyphClass: 2
Flags: W
AnchorPoint: "Anchor-10" 589.02 1430.97 basechar 0
AnchorPoint: "Anchor-7" 446.8 -802.287 basechar 0
LayerCount: 2
Fore
SplineSet
638.947265625 -287.706054688 m 0,0,1
 969 -286 969 -286 1114.31445312 -58.9560546875 c 1,2,3
 1052 1022 1052 1022 993.724609375 1335.0625 c 1,4,-1
 1188.21777344 1569.17675781 l 2,5,6
 1218 1605 1218 1605 1232 1602 c 0,7,8
 1245.51116319 1598.88203926 1245.51116319 1598.88203926 1257.59472656 1545.0078125 c 2,9,-1
 1311.06933594 1306.59277344 l 1,10,11
 1333.00662436 1226.97595828 1333.00662436 1226.97595828 1290.39550781 1190.22851562 c 2,12,-1
 1242.91894531 1149.28515625 l 1,13,-1
 1253.875 510 l 2,14,15
 1256.99998276 333.000976562 1256.99998276 333.000976562 1482.26464844 333.000976562 c 2,16,-1
 1505.20117188 333.000976562 l 2,17,18
 1544.9921875 333.000000192 1544.9921875 333.000000192 1544.9921875 217.083007812 c 6,19,-1
 1544.9921875 113.83203125 l 6,20,21
 1545 0 1545 0 1505.20117188 0 c 2,22,-1
 1482.69628906 0 l 2,23,24
 1329 0 1329 0 1259.97558594 62.515625 c 1,25,-1
 1262.29101562 -33.7607421875 l 2,26,27
 1268 -263 1268 -263 1126.42480469 -414.612304688 c 0,28,29
 956 -599 956 -599 627.6953125 -599.545898438 c 0,30,31
 363 -600 363 -600 231 -490.336914062 c 0,32,33
 100 -382 100 -382 98.185546875 -165 c 0,34,35
 97 13 97 13 205.07421875 260.80859375 c 1,36,-1
 295 223 l 1,37,38
 259 132 259 132 246.127929688 53 c 0,39,40
 232 -32 232 -32 249 -89.58984375 c 0,41,42
 308 -290 308 -290 638.947265625 -287.706054688 c 0,0,1
EndSplineSet
EndChar

StartChar: uniFEDF
Encoding: 65247 65247 230
Width: 586
VWidth: 3767
GlyphClass: 2
Flags: W
AnchorPoint: "Anchor-10" 242.995 1756.19 basechar 0
AnchorPoint: "Anchor-7" 197.065 -269.31 basechar 0
LayerCount: 2
Fore
SplineSet
-8.2685546875 333.000976562 m 2,0,-1
 16.07421875 333.000976562 l 2,1,2
 188 333 188 333 245.055664062 413.91796875 c 0,3,4
 277 460 277 460 266.509765625 584.116210938 c 0,5,6
 227 1049 227 1049 167.696289062 1339.671875 c 1,7,-1
 371.411132812 1575.98925781 l 2,8,9
 402 1612 402 1612 416 1602 c 0,10,11
 428.567878051 1594.2659212 428.567878051 1594.2659212 438.27734375 1547.96386719 c 2,12,-1
 486.33984375 1318.765625 l 2,13,14
 504.054611242 1231.73169102 504.054611242 1231.73169102 462.870117188 1191.30664062 c 2,15,-1
 424.157226562 1153.30761719 l 1,16,-1
 456.135742188 568.751953125 l 2,17,18
 470 320 470 320 403.893554688 188.418945312 c 0,19,20
 311 0 311 0 16.0537109375 0 c 2,21,-1
 -8.2685546875 0 l 2,22,23
 -85.2783203125 0 -85.2783203125 0 -85.2783203125 112.759765625 c 2,24,-1
 -85.2783203125 219.185546875 l 2,25,26
 -85 333 -85 333 -8.2685546875 333.000976562 c 2,0,-1
EndSplineSet
EndChar

StartChar: uniFEE0
Encoding: 65248 65248 231
Width: 677
VWidth: 3767
GlyphClass: 2
Flags: W
AnchorPoint: "Anchor-7" 239.218 -269.31 basechar 0
AnchorPoint: "Anchor-10" 283.197 1702.91 basechar 0
LayerCount: 2
Fore
SplineSet
682.18359375 0 m 2,0,-1
 640.709960938 0 l 2,1,2
 445 0 445 0 347.984375 136.4921875 c 1,3,4
 234 0 234 0 65.5830078125 0 c 2,5,-1
 -5.2685546875 0 l 2,6,7
 -85.2783203125 0 -85.2783203125 0 -85.2783203125 112.759765625 c 2,8,-1
 -85.2783203125 219.185546875 l 2,9,10
 -84.9999976119 333.000976562 -84.9999976119 333.000976562 -5.2685546875 333.000976562 c 2,11,-1
 65.603515625 333.000976562 l 2,12,13
 167 333 167 333 219.198242188 384.440429688 c 0,14,15
 273 438 273 438 268.345703125 560.814453125 c 0,16,17
 243 1178 243 1178 191.137695312 1373.27636719 c 1,18,-1
 383.067382812 1565.96875 l 2,19,20
 429 1612 429 1612 442 1599 c 0,21,22
 451.875976562 1589.12402344 451.875976562 1589.12402344 451.875976562 1524.02832031 c 2,23,-1
 451.875976562 539.896484375 l 2,24,25
 452 372 452 372 536.592773438 345.404296875 c 0,26,27
 575.996897559 333.000976562 575.996897559 333.000976562 640.278320312 333.000976562 c 2,28,-1
 682.18359375 333.000976562 l 2,29,30
 721.974609375 333.000000623 721.974609375 333.000000623 721.974609375 217.083007812 c 6,31,-1
 721.974609375 113.83203125 l 6,32,33
 722 0 722 0 682.18359375 0 c 2,0,-1
EndSplineSet
EndChar

StartChar: uniFEE2
Encoding: 65250 65250 233
Width: 1259
VWidth: 3845
GlyphClass: 2
Flags: W
AnchorPoint: "Anchor-10" 588.962 1209.77 basechar 0
AnchorPoint: "Anchor-7" 214.624 -829.684 basechar 0
LayerCount: 2
Fore
SplineSet
1263.88085938 0 m 2,0,-1
 1251.9140625 0 l 2,1,2
 1131 0 1131 0 1036.6015625 77.0703125 c 1,3,4
 974 -220 974 -220 772.655273438 -217.49609375 c 0,5,6
 500 -214 500 -214 499.022460938 154.036132812 c 0,7,8
 499 263 499 263 498.948242188 265.713867188 c 1,9,10
 317 208 317 208 262.345703125 117.353515625 c 1,11,-1
 298.705078125 -370.329101562 l 2,12,13
 312 -553 312 -553 144.9375 -737.555664062 c 0,14,15
 113.62241894 -772.420380732 113.62241894 -772.420380732 111.807617188 -715.552734375 c 2,16,-1
 96.189453125 -226.150390625 l 2,17,18
 89 -9 89 -9 104.176757812 131.573242188 c 0,19,20
 119 274 119 274 237.759765625 395.71484375 c 0,21,22
 355 516 355 516 530.018554688 536.462890625 c 1,23,24
 567 708 567 708 581.564453125 709.704101562 c 0,25,26
 593.002742094 711.000310739 593.002742094 711.000310739 623.651367188 687.978515625 c 2,27,-1
 886.087890625 490.848632812 l 2,28,29
 1095.99870134 333.000976562 1095.99870134 333.000976562 1251.48242188 333.000976562 c 2,30,-1
 1263.88085938 333.000976562 l 2,31,32
 1303.671875 333.000007987 1303.671875 333.000007987 1303.671875 217.083007812 c 6,33,-1
 1303.671875 113.83203125 l 6,34,35
 1304 0 1304 0 1263.88085938 0 c 2,0,-1
643.48046875 335.067382812 m 1,36,37
 636.495117188 248.697265625 636.495117188 248.697265625 639.73046875 193.024414062 c 0,38,39
 643.872070312 118.025390625 643.872070312 118.025390625 680.7421875 78.291015625 c 0,40,41
 718.69140625 37.9365234375 718.69140625 37.9365234375 787.231445312 37.9619140625 c 0,42,43
 850.416992188 37.9365234375 850.416992188 37.9365234375 879.9609375 100.41015625 c 0,44,45
 899.9453125 142.262695312 899.9453125 142.262695312 799.84765625 217.278320312 c 0,46,47
 649.140625 329.83984375 649.140625 329.83984375 643.48046875 335.067382812 c 1,36,37
EndSplineSet
EndChar

StartChar: uniFEE3
Encoding: 65251 65251 234
Width: 1040
VWidth: 3811
GlyphClass: 2
Flags: W
AnchorPoint: "Anchor-10" 521.63 1207.34 basechar 0
AnchorPoint: "Anchor-7" 517.657 -279.266 basechar 0
LayerCount: 2
Fore
SplineSet
-5.2685546875 333.000976562 m 6,0,-1
 31.564453125 333.000976562 l 2,1,2
 232 333 232 333 301.734375 453.133789062 c 0,3,4
 385 594 385 594 459.672851562 695.140625 c 0,5,6
 534 796 534 796 638.84375 803.994140625 c 0,7,8
 743 812 743 812 818.331054688 734.30859375 c 0,9,10
 931 620 931 620 945.35546875 441.084960938 c 0,11,12
 966 195 966 195 832.303710938 78.447265625 c 0,13,14
 724 -15 724 -15 560.720703125 46.37109375 c 0,15,16
 463 83 463 83 344.427734375 159.58984375 c 1,17,18
 238 0 238 0 23.5732421875 0 c 2,19,-1
 -5.2685546875 0 l 6,20,21
 -85.2783203125 0 -85.2783203125 0 -85.2783203125 112.759765625 c 6,22,-1
 -85.2783203125 219.185546875 l 6,23,24
 -85 333 -85 333 -5.2685546875 333.000976562 c 6,0,-1
459.40625 438.252929688 m 1,25,26
 725.014648438 273.98828125 725.014648438 273.98828125 791.162109375 350.948242188 c 0,27,28
 820.91015625 384.63671875 820.91015625 384.63671875 772.6328125 449.21484375 c 0,29,30
 660.868164062 596.608398438 660.868164062 596.608398438 545.228515625 525.973632812 c 0,31,32
 499.500976562 498.447265625 499.500976562 498.447265625 459.40625 438.252929688 c 1,25,26
EndSplineSet
EndChar

StartChar: uniFEE4
Encoding: 65252 65252 235
Width: 1184
VWidth: 3811
GlyphClass: 2
Flags: W
AnchorPoint: "Anchor-10" 521.63 1186.26 basechar 0
AnchorPoint: "Anchor-7" 522.478 -277.457 basechar 0
LayerCount: 2
Fore
SplineSet
1189.06054688 0 m 2,0,-1
 1168.6640625 0 l 2,1,2
 1040 0 1040 0 918.131835938 90.2216796875 c 1,3,4
 880 25 880 25 843.874023438 -7.408203125 c 0,5,6
 710 -127 710 -127 482.749023438 -6.177734375 c 0,7,8
 426 24 426 24 347.157226562 72.90625 c 1,9,10
 224 0 224 0 44.6494140625 0 c 2,11,-1
 -5.2685546875 0 l 2,12,13
 -85.2783203125 0 -85.2783203125 0 -85.2783203125 112.759765625 c 2,14,-1
 -85.2783203125 219.185546875 l 2,15,16
 -84.9999976119 333.000976562 -84.9999976119 333.000976562 -5.2685546875 333.000976562 c 2,17,-1
 42.1025390625 333.000976562 l 2,18,19
 182 333 182 333 254.166015625 347.928710938 c 0,20,21
 308 359 308 359 327.552734375 394.197265625 c 0,22,23
 399 524 399 524 441.029296875 581.813476562 c 0,24,25
 534 711 534 711 675.056640625 684.96875 c 0,26,27
 744 672 744 672 800.752929688 612.338867188 c 0,28,29
 853 558 853 558 942.263671875 393.163085938 c 0,30,31
 974.999468627 333.000976562 974.999468627 333.000976562 1168.23242188 333.000976562 c 2,32,-1
 1189.06054688 333.000976562 l 2,33,34
 1228.8515625 333.000003629 1228.8515625 333.000003629 1228.8515625 217.083007812 c 6,35,-1
 1228.8515625 113.83203125 l 6,36,37
 1229 0 1229 0 1189.06054688 0 c 2,0,-1
462.552734375 342.407226562 m 1,38,39
 732.390625 186.522460938 732.390625 186.522460938 797.432617188 264.196289062 c 0,40,41
 820.91015625 291.90234375 820.91015625 291.90234375 769.528320312 356.954101562 c 0,42,43
 714.4765625 426.7890625 714.4765625 426.7890625 659.75 440.666015625 c 0,44,45
 543.760742188 471.048828125 543.760742188 471.048828125 462.552734375 342.407226562 c 1,38,39
EndSplineSet
EndChar

StartChar: uniFEEA
Encoding: 65258 65258 241
Width: 1041
VWidth: 3794
GlyphClass: 2
Flags: W
AnchorPoint: "Anchor-10" 564.442 1432.27 basechar 0
AnchorPoint: "Anchor-7" 357.65 -206.189 basechar 0
LayerCount: 2
Fore
SplineSet
1042.58300781 0 m 2,0,-1
 1022.18554688 0 l 2,1,2
 786 0 786 0 696.490234375 232.572265625 c 1,3,-1
 555.506835938 147.796875 l 1,4,5
 433 143 433 143 313.626953125 158.6875 c 0,6,7
 189 175 189 175 146.604492188 198.915039062 c 0,8,9
 102 225 102 225 95.33203125 271.298828125 c 0,10,11
 70 455 70 455 142.53125 591.12890625 c 0,12,13
 218 734 218 734 555.766601562 892.10546875 c 1,14,-1
 526.924804688 1016.4375 l 1,15,-1
 643 1146 l 2,16,17
 685.67010205 1193.63174182 685.67010205 1193.63174182 699 1132 c 2,18,-1
 837.389648438 492.145507812 l 2,19,20
 871.999787621 333.000976562 871.999787621 333.000976562 1021.75390625 333.000976562 c 2,21,-1
 1042.58300781 333.000976562 l 2,22,23
 1082.37402344 332.999990734 1082.37402344 332.999990734 1082.37402344 217.083007812 c 6,24,-1
 1082.37402344 113.83203125 l 6,25,26
 1082 0 1082 0 1042.58300781 0 c 2,0,-1
594.981445312 714.978515625 m 1,27,28
 358 639 358 639 288.423828125 567.80859375 c 0,29,30
 237 515 237 515 267.482421875 486.298828125 c 0,31,32
 307 449 307 449 523 446.792120171 c 0,33,34
 594 446 594 446 653.788085938 449.3046875 c 1,35,-1
 594.981445312 714.978515625 l 1,27,28
EndSplineSet
EndChar

StartChar: uniFEEB
Encoding: 65259 65259 242
Width: 1211
VWidth: 3802
GlyphClass: 2
Flags: W
AnchorPoint: "Anchor-10" 478.665 1520.76 basechar 0
AnchorPoint: "Anchor-7" 526.996 -230.546 basechar 0
LayerCount: 2
Fore
SplineSet
-5.2685546875 333.000976562 m 2,0,-1
 248.696289062 333.000976562 l 5,1,2
 111 412 111 412 148.016601562 596.173828125 c 0,3,4
 177 744 177 744 333.439453125 854.821289062 c 1,5,-1
 232.091796875 889.74609375 l 1,6,-1
 306.48046875 1149.640625 l 1,7,-1
 697.993164062 973.051757812 l 2,8,9
 1151 769 1151 769 1117.04101562 439.495117188 c 0,10,11
 1110 372 1110 372 1091.73632812 297.698242188 c 0,12,13
 1075 227 1075 227 1017.44433594 142.790039062 c 0,14,15
 965 66 965 66 866 68.7822265625 c 0,16,17
 727 72 727 72 512.28515625 144.4375 c 1,18,19
 240 0 240 0 48.7255859375 0 c 2,20,-1
 -5.2685546875 0 l 2,21,22
 -85.2783203125 0 -85.2783203125 0 -85.2783203125 112.759765625 c 2,23,-1
 -85.2783203125 219.185546875 l 2,24,25
 -85 333 -85 333 -5.2685546875 333.000976562 c 2,0,-1
778.618164062 638.72265625 m 1,26,27
 779.811523438 531.115234375 779.811523438 531.115234375 666.956054688 400.130859375 c 1,28,29
 834.609375 347.75390625 834.609375 347.75390625 932.780273438 346.717773438 c 1,30,31
 951.901367188 382.200195312 951.901367188 382.200195312 965.579101562 428.896484375 c 0,32,33
 977.926757812 471.048828125 977.926757812 471.048828125 965.274414062 506.16796875 c 0,34,35
 944.205078125 561.67578125 944.205078125 561.67578125 778.618164062 638.72265625 c 1,26,27
507.877929688 456.600585938 m 1,36,37
 581.697265625 495.286132812 581.697265625 495.286132812 612.69921875 582.846679688 c 0,38,39
 656.517578125 707.099609375 656.517578125 707.099609375 533.430664062 743.212890625 c 0,40,41
 405.647460938 781.00390625 405.647460938 781.00390625 324.623046875 659.67578125 c 0,42,43
 295.064453125 615.418945312 295.064453125 615.418945312 298.751953125 573.793945312 c 0,44,45
 305.645507812 494.364257812 305.645507812 494.364257812 507.877929688 456.600585938 c 1,36,37
EndSplineSet
EndChar

StartChar: uniFEEC
Encoding: 65260 65260 243
Width: 1217
VWidth: 3830
GlyphClass: 2
Flags: W
AnchorPoint: "Anchor-7" 400.112 -740.742 basechar 0
AnchorPoint: "Anchor-10" 526.042 1434.94 basechar 0
LayerCount: 2
Fore
SplineSet
1221.72851562 0 m 2,0,-1
 1189.74023438 0 l 2,1,2
 915 0 915 0 838.583984375 -78.8447265625 c 0,3,4
 755 -166 755 -166 847.057617188 -467.596679688 c 1,5,-1
 671.975585938 -618.686523438 l 1,6,7
 328 -374 328 -374 266.635742188 0 c 1,8,-1
 -5.2685546875 0 l 2,9,10
 -85.2783203125 0 -85.2783203125 0 -85.2783203125 112.759765625 c 2,11,-1
 -85.2783203125 219.185546875 l 2,12,13
 -84.9999976119 333.000976562 -84.9999976119 333.000976562 -5.2685546875 333.000976562 c 2,14,-1
 257.953125 333.000976562 l 1,15,16
 295 704 295 704 504.958984375 973.350585938 c 0,17,18
 560 1044 560 1044 634.404296875 987.135742188 c 0,19,20
 712 926 712 926 762.450195312 855.939453125 c 0,21,22
 869 706 869 706 861.873046875 481.676757812 c 0,23,24
 856 297 856 297 722.635742188 161.680664062 c 0,25,26
 588 25 588 25 406.254882812 1.6904296875 c 1,27,28
 444 -106 444 -106 613.060546875 -262.623046875 c 1,29,30
 717.000170415 333.000976562 717.000170415 333.000976562 1189.30761719 333.000976562 c 2,31,-1
 1221.72851562 333.000976562 l 2,32,33
 1261.51953125 333.000011651 1261.51953125 333.000011651 1261.51953125 217.083007812 c 6,34,-1
 1261.51953125 113.83203125 l 6,35,36
 1262 0 1262 0 1221.72851562 0 c 2,0,-1
392.234375 333.666992188 m 1,37,38
 694.972128994 344.961651783 694.972128994 344.961651783 711.813476562 461.202148438 c 0,39,40
 718 506 718 506 548.587890625 675.669921875 c 1,41,42
 415 457 415 457 392.234375 333.666992188 c 1,37,38
EndSplineSet
EndChar

StartChar: uniFEEE
Encoding: 65262 65262 245
Width: 874
VWidth: 3836
GlyphClass: 2
Flags: W
AnchorPoint: "Anchor-10" 413.012 1204.25 basechar 0
AnchorPoint: "Anchor-7" 331.373 -795.689 basechar 0
LayerCount: 2
Fore
SplineSet
879.244140625 0 m 2,0,-1
 743.982421875 0 l 0,1,2
 682 -327 682 -327 552.25390625 -480.431640625 c 0,3,4
 512 -528 512 -528 479.478515625 -544.814453125 c 0,5,6
 385 -592 385 -592 136.118164062 -554.99609375 c 0,7,8
 4 -535 4 -535 -21.1181640625 -507.399414062 c 0,9,10
 -35 -493 -35 -493 -30.033203125 -482.640625 c 0,11,12
 -26 -474 -26 -474 16.791015625 -460.004882812 c 0,13,14
 400 -333 400 -333 589.130859375 -4.919921875 c 0,15,-1
 476.962890625 -5.8876953125 l 2,16,17
 152 -9 152 -9 161.586914062 247.998046875 c 0,18,19
 167 400 167 400 228.02734375 553.854492188 c 0,20,21
 302 739 302 739 449.770507812 738.250976562 c 0,22,23
 557 738 557 738 633.333984375 642.818359375 c 0,24,25
 729 526 729 526 747.065429688 333.000976562 c 1,26,-1
 879.244140625 333.000976562 l 2,27,28
 919.03515625 332.999999136 919.03515625 332.999999136 919.03515625 217.083007812 c 6,29,-1
 919.03515625 113.83203125 l 6,30,31
 919 0 919 0 879.244140625 0 c 2,0,-1
282.872070312 369.28515625 m 0,32,33
 280 320 280 320 482.48828125 319.764648438 c 0,34,35
 556 320 556 320 603.5859375 321.8203125 c 1,36,37
 534 477 534 477 421.65234375 478.62109375 c 0,38,39
 332 480 332 480 287.874023438 392.615234375 c 0,40,41
 283 383 283 383 282.872070312 369.28515625 c 0,32,33
EndSplineSet
EndChar

StartChar: uniFEF0
Encoding: 65264 65264 247
Width: 1518
VWidth: 3808
GlyphClass: 2
Flags: W
AnchorPoint: "Anchor-7" 446.8 -854.978 basechar 0
AnchorPoint: "Anchor-10" 612.794 815.133 basechar 0
LayerCount: 2
Fore
SplineSet
1523.11523438 -0 m 2,0,-1
 1483.75 0 l 2,1,2
 1350 0 1350 0 1067.52148438 88.9609375 c 0,3,4
 1042 97 1042 97 1024.17578125 62.4306640625 c 0,5,6
 990 -8 990 -8 988.512695312 -18.1064453125 c 1,7,-1
 1272.89257812 -55.59375 l 2,8,9
 1371 -69 1371 -69 1392.48828125 -138.930664062 c 0,10,11
 1402 -169 1402 -169 1401.16210938 -198 c 0,12,13
 1400 -304 1400 -304 1346 -388.0390625 c 0,14,15
 1164 -672 1164 -672 685.452148438 -673.817382812 c 0,16,17
 101 -675 101 -675 95.869140625 -195.134765625 c 0,18,19
 94 2 94 2 207.275390625 222.25390625 c 1,20,-1
 297.133789062 184.474609375 l 1,21,22
 246 43 246 43 245.509765625 -80.400390625 c 0,23,24
 246 -367 246 -367 710.647460938 -365.87109375 c 0,25,26
 1046 -365 1046 -365 1228 -234.609602431 c 0,27,28
 1261.11842777 -210.91527174 1261.11842777 -210.91527174 1218.98632812 -206.59765625 c 2,29,-1
 1004.52539062 -184.620117188 l 2,30,31
 871 -171 871 -171 852.482421875 -106.443359375 c 0,32,33
 839 -59 839 -59 865.466796875 18.470703125 c 0,34,35
 976.000343188 333.000976562 976.000343188 333.000976562 1279.61914062 333.000976562 c 2,36,-1
 1523.11523438 333.000976562 l 2,37,38
 1562.90625 333.000002295 1562.90625 333.000002295 1562.90625 217.083007812 c 6,39,-1
 1562.90625 113.83203125 l 6,40,41
 1563 0 1563 0 1523.11523438 -0 c 2,0,-1
EndSplineSet
EndChar

StartChar: uniFEFB
Encoding: 65275 65275 258
Width: 1264
VWidth: 3767
GlyphClass: 3
Flags: W
AnchorPoint: "Anchor-9" 183.001 1694.24 baselig 1
AnchorPoint: "Anchor-6" 316.398 -243.901 baselig 1
AnchorPoint: "Anchor-6" 1000.99 -196.011 baselig 0
AnchorPoint: "Anchor-9" 1014.82 1749.9 baselig 0
LayerCount: 2
Fore
SplineSet
877.696289062 1339.671875 m 5,0,-1
 1081.41113281 1575.98925781 l 6,1,2
 1112 1612 1112 1612 1126 1602 c 4,3,4
 1138.56787805 1594.2659212 1138.56787805 1594.2659212 1148.27734375 1547.96386719 c 6,5,-1
 1196.33984375 1318.765625 l 6,6,7
 1214.05461124 1231.73169103 1214.05461124 1231.73169103 1172.87011719 1191.30664062 c 6,8,-1
 1134.15722656 1153.30761719 l 5,9,-1
 1154.90136719 643.822265625 l 2,10,11
 1167 341 1167 341 941.443359375 159.114257812 c 0,12,13
 749 5 749 5 377.258789062 3.158203125 c 0,14,15
 342 3 342 3 294.474609375 24.8642578125 c 0,16,17
 157 87 157 87 99.1376953125 120.216796875 c 0,18,19
 61 142 61 142 81.6044921875 170.061523438 c 0,20,21
 89 180 89 180 135.463867188 190.825195312 c 0,22,23
 625 300 625 300 695.336914062 335.916992188 c 1,24,25
 567 741 567 741 110.66796875 1262.33203125 c 1,26,-1
 255.206054688 1518.4921875 l 1,27,-1
 273.17578125 1494.05175781 l 2,28,29
 716 892 716 892 837.071289062 414.025390625 c 1,30,31
 964 478 964 478 974.557617188 565.119140625 c 0,32,33
 984 643 984 643 945.431640625 930.336914062 c 0,34,35
 918 1135 918 1135 877.696289062 1339.671875 c 5,0,-1
EndSplineSet
LCarets2: 1 0
Ligature2: "'rlig' Required Ligatures in Arabic lookup 16 subtable" uniFEDF uniFE8E
EndChar

StartChar: uniFEFC
Encoding: 65276 65276 259
Width: 1386
VWidth: 3767
GlyphClass: 3
Flags: W
AnchorPoint: "Anchor-9" 1014.82 1697.21 baselig 0
AnchorPoint: "Anchor-6" 1000.99 -196.011 baselig 0
AnchorPoint: "Anchor-6" 316.398 -243.901 baselig 1
AnchorPoint: "Anchor-9" 183.001 1694.24 baselig 1
LayerCount: 2
Fore
SplineSet
877.696289062 1339.671875 m 1,0,-1
 1081.41113281 1575.98925781 l 2,1,2
 1112 1612 1112 1612 1126 1602 c 0,3,4
 1138.56787805 1594.2659212 1138.56787805 1594.2659212 1148.27734375 1547.96386719 c 2,5,-1
 1196.33984375 1318.765625 l 2,6,7
 1214.05461124 1231.73169101 1214.05461124 1231.73169101 1172.87011719 1191.30664062 c 2,8,-1
 1134.15722656 1153.30761719 l 1,9,-1
 1159.86425781 535.751953125 l 2,10,11
 1164 432 1164 432 1218.19238281 382.529296875 c 0,12,13
 1271.99893908 333.000976562 1271.99893908 333.000976562 1351.59277344 333.000976562 c 2,14,-1
 1391.390625 333.000976562 l 2,15,16
 1429.15039062 332.999996095 1429.15039062 332.999996095 1429.15039062 161.186523438 c 6,17,-1
 1429.15039062 153.810546875 l 6,18,19
 1429 0 1429 0 1391.390625 0 c 2,20,-1
 1352.02539062 0 l 2,21,22
 1183 0 1183 0 1094.37109375 95.369140625 c 0,23,24
 1005 191 1005 191 993.606445312 360.99609375 c 1,25,26
 768 28 768 28 405.967773438 4.861328125 c 0,27,28
 345.949811466 0.996768357635 345.949811466 0.996768357635 304.9375 20.1943359375 c 2,29,-1
 142.831054688 96.0751953125 l 2,30,31
 73 129 73 129 76.51953125 155.961914062 c 128,-1,32
 80 183 80 183 145.553710938 190.782226562 c 0,33,34
 352 215 352 215 676.004882812 406.390625 c 1,35,36
 574 710 574 710 111.91796875 1263.67675781 c 1,37,-1
 255.243164062 1518.69824219 l 1,38,-1
 273.231445312 1493.97558594 l 2,39,40
 710 894 710 894 813.953125 495.395507812 c 1,41,42
 971 617 971 617 966.05859375 691.658203125 c 0,43,44
 948 949 948 949 877.696289062 1339.671875 c 1,0,-1
EndSplineSet
LCarets2: 1 0
Ligature2: "'rlig' Required Ligatures in Arabic lookup 16 subtable" uniFEE0 uniFE8E
EndChar

StartChar: arabic_dot
Encoding: 65536 -1 260
Width: 237
VWidth: 3297
GlyphClass: 2
Flags: W
LayerCount: 2
Fore
SplineSet
118.072265625 295.35546875 m 1,0,-1
 284.001953125 129.42578125 l 1,1,-1
 118.072265625 -36.505859375 l 1,2,-1
 -47.859375 129.42578125 l 1,3,-1
 118.072265625 295.35546875 l 1,0,-1
EndSplineSet
EndChar

StartChar: arabic_2dots
Encoding: 65537 -1 261
Width: 622
VWidth: 3297
GlyphClass: 2
Flags: W
LayerCount: 2
Fore
SplineSet
308.815429688 125.071289062 m 1,0,-1
 308.03515625 124.290039062 l 1,1,-1
 150.204101562 -33.5400390625 l 1,2,-1
 -8.404296875 125.071289062 l 1,3,-1
 150.204101562 283.6796875 l 1,4,-1
 308.03515625 125.8515625 l 1,5,-1
 308.815429688 125.071289062 l 1,0,-1
314.706054688 125.071289062 m 1,6,-1
 473.315429688 283.6796875 l 1,7,-1
 631.92578125 125.071289062 l 1,8,-1
 473.315429688 -33.5400390625 l 1,9,-1
 315.486328125 124.290039062 l 1,10,-1
 314.706054688 125.071289062 l 1,6,-1
EndSplineSet
EndChar

StartChar: arabic_3dots
Encoding: 65538 -1 262
Width: 600
VWidth: 3297
GlyphClass: 2
Flags: W
LayerCount: 2
Fore
SplineSet
469.1484375 249.309570312 m 1,0,-1
 619.177734375 99.279296875 l 1,1,-1
 469.1484375 -50.7509765625 l 1,2,-1
 319.120117188 99.279296875 l 1,3,-1
 469.1484375 249.309570312 l 1,0,-1
132.828125 249.309570312 m 1,4,-1
 282.857421875 99.279296875 l 1,5,-1
 132.828125 -50.7509765625 l 1,6,-1
 -17.201171875 99.279296875 l 1,7,-1
 132.828125 249.309570312 l 1,4,-1
300.836914062 510.389648438 m 1,8,-1
 450.865234375 360.359375 l 1,9,-1
 300.836914062 210.328125 l 1,10,-1
 150.80859375 360.359375 l 1,11,-1
 300.836914062 510.389648438 l 1,8,-1
EndSplineSet
EndChar

StartChar: arabic_3dots_a
Encoding: 65539 -1 263
Width: 647
VWidth: 3297
GlyphClass: 2
Flags: W
LayerCount: 2
Fore
SplineSet
156.168945312 -11.0771484375 m 1,0,-1
 6.1396484375 138.953125 l 1,1,-1
 156.168945312 288.982421875 l 1,2,-1
 306.198242188 138.953125 l 1,3,-1
 156.168945312 -11.0771484375 l 1,0,-1
492.490234375 -11.0771484375 m 1,4,-1
 342.4609375 138.953125 l 1,5,-1
 492.490234375 288.983398438 l 1,6,-1
 642.520507812 138.953125 l 1,7,-1
 492.490234375 -11.0771484375 l 1,4,-1
324.48046875 -272.157226562 m 1,8,-1
 174.453125 -122.126953125 l 1,9,-1
 324.48046875 27.9033203125 l 1,10,-1
 474.509765625 -122.126953125 l 1,11,-1
 324.48046875 -272.157226562 l 1,8,-1
EndSplineSet
EndChar

StartChar: uni066E.fina
Encoding: 65540 -1 264
Width: 2086
VWidth: 3808
GlyphClass: 2
Flags: W
AnchorPoint: "Anchor-10" 1035.81 1840.22 basechar 0
AnchorPoint: "Anchor-7" 965.431 -366.258 basechar 0
LayerCount: 2
Fore
SplineSet
2091.11425781 0 m 2,0,-1
 2062.28613281 0 l 2,1,2
 1759 0 1759 0 1689.79394531 210.345703125 c 1,3,4
 1397 -87 1397 -87 792.51171875 -86.833984375 c 0,5,6
 84 -86 84 -86 87.4287109375 419.53515625 c 0,7,8
 89 602 89 602 203.01171875 774.547851562 c 1,9,-1
 293.727539062 737.8359375 l 1,10,11
 240 605 240 605 239.57421875 530.038085938 c 0,12,13
 236 244 236 244 818.124023438 244.518554688 c 0,14,15
 1564.59362618 244.000282145 1564.59362618 244.000282145 1734.2421875 662.431640625 c 2,16,-1
 1740.8515625 678.733398438 l 1,17,-1
 1840.12304688 646.943359375 l 1,18,-1
 1820.66601562 561.1171875 l 2,19,20
 1769.00022118 333.000976562 1769.00022118 333.000976562 2061.85449219 333.000976562 c 2,21,-1
 2091.11425781 333.000976562 l 2,22,23
 2130.90527344 333.000002319 2130.90527344 333.000002319 2130.90527344 217.083007812 c 6,24,-1
 2130.90527344 113.83203125 l 6,25,26
 2131 0 2131 0 2091.11425781 0 c 2,0,-1
EndSplineSet
EndChar

StartChar: uni06A1.fina
Encoding: 65543 -1 265
Width: 2088
VWidth: 3803
GlyphClass: 2
Flags: W
AnchorPoint: "Anchor-10" 769.559 2023.43 basechar 0
AnchorPoint: "Anchor-7" 960.034 -452.74 basechar 0
LayerCount: 2
Fore
SplineSet
1402.60742188 341.078125 m 1,0,1
 1275 450 1275 450 1274.00390625 593.322265625 c 0,2,3
 1273 721 1273 721 1343.93652344 828.912109375 c 0,4,5
 1447 984 1447 984 1581.26757812 983.729492188 c 0,6,7
 1739 983 1739 983 1830.35058594 804.555664062 c 0,8,9
 1931 608 1931 608 1815.31835938 423.428710938 c 0,10,11
 1795 391 1795 391 1767.80859375 359.8671875 c 1,12,13
 1864.99646731 333.000976562 1864.99646731 333.000976562 2019.70214844 333.000976562 c 2,14,-1
 2093.22167969 333.000976562 l 2,15,16
 2130.98144531 333.00000048 2130.98144531 333.00000048 2130.98144531 161.186523438 c 6,17,-1
 2130.98144531 153.779296875 l 6,18,19
 2131 0 2131 0 2093.22167969 0 c 2,20,-1
 2020.13476562 0 l 2,21,22
 1763 0 1763 0 1590.18457031 123.94921875 c 1,23,24
 1304 -87 1304 -87 792.51171875 -86.833984375 c 0,25,26
 84 -86 84 -86 87.4287109375 419.53515625 c 0,27,28
 89 602 89 602 203.01171875 774.547851562 c 1,29,-1
 293.727539062 737.8359375 l 1,30,31
 240 605 240 605 239.57421875 530.038085938 c 0,32,33
 236 245 236 245 818.124023438 244.518554688 c 0,34,35
 1177 244 1177 244 1402.60742188 341.078125 c 1,0,1
1423.99121094 563.932617188 m 0,36,37
 1420.52246094 519.5234375 1420.52246094 519.5234375 1463.16796875 483.954101562 c 0,38,39
 1542.76367188 415.197265625 1542.76367188 415.197265625 1577.72851562 415.606445312 c 0,40,41
 1612.31445312 415.197265625 1612.31445312 415.197265625 1667.54394531 467.041015625 c 0,42,43
 1761.953125 554.298828125 1761.953125 554.298828125 1682.02148438 636.783203125 c 0,44,45
 1618.63671875 700.77734375 1618.63671875 700.77734375 1571.16015625 695.6484375 c 0,46,47
 1528.00976562 691.29296875 1528.00976562 691.29296875 1476.3203125 644.139648438 c 0,48,49
 1426.84472656 599.612304688 1426.84472656 599.612304688 1423.99121094 563.932617188 c 0,36,37
EndSplineSet
EndChar

StartChar: uni06A1.init
Encoding: 65544 -1 266
Width: 799
VWidth: 3836
GlyphClass: 2
Flags: W
AnchorPoint: "Anchor-10" 495.608 2086.05 basechar 0
AnchorPoint: "Anchor-7" 399.106 -362.532 basechar 0
LayerCount: 2
Fore
SplineSet
-5.2685546875 333.000976562 m 6,0,-1
 291.111328125 333.547851562 l 2,1,2
 571 334 571 334 571.41796875 480.192382812 c 1,3,4
 497 458 497 458 366.787109375 455.518554688 c 0,5,6
 234 453 234 453 174.239257812 496.228515625 c 0,7,8
 52 586 52 586 143.561523438 879.857421875 c 0,9,10
 220 1124 220 1124 395.349609375 1125.00976562 c 0,11,12
 510 1125 510 1125 583.805664062 1024.29394531 c 0,13,14
 712 847 712 847 712.23046875 548.0546875 c 0,15,16
 712 249 712 249 603.827148438 125.40234375 c 0,17,18
 493 0 493 0 226.489257812 0 c 2,19,-1
 -5.2685546875 0 l 6,20,21
 -85.2783203125 0 -85.2783203125 0 -85.2783203125 112.759765625 c 6,22,-1
 -85.2783203125 219.185546875 l 6,23,24
 -85 333 -85 333 -5.2685546875 333.000976562 c 6,0,-1
559.674804688 732.11328125 m 1,25,26
 475.263671875 875.708007812 475.263671875 875.708007812 367.791015625 875.557617188 c 0,27,28
 275.041992188 875.708007812 275.041992188 875.708007812 246.462890625 781.606445312 c 0,29,30
 240.266601562 760.84375 240.266601562 760.84375 240.266601562 745.209960938 c 0,31,32
 240.266601562 725.014648438 240.266601562 725.014648438 272.407226562 716.23046875 c 0,33,34
 377.260742188 687.077148438 377.260742188 687.077148438 559.674804688 732.11328125 c 1,25,26
EndSplineSet
EndChar

